<svg width="22" height="22" viewBox="0 0 22 22" fill="none" xmlns="http://www.w3.org/2000/svg">
<g clip-path="url(#clip0_241_111)">
<path d="M8.79414 0C9.1758 0.0464349 9.55892 0.0841633 9.94058 0.145109C11.3151 0.346642 12.6486 0.766461 13.8907 1.38869C13.9999 1.43978 14.0912 1.52236 14.153 1.6258C14.2148 1.72924 14.2443 1.84882 14.2375 1.96913C14.2375 3.45989 14.2375 4.95016 14.2375 6.43995C14.2375 6.46026 14.2274 6.48058 14.2375 6.45301C13.7717 6.48058 13.316 6.453 12.8821 6.54297C12.179 6.6914 11.5474 7.07501 11.0915 7.63056C10.6357 8.1861 10.3827 8.8804 10.3745 9.59897C10.3745 12.3212 10.3745 15.0435 10.3745 17.7672V18.0385H6.53464V17.7744C6.53464 15.0889 6.53464 12.4025 6.53464 9.71506C6.54784 8.96999 6.3009 8.24362 5.83633 7.66095C5.37175 7.07828 4.7186 6.67576 3.98926 6.52266C3.63372 6.44575 3.25206 6.48493 2.88201 6.47332C2.81961 6.47332 2.75575 6.48203 2.66578 6.48928V6.23969C2.66578 4.8568 2.66578 3.47391 2.66578 2.09102C2.65262 1.92656 2.6928 1.76224 2.78036 1.6224C2.86793 1.48257 2.99822 1.37467 3.15193 1.31469C4.52965 0.660364 6.00606 0.238213 7.52145 0.0652987L8.06855 0H8.79414ZM6.50127 4.5129C6.50098 4.89833 6.615 5.2752 6.82891 5.59584C7.04283 5.91648 7.34703 6.1665 7.70304 6.31426C8.05905 6.46203 8.4509 6.50091 8.82901 6.426C9.20712 6.35108 9.55453 6.16574 9.82729 5.89339C10.1001 5.62105 10.2859 5.27394 10.3614 4.89596C10.4369 4.51799 10.3986 4.12612 10.2514 3.76991C10.1041 3.4137 9.85453 3.10915 9.53419 2.89477C9.21385 2.68039 8.83713 2.56582 8.45166 2.56553C8.19584 2.56476 7.94239 2.61463 7.70592 2.71226C7.46946 2.80988 7.25465 2.95334 7.07389 3.13436C6.89312 3.31539 6.74997 3.53039 6.65269 3.76698C6.55541 4.00358 6.50592 4.25709 6.50707 4.5129H6.50127Z" fill="#18B411"/>
<path d="M22 15.5644C21.9826 15.6021 21.9609 15.6399 21.9464 15.679C21.9154 15.7795 21.8595 15.8704 21.7839 15.9434C21.7082 16.0163 21.6153 16.0689 21.5138 16.0961C21.4123 16.1234 21.3056 16.1245 21.2036 16.0992C21.1015 16.074 21.0076 16.0233 20.9305 15.9518C20.8144 15.8561 20.7085 15.7472 20.5851 15.6616C20.4368 15.5456 20.2539 15.4826 20.0656 15.4826C19.8773 15.4826 19.6944 15.5456 19.5461 15.6616C19.3892 15.7819 19.2394 15.9113 19.0977 16.0491C18.7612 16.3743 18.343 16.6024 17.8874 16.7093C17.6307 16.7624 17.3661 16.764 17.1088 16.7142C16.8515 16.6644 16.6066 16.5641 16.3883 16.4191C16.1709 16.2808 15.9678 16.1213 15.7817 15.9431C15.7193 15.8887 15.6686 15.8221 15.6329 15.7474C15.5971 15.6727 15.577 15.5915 15.5737 15.5088C15.5705 15.426 15.5841 15.3435 15.6139 15.2662C15.6437 15.189 15.6889 15.1186 15.7469 15.0594C15.8629 14.9406 16.021 14.8721 16.1871 14.8685C16.3532 14.865 16.514 14.9268 16.635 15.0406C16.7061 15.1015 16.7729 15.1668 16.8454 15.2249C17.2953 15.5804 17.6799 15.5847 18.1283 15.2249C18.3634 15.0391 18.5738 14.8185 18.819 14.6444C19.6433 14.064 20.5605 14.0857 21.3746 14.6763C21.6358 14.865 21.8839 15.0681 22.0044 15.383L22 15.5644Z" fill="#18B411"/>
<path d="M21.9999 9.11429C21.981 9.16072 21.9593 9.2057 21.9418 9.25069C21.9097 9.34045 21.8574 9.42163 21.789 9.48799C21.7205 9.55434 21.6377 9.60409 21.547 9.63339C21.4563 9.66269 21.3601 9.67077 21.2657 9.657C21.1714 9.64323 21.0815 9.60798 21.0029 9.55397C20.9622 9.52451 20.9235 9.49253 20.8868 9.45819C20.2454 8.87776 19.8608 8.89227 19.2151 9.47706C18.9758 9.70177 18.7103 9.89667 18.4242 10.0575C17.7363 10.4261 17.0426 10.3724 16.3838 9.97043C16.1659 9.83348 15.9626 9.67448 15.7772 9.49592C15.7149 9.44149 15.6643 9.37493 15.6285 9.3003C15.5927 9.22568 15.5725 9.14455 15.5691 9.06186C15.5657 8.97918 15.5792 8.89666 15.6087 8.81936C15.6383 8.74205 15.6832 8.67157 15.7409 8.61221C15.8572 8.49343 16.0154 8.42482 16.1816 8.42102C16.3478 8.41722 16.5089 8.47855 16.6305 8.59189C16.7016 8.65429 16.7684 8.71814 16.8409 8.77618C17.2908 9.13315 17.6753 9.13605 18.1238 8.77618C18.3589 8.58899 18.5693 8.36842 18.8145 8.19574C19.6388 7.61531 20.556 7.63707 21.3701 8.22767C21.6313 8.41631 21.8794 8.62091 21.9999 8.9358V9.11429Z" fill="#18B411"/>
<path d="M21.9999 12.3343C21.9818 12.3648 21.9653 12.3963 21.9506 12.4286C21.7779 12.906 21.283 13.0293 20.9014 12.6927C20.7875 12.5869 20.6657 12.4899 20.5371 12.4025C20.4116 12.3111 20.2616 12.2593 20.1064 12.2539C19.9513 12.2485 19.798 12.2896 19.6664 12.372C19.4918 12.4837 19.3276 12.6109 19.1759 12.7522C18.8787 13.0435 18.5237 13.2694 18.134 13.4153C17.8884 13.5073 17.6261 13.5461 17.3644 13.529C17.1027 13.512 16.8476 13.4396 16.616 13.3167C16.3106 13.1465 16.0254 12.9426 15.7656 12.7086C15.7045 12.6545 15.6552 12.5883 15.6207 12.5143C15.5862 12.4403 15.5673 12.36 15.5652 12.2784C15.563 12.1967 15.5776 12.1155 15.6081 12.0398C15.6386 11.964 15.6843 11.8954 15.7424 11.838C15.8554 11.7218 16.0086 11.6534 16.1705 11.6466C16.3325 11.6399 16.4908 11.6954 16.6131 11.8017C16.722 11.8931 16.825 11.9947 16.9425 12.076C17.3227 12.3372 17.6681 12.3401 18.0338 12.0673C18.253 11.9062 18.4431 11.7074 18.6549 11.5391C19.7099 10.6989 20.9043 10.8861 21.8185 11.8554C21.8903 11.9511 21.9507 12.0548 21.9985 12.1645L21.9999 12.3343Z" fill="#18B411"/>
<path d="M3.95586 20.7376V19.3735H12.9532V20.7376C13.1854 20.7376 13.3973 20.7289 13.6092 20.7376C13.7348 20.7381 13.8574 20.7764 13.9609 20.8476C14.0645 20.9188 14.1442 21.0195 14.1896 21.1366C14.2447 21.2471 14.2604 21.3731 14.234 21.4938C14.2076 21.6144 14.1407 21.7224 14.0445 21.7998C13.9083 21.9126 13.7394 21.9788 13.5627 21.9884C10.1602 22 6.75665 22 3.35217 21.9884C3.26595 21.9935 3.17958 21.9813 3.0981 21.9527C3.01662 21.924 2.94167 21.8794 2.87764 21.8214C2.8136 21.7635 2.76175 21.6933 2.72512 21.6151C2.68849 21.5369 2.66782 21.4522 2.66431 21.3659C2.66431 21.0104 2.95454 20.7332 3.36087 20.7274L3.95586 20.7376Z" fill="#18B411"/>
<path d="M5.20117 18.0385C4.53943 18.0385 3.88785 18.0574 3.23917 18.0313C2.88363 18.0167 2.6674 17.7251 2.65869 17.3478C2.65869 16.7238 2.65869 16.1013 2.65869 15.4773C2.65869 13.0206 2.65869 10.5625 2.65869 8.10579C2.65869 7.90554 2.7269 7.83153 2.9083 7.79671C3.18503 7.73865 3.4712 7.74281 3.74613 7.80888C4.02106 7.87496 4.27786 8.0013 4.49798 8.17877C4.7181 8.35624 4.89602 8.5804 5.01889 8.83505C5.14176 9.0897 5.2065 9.36847 5.20843 9.6512C5.22875 12.4155 5.20843 15.1813 5.20843 17.9456C5.20815 17.9767 5.20573 18.0078 5.20117 18.0385V18.0385Z" fill="#18B411"/>
<path d="M11.6965 18.0443V17.7991C11.6965 15.1117 11.6965 12.4247 11.6965 9.73828C11.6965 8.78491 12.277 8.01293 13.1709 7.83009C13.4699 7.76915 13.7935 7.83009 14.1055 7.84315C14.2724 7.85186 14.2506 7.98826 14.2506 8.10145V17.2796C14.2506 17.7947 14.0025 18.0429 13.4873 18.0443H11.6965Z" fill="#18B411"/>
<path d="M0.619654 10.3027C0.495417 10.3007 0.374548 10.262 0.27226 10.1915C0.169972 10.121 0.0908348 10.0217 0.0448075 9.90634C-0.00121989 9.79093 -0.012083 9.66449 0.0135897 9.54292C0.0392625 9.42136 0.100324 9.31011 0.189085 9.22316C0.277846 9.13622 0.390342 9.07747 0.512418 9.05431C0.634493 9.03115 0.76069 9.04462 0.87513 9.09301C0.98957 9.1414 1.08714 9.22257 1.15556 9.32628C1.22398 9.42999 1.26018 9.55162 1.25962 9.67587C1.25097 9.84156 1.18039 9.99795 1.06186 10.1141C0.943324 10.2302 0.785499 10.2975 0.619654 10.3027V10.3027Z" fill="#18B411"/>
<path d="M1.25959 12.2603C1.25815 12.3846 1.21997 12.5057 1.14984 12.6083C1.0797 12.7109 0.980757 12.7905 0.865471 12.837C0.750184 12.8835 0.623712 12.8949 0.501983 12.8697C0.380254 12.8444 0.268712 12.7837 0.181413 12.6952C0.0941152 12.6067 0.0349652 12.4944 0.01141 12.3723C-0.0121451 12.2503 0.000947814 12.124 0.0490449 12.0093C0.097142 11.8947 0.178092 11.7969 0.281692 11.7282C0.385292 11.6595 0.506909 11.623 0.631225 11.6232C0.796927 11.6308 0.953669 11.7006 1.07015 11.8187C1.18663 11.9368 1.25428 12.0945 1.25959 12.2603Z" fill="#18B411"/>
<path d="M0.622561 14.2033C0.746926 14.2019 0.868927 14.2373 0.973178 14.3051C1.07743 14.373 1.15927 14.4701 1.20837 14.5844C1.25747 14.6987 1.27164 14.8249 1.24908 14.9472C1.22653 15.0695 1.16827 15.1824 1.08165 15.2716C0.995027 15.3609 0.883919 15.4225 0.762334 15.4487C0.640749 15.4749 0.514133 15.4645 0.398448 15.4188C0.282762 15.3731 0.183184 15.2942 0.112276 15.1921C0.0413674 15.0899 0.00230062 14.969 0 14.8447C0.00379437 14.679 0.0700446 14.5208 0.185486 14.4019C0.300928 14.283 0.45704 14.212 0.622561 14.2033V14.2033Z" fill="#18B411"/>
<path d="M9.08431 4.50855C9.08544 4.63285 9.04975 4.7547 8.98174 4.85876C8.91374 4.96282 8.81646 5.04442 8.70216 5.0933C8.58786 5.14217 8.46165 5.15613 8.33943 5.13342C8.21721 5.11071 8.10445 5.05233 8.01535 4.96565C7.92624 4.87897 7.86478 4.76786 7.83871 4.64632C7.81264 4.52478 7.82313 4.39825 7.86884 4.28265C7.91456 4.16706 7.99346 4.06758 8.09561 3.99674C8.19776 3.9259 8.31859 3.88688 8.44289 3.88458C8.60872 3.88874 8.76689 3.9553 8.8858 4.07097C9.0047 4.18664 9.07559 4.3429 9.08431 4.50855V4.50855Z" fill="#18B411"/>
</g>
<defs>
<clipPath id="clip0_241_111">
<rect width="22" height="22" fill="white"/>
</clipPath>
</defs>
</svg>
