<svg width="20" height="29" viewBox="0 0 20 29" fill="none" xmlns="http://www.w3.org/2000/svg">
<g clip-path="url(#clip0_187_1859)">
<path d="M19.1829 21.1589L19.183 21.1589C19.2209 21.0309 19.2855 20.6715 19.3414 20.2784C19.3973 19.886 19.4434 19.4671 19.4456 19.2209L19.1829 21.1589ZM19.1829 21.1589L19.1823 21.1617M19.1829 21.1589L19.1823 21.1617M19.1823 21.1617C18.7626 22.9605 17.851 24.6025 16.5525 25.8985C15.2539 27.1946 13.6212 28.0921 11.8423 28.4879C9.85037 28.9295 7.91102 28.7489 6.02914 27.9668C4.63461 27.3758 3.39488 26.4631 2.40831 25.3011C1.42169 24.1391 0.715408 22.7597 0.345528 21.2723L0.345518 21.2723M19.1823 21.1617L0.345518 21.2723M0.345518 21.2723C0.104513 20.3067 -0.012387 19.3245 0.0846038 18.3301C0.175393 17.3986 0.439751 16.5071 0.754348 15.626C1.24992 14.241 1.87275 12.913 2.5422 11.6028C3.76186 9.21941 5.14733 6.93206 6.60073 4.68486L6.60074 4.68484M0.345518 21.2723L6.60074 4.68484M6.60074 4.68484C7.25334 3.67482 7.92364 2.67687 8.59544 1.67982L8.59549 1.67976M6.60074 4.68484L8.59549 1.67976M8.59549 1.67976C8.84419 1.30944 9.18546 1.09069 9.54433 1.03122C9.90279 0.971818 10.2831 1.07057 10.6125 1.34329C10.7432 1.4583 10.8562 1.59248 10.9478 1.7414L10.9478 1.74141M8.59549 1.67976L10.9478 1.74141M10.9478 1.74141L10.9485 1.74251M10.9478 1.74141L10.9485 1.74251M10.9485 1.74251C12.0715 3.46452 13.1913 5.18844 14.308 6.91429M10.9485 1.74251L14.308 6.91429M0.856182 19.0259L0.856417 19.0259C0.860867 18.2704 1.01662 17.5459 1.22199 16.8309L1.22199 16.8309C1.57225 15.6125 2.07147 14.4559 2.61583 13.3203L2.61583 13.3203C4.08303 10.2631 5.82748 7.37294 7.67711 4.54655C7.67711 4.54655 7.67712 4.54655 7.67712 4.54655L0.856182 19.0259ZM0.856182 19.0259L0.856623 19.0307M0.856182 19.0259L0.856623 19.0307M0.856623 19.0307C0.867663 19.1517 0.876581 19.274 0.885535 19.3968M0.856623 19.0307L0.885535 19.3968M14.308 6.91429C14.3211 6.93461 14.3343 6.95522 14.3482 6.97699C14.3731 7.01581 14.4002 7.05828 14.4335 7.10916L14.4342 7.11037L14.4382 7.11713L14.4538 7.14379L14.5142 7.24723C14.5669 7.33752 14.6436 7.46927 14.7399 7.63505C14.9325 7.96661 15.203 8.43427 15.5151 8.97865C16.1393 10.0675 16.9295 11.463 17.5938 12.6904L17.6378 12.6666L17.5938 12.6904C18.1973 13.805 18.6622 15.1248 18.9754 16.3237C19.2887 17.5232 19.449 18.5974 19.4456 19.2208L14.308 6.91429ZM0.885535 19.3968C0.904911 19.6625 0.924458 19.9305 0.966053 20.1934M0.885535 19.3968L0.966053 20.1934M0.966053 20.1934C1.2345 21.8993 1.88198 23.4446 3.0223 24.7402C5.21882 27.2353 7.97149 28.2659 11.2345 27.7515C13.4104 27.4079 15.2001 26.3176 16.6057 24.6001C17.6216 23.3636 18.2852 21.8688 18.5248 20.2775C18.645 19.5151 18.6833 18.7452 18.5511 17.974C18.5511 17.974 18.5511 17.974 18.5511 17.974L18.5018 17.9824L0.966053 20.1934Z" fill="black" stroke="white" stroke-width="0.1"/>
<path d="M9.74246 26.908C7.76613 26.8946 6.01667 26.2429 4.53065 24.9217C3.08117 23.6317 2.2285 21.9977 1.91592 20.0644C1.72244 18.8678 1.92663 17.7224 2.2827 16.593C2.40874 16.1945 2.57826 15.8089 2.73834 15.422C2.84673 15.1598 3.04273 15.0645 3.3112 15.1438C3.89099 15.3145 4.46132 15.3107 5.01717 15.06C5.26043 14.9506 5.48541 14.794 5.73371 14.6987C6.67902 14.3348 7.60354 14.3789 8.48961 14.8905C9.27863 15.3484 10.0796 15.4022 10.8844 14.9545C11.553 14.5823 12.2526 14.3949 13.0151 14.5036C13.3853 14.5521 13.7433 14.6703 14.0707 14.8522C14.4633 15.0747 14.8717 15.2621 15.3311 15.2525C15.592 15.2457 15.8516 15.2119 16.1057 15.1515C16.4661 15.067 16.6457 15.1431 16.7989 15.4808C17.281 16.545 17.5904 17.6597 17.6635 18.8269C17.6835 19.3107 17.6457 19.7951 17.5507 20.2697C17.1499 22.4933 16.0206 24.2546 14.1873 25.535C13.09 26.3052 11.8121 26.7684 10.4823 26.878C10.3563 26.8895 10.2302 26.9004 10.1042 26.9055C9.97816 26.9106 9.86346 26.908 9.74246 26.908ZM12.9824 18.1279L12.9445 18.1055C12.945 18.0142 12.9179 17.925 12.867 17.8498C12.8161 17.7746 12.7438 17.717 12.6597 17.6847C12.4605 17.6066 12.2948 17.6725 12.1429 17.8126C10.467 19.3705 8.79105 20.9284 7.11512 22.4863C6.95164 22.628 6.79714 22.7801 6.65255 22.9416C6.61092 22.9936 6.58153 23.0545 6.56661 23.1198C6.55169 23.185 6.55165 23.2528 6.56648 23.3181C6.58131 23.3834 6.61062 23.4443 6.65219 23.4963C6.69375 23.5484 6.74647 23.5901 6.80632 23.6183C7.00547 23.7219 7.18445 23.6822 7.38989 23.4904L9.47777 21.5468C10.5802 20.5236 11.6816 19.4975 12.7819 18.4687C12.8727 18.3837 12.9149 18.243 12.9824 18.1279ZM9.29123 19.045C9.29092 18.6789 9.14844 18.3277 8.89468 18.0676C8.64092 17.8074 8.29634 17.6593 7.93565 17.6552C7.20146 17.6508 6.5618 18.2782 6.5618 19.0322C6.56089 19.2138 6.59525 19.3939 6.66291 19.5621C6.73058 19.7303 6.83022 19.8833 6.95615 20.0124C7.08209 20.1415 7.23185 20.2442 7.39689 20.3145C7.56192 20.3849 7.739 20.4216 7.91801 20.4225C8.09702 20.4234 8.27445 20.3886 8.44019 20.3199C8.60592 20.2512 8.7567 20.1501 8.88392 20.0223C9.01114 19.8945 9.11232 19.7425 9.18166 19.5751C9.25101 19.4076 9.28717 19.2279 9.28808 19.0462L9.29123 19.045ZM12.9464 22.2823C12.9388 21.9201 12.7916 21.5754 12.5365 21.3221C12.2814 21.0687 11.9387 20.9268 11.5817 20.9268C11.2248 20.9268 10.882 21.0687 10.6269 21.3221C10.3718 21.5754 10.2247 21.9201 10.217 22.2823C10.2101 23.0382 10.8472 23.6854 11.5909 23.672C11.951 23.6679 12.295 23.5196 12.5479 23.2593C12.8007 22.999 12.9419 22.6478 12.9408 22.2823H12.9464Z" fill="#7FCFEF"/>
<path d="M14.3795 10.6498C14.3734 10.7486 14.3392 10.8434 14.281 10.9229C14.2228 11.0024 14.1432 11.063 14.0518 11.0974C13.967 11.1269 13.8756 11.1301 13.789 11.1066C13.7025 11.0832 13.6248 11.0341 13.5659 10.9657C13.5422 10.9379 13.5211 10.9079 13.5028 10.8762C12.9113 9.87763 12.3206 8.87931 11.7307 7.88121C11.6884 7.81332 11.6642 7.73542 11.6604 7.65517C11.6567 7.57492 11.6736 7.49506 11.7094 7.42342C11.7452 7.35178 11.7988 7.29082 11.8648 7.24651C11.9309 7.20221 12.0071 7.17608 12.0861 7.17069C12.2985 7.1515 12.4422 7.26917 12.5462 7.44505C13.1197 8.41714 13.6923 9.38924 14.2641 10.3613C14.3098 10.4543 14.3484 10.5507 14.3795 10.6498V10.6498Z" fill="black"/>
<path d="M14.3195 12.0945C14.3179 12.0334 14.3284 11.9726 14.3505 11.9157C14.3726 11.8589 14.4058 11.8071 14.4481 11.7637C14.4903 11.7202 14.5408 11.6858 14.5965 11.6626C14.6521 11.6395 14.7118 11.628 14.772 11.6289C14.8321 11.6281 14.8918 11.6395 14.9476 11.6622C15.0034 11.685 15.0542 11.7187 15.0972 11.7615C15.1401 11.8043 15.1743 11.8553 15.1977 11.9116C15.2212 11.9678 15.2335 12.0283 15.2339 12.0894C15.2336 12.2128 15.1856 12.3312 15.1003 12.4191C15.015 12.507 14.8991 12.5574 14.7777 12.5594C14.6563 12.5592 14.54 12.5102 14.4541 12.4231C14.3682 12.336 14.3198 12.2178 14.3195 12.0945V12.0945Z" fill="black"/>
<path d="M9.28806 19.0449C9.28715 19.2266 9.25099 19.4063 9.18164 19.5738C9.1123 19.7413 9.01113 19.8932 8.8839 20.021C8.75668 20.1488 8.6059 20.25 8.44017 20.3186C8.27444 20.3873 8.097 20.4221 7.91799 20.4212C7.73898 20.4203 7.5619 20.3836 7.39687 20.3132C7.23183 20.2429 7.08207 20.1402 6.95614 20.0111C6.8302 19.882 6.73056 19.729 6.66289 19.5608C6.59523 19.3926 6.56087 19.2125 6.56179 19.0309C6.56179 18.2769 7.20145 17.6495 7.93564 17.654C8.29599 17.6588 8.63996 17.8075 8.89307 18.0679C9.14619 18.3282 9.28809 18.6792 9.28806 19.0449V19.0449ZM8.38182 19.0373C8.38099 18.9138 8.33198 18.7957 8.24552 18.7088C8.15906 18.6219 8.0422 18.5733 7.92051 18.5736C7.79901 18.5768 7.6835 18.6278 7.59845 18.7159C7.5134 18.804 7.46549 18.9222 7.46487 19.0456C7.46686 19.169 7.5169 19.2865 7.60405 19.3726C7.69121 19.4586 7.80838 19.5061 7.92996 19.5048C7.99022 19.5054 8.04999 19.4937 8.10567 19.4703C8.16136 19.4469 8.21181 19.4123 8.25401 19.3687C8.29621 19.325 8.32928 19.2732 8.35124 19.2162C8.37321 19.1593 8.38361 19.0984 8.38182 19.0373V19.0373Z" fill="black"/>
<path d="M12.9407 22.2823C12.9413 22.6484 12.7991 23 12.5451 23.2601C12.2911 23.5201 11.9459 23.6675 11.5851 23.6701C10.844 23.6835 10.2043 23.0363 10.2112 22.2804C10.2189 21.9182 10.3661 21.5735 10.6212 21.3201C10.8763 21.0668 11.219 20.9249 11.576 20.9249C11.9329 20.9249 12.2756 21.0668 12.5307 21.3201C12.7858 21.5735 12.933 21.9182 12.9407 22.2804V22.2823ZM11.587 21.8231C11.4653 21.8203 11.3476 21.8667 11.2596 21.9519C11.1716 22.0372 11.1204 22.1544 11.1175 22.2778C11.1171 22.4013 11.1644 22.5201 11.2491 22.6088C11.3339 22.6975 11.4495 22.749 11.5712 22.7523C11.6315 22.7533 11.6914 22.7423 11.7474 22.7197C11.8034 22.6971 11.8545 22.6635 11.8976 22.6208C11.9408 22.5782 11.9752 22.5272 11.9989 22.471C12.0226 22.4147 12.0351 22.3543 12.0357 22.2931C12.0379 22.2321 12.0279 22.1711 12.0063 22.1141C11.9847 22.057 11.952 22.0049 11.9101 21.961C11.8682 21.9171 11.818 21.8823 11.7624 21.8586C11.7069 21.8349 11.6472 21.8228 11.587 21.8231Z" fill="black"/>
<path d="M8.38052 19.0373C8.38231 19.0984 8.37192 19.1593 8.34999 19.2162C8.32805 19.2732 8.29503 19.325 8.25289 19.3687C8.21075 19.4123 8.16036 19.4469 8.10476 19.4703C8.04915 19.4937 7.98947 19.5054 7.92929 19.5048C7.80788 19.5061 7.69086 19.4586 7.60383 19.3726C7.5168 19.2865 7.46683 19.169 7.46484 19.0456C7.46546 18.9223 7.5133 18.804 7.59824 18.7159C7.68317 18.6278 7.79852 18.5768 7.91985 18.5736C8.04137 18.5733 8.15807 18.6219 8.24441 18.7088C8.33075 18.7957 8.37969 18.9138 8.38052 19.0373Z" fill="#7FCFEF"/>
<path d="M11.5863 21.8231C11.6464 21.8228 11.706 21.8349 11.7615 21.8586C11.8169 21.8823 11.8671 21.9171 11.909 21.961C11.9508 22.0049 11.9835 22.057 12.0051 22.1141C12.0266 22.1711 12.0366 22.2321 12.0344 22.2932C12.0338 22.3543 12.0213 22.4148 11.9977 22.471C11.974 22.5272 11.9396 22.5782 11.8965 22.6209C11.8534 22.6635 11.8024 22.6971 11.7465 22.7197C11.6905 22.7423 11.6307 22.7534 11.5706 22.7523C11.449 22.749 11.3336 22.6975 11.2489 22.6088C11.1642 22.5202 11.1171 22.4014 11.1174 22.2778C11.1204 22.1544 11.1714 22.0372 11.2593 21.9519C11.3472 21.8667 11.4648 21.8204 11.5863 21.8231Z" fill="#7FCFEF"/>
<path d="M12.9759 18.1336C12.906 18.2506 12.8562 18.3894 12.761 18.4815C12.0609 19.1466 11.3513 19.8022 10.6442 20.4602L7.38537 23.4891C7.17236 23.6867 6.98393 23.7225 6.7747 23.5997C6.72402 23.5692 6.67984 23.5287 6.64474 23.4806C6.60963 23.4325 6.5843 23.3779 6.57023 23.3198C6.55615 23.2617 6.55361 23.2013 6.56274 23.1422C6.57188 23.0831 6.59252 23.0265 6.62345 22.9755C6.65766 22.922 6.6983 22.873 6.74445 22.8297C8.55105 21.1512 10.3576 19.473 12.1642 17.7953C12.4239 17.5542 12.7888 17.6335 12.911 17.9545C12.9267 18.0045 12.9385 18.0556 12.9463 18.1074L12.9759 18.1336Z" fill="black"/>
</g>
<defs>
<clipPath id="clip0_187_1859">
<rect width="19.4942" height="27.8102" fill="white" transform="translate(0 0.963348)"/>
</clipPath>
</defs>
</svg>
