<svg width="187" height="208" viewBox="0 0 187 208" fill="none" xmlns="http://www.w3.org/2000/svg">
<g clip-path="url(#clip0_241_38)">
<path d="M129.349 0.551334C130.46 0.0918651 131.662 -0.104691 132.861 -0.022966C136.03 0.00185319 139.191 0.311307 142.305 0.901657C143.977 1.22327 145.673 1.62528 147.34 1.43576C146.438 2.49487 145.311 3.33871 144.04 3.90524C145.138 4.32571 146.196 4.8427 147.202 5.45011C149.644 6.88027 151.933 8.55846 154.03 10.458C152.465 10.5976 150.888 10.53 149.34 10.257C151.625 12.9953 154.2 15.4792 157.019 17.6655C156.024 17.8703 154.992 17.815 154.024 17.5047H154.059C154.45 17.631 154.869 17.8722 154.944 18.2628C155.019 18.6533 154.651 19.0495 154.277 19.2793C154.01 19.441 153.729 19.5793 153.438 19.6928C154.076 20.0258 154.703 20.3762 155.318 20.7495C153.366 21.803 151.232 22.4791 149.03 22.7423L150.398 23.8622C148.357 25.8033 145.19 26.0962 142.276 26.2857C142.45 26.506 142.682 26.6729 142.946 26.7674C143.211 26.8618 143.496 26.88 143.77 26.8198C141.661 28.7897 138.597 29.5765 135.562 29.4271C132.528 29.2778 129.613 28.2785 126.82 27.0495L127.222 4.46806C127.14 3.67701 127.299 2.8795 127.678 2.18042C128.058 1.48133 128.64 0.913405 129.349 0.551334V0.551334Z" fill="#591C10"/>
<path d="M129.625 28.0948C128.895 26.2857 130.125 24.224 129.775 22.3001C129.619 21.4559 129.16 20.6806 129.05 19.8248C128.941 18.9691 129.389 17.9182 130.252 17.8493C130.924 17.7976 131.792 18.303 132.177 17.7516C132.562 17.2003 131.976 16.1953 132.585 15.9655L134.626 18.1709C134.626 17.4185 134.585 16.6719 134.562 15.9196C135.979 17.7632 137.969 19.0844 140.218 19.6755C140.117 19.8909 139.971 20.0828 139.792 20.2392C139.612 20.3957 139.402 20.5132 139.175 20.5844C138.947 20.6557 138.708 20.679 138.471 20.6531C138.234 20.6271 138.005 20.5524 137.799 20.4336C138.679 21.214 139.742 21.7595 140.889 22.0196C142.037 22.2796 143.232 22.2457 144.363 21.921L141.598 20.5772C144.293 20.616 146.944 19.889 149.242 18.481C148.122 17.8342 147.229 16.8574 146.685 15.6841L151.858 16.7466C151.6 16.0587 151.21 15.4284 150.708 14.8916C152.417 15.6493 154.174 16.2939 155.967 16.8213C156.318 17.1141 156.669 17.3956 157.031 17.6942C156.035 17.8991 155.004 17.8437 154.036 17.5334H154.071C154.461 17.6597 154.881 17.9009 154.956 18.2915C155.031 18.682 154.663 19.0783 154.289 19.308C154.022 19.4697 153.741 19.6081 153.45 19.7215C154.088 20.0546 154.714 20.4049 155.329 20.7782C153.377 21.8318 151.244 22.5079 149.041 22.771L150.409 23.8909C148.369 25.832 145.202 26.1249 142.288 26.3144C142.461 26.5347 142.694 26.7016 142.958 26.7961C143.222 26.8905 143.508 26.9087 143.782 26.8485C141.673 28.8184 138.609 29.6052 135.574 29.4559C133.567 29.3247 131.589 28.907 129.7 28.2154C129.671 28.1809 129.642 28.1407 129.625 28.0948Z" fill="#36110A"/>
<path d="M120.59 19.308C120.796 18.9691 120.59 17.878 120.934 17.809C121.279 17.7401 125.297 17.4702 124.82 17.4013C124.343 17.3324 121.411 17.1256 121.274 16.7868C121.136 16.4479 122.297 15.15 122.297 15.15C123.596 14.6734 125.24 11.8823 124.86 10.7222C124.958 10.1479 126.866 2.81406 129.596 2.40631C129.734 2.54414 128.677 6.77099 130.602 8.47092C131.502 9.33458 132.518 10.0691 133.62 10.6533L134.367 11.8019C134.367 11.8019 131.309 17.7286 131.919 20.112C131.919 21.4788 132.574 20.4221 132.574 20.4221L133.212 21.4099C133.212 21.4099 136.275 17.7286 137.643 19.6353C139.011 21.542 138.327 24.0689 136.413 24.804C134.499 25.5391 133.62 23.6554 132.936 23.9885C132.252 24.3216 130.821 26.2857 132.258 26.7796L133.281 27.0553L132.867 33.3037L124.297 38.7193L121.82 38.4436C122.636 36.0603 123.866 32.6547 124.004 30.8112C124.142 28.9677 124.274 27.9397 124.004 26.5212C123.734 25.1026 119.405 24.224 119.222 23.3051C119.084 22.57 120.388 19.6468 120.59 19.308Z" fill="#ECC19C"/>
<path d="M122.297 15.173C122.297 15.173 120.658 12.1752 121.072 11.5607C121.486 10.9462 124.762 11.2908 124.86 10.7452C125.239 11.8823 123.596 14.6734 122.297 15.173Z" fill="#D4806A"/>
<g style="mix-blend-mode:multiply" opacity="0.49">
<path d="M119.221 23.3166C119.213 23.2461 119.213 23.1747 119.221 23.1041C122.606 24.2049 126.162 24.6798 129.717 24.5054C131.211 24.4307 132.861 24.1551 133.781 22.9835C134.269 22.3575 134.539 21.5076 135.246 21.1572C135.65 21.0062 136.093 21.0004 136.5 21.1409C136.907 21.2814 137.253 21.5593 137.477 21.9268C137.76 22.3718 137.933 22.8777 137.982 23.4028C137.654 24.0531 137.097 24.56 136.419 24.827C134.511 25.5793 133.626 23.6784 132.942 24.0115C132.258 24.3446 130.826 26.3087 132.263 26.8026L133.286 27.0783L133.022 31.0984L123.469 33.4415C123.73 32.5873 123.911 31.7105 124.009 30.8227C124.147 28.9849 124.28 27.9512 124.009 26.5327C123.739 25.1142 119.388 24.247 119.221 23.3166Z" fill="#ECC19C"/>
</g>
<path d="M143.317 55.3281L165.842 65.8665C160.962 63.6497 155.318 64.1436 150.036 65.005C144.753 65.8665 139.374 67.1012 134.091 66.2168C134.364 63.6884 135.388 61.2996 137.032 59.3587C138.677 57.4177 140.866 56.0138 143.317 55.3281V55.3281Z" fill="#105B5B"/>
<path d="M102.507 187.061C103.266 185.597 105.093 183.816 106.174 183.34C106.405 183.238 106.641 183.148 106.881 183.07C107.998 184.085 108.731 185.454 108.956 186.946L125.705 187.52C125.659 187.98 125.602 188.434 125.521 188.887L103.151 188.192C103.019 188.191 102.889 188.155 102.776 188.089C102.662 188.022 102.568 187.926 102.503 187.812C102.437 187.697 102.404 187.568 102.404 187.436C102.405 187.304 102.44 187.175 102.507 187.061V187.061Z" fill="#EEE5C2"/>
<path d="M119.928 181.869C118.287 181.501 116.751 180.762 115.439 179.71C115.474 179.67 115.52 179.635 115.554 179.589C115.859 179.229 116.065 178.795 116.151 178.331C116.238 177.867 116.202 177.388 116.049 176.942L121.383 175.592C121.568 176.49 121.98 177.326 122.578 178.022C122.81 178.237 123.062 178.429 123.331 178.596C122.871 180.06 121.871 182.162 119.928 181.869Z" fill="#ECC19C"/>
<path d="M106.858 183.07C108.007 182.673 109.289 182.495 110.496 182.208C111.456 181.971 112.389 181.64 113.284 181.22C114.102 180.877 114.837 180.362 115.439 179.71C116.751 180.762 118.287 181.501 119.928 181.869C121.871 182.162 122.871 180.06 123.331 178.584C123.7 178.803 124.042 179.065 124.348 179.365C124.839 179.959 125.162 180.673 125.285 181.433C125.743 183.42 125.869 185.469 125.659 187.497L108.91 186.923C108.686 185.442 107.962 184.083 106.858 183.07V183.07Z" fill="#632313"/>
<path d="M93.6725 127.535C96.1613 124.382 114.112 83.6238 114.112 83.6238L116.244 70.949L136.856 74.1594C136.856 74.1594 137.195 84.9735 137.638 88.6203C138.08 92.2671 138.856 101.33 131.114 103.983C123.372 106.636 106.105 131.262 105.823 133.048C105.823 133.048 109.651 139.526 111.382 144.994C113.112 150.461 121.636 175.788 121.636 175.788L114.692 178.55C114.692 178.55 91.1837 130.688 93.6725 127.535Z" fill="#8F3118"/>
<g style="mix-blend-mode:multiply" filter="url(#filter0_d_241_38)">
<path d="M93.5 207.994C41.8614 207.994 0 206.593 0 204.864C0 203.136 41.8614 201.734 93.5 201.734C145.139 201.734 187 203.136 187 204.864C187 206.593 145.139 207.994 93.5 207.994Z" fill="#DFDFDF"/>
</g>
<path d="M121.365 189.8L109.933 171.676C109.852 171.546 109.723 171.454 109.574 171.42C109.426 171.385 109.269 171.411 109.14 171.492C109.01 171.573 108.918 171.701 108.884 171.85C108.849 171.999 108.875 172.155 108.956 172.284L120.394 190.415C120.434 190.479 120.487 190.534 120.549 190.577C120.61 190.621 120.68 190.652 120.754 190.668C120.827 190.685 120.904 190.687 120.978 190.674C121.052 190.661 121.123 190.633 121.187 190.593C121.251 190.553 121.306 190.5 121.35 190.439C121.393 190.377 121.424 190.307 121.441 190.234C121.457 190.16 121.459 190.084 121.446 190.01C121.433 189.935 121.406 189.864 121.365 189.8V189.8Z" fill="#CBDFFF"/>
<path d="M112.997 187.222H127.676C128.057 187.222 128.366 187.53 128.366 187.911V192.132C128.366 192.513 128.057 192.821 127.676 192.821H112.997C112.616 192.821 112.307 192.513 112.307 192.132V187.911C112.307 187.53 112.616 187.222 112.997 187.222Z" fill="#FFB700"/>
<path d="M151.622 140.37C145.762 140.37 140.034 142.107 135.161 145.359C130.289 148.612 126.491 153.236 124.248 158.645C122.005 164.054 121.418 170.007 122.561 175.749C123.704 181.492 126.525 186.767 130.668 190.908C134.812 195.048 140.091 197.868 145.838 199.011C151.585 200.154 157.543 199.569 162.957 197.329C168.371 195.089 172.999 191.295 176.256 186.428C179.512 181.56 181.251 175.836 181.252 169.981C181.245 162.131 178.121 154.605 172.566 149.054C167.011 143.502 159.479 140.38 151.622 140.37ZM151.622 134.627C158.619 134.627 165.459 136.701 171.277 140.585C177.095 144.469 181.629 149.989 184.307 156.448C186.985 162.907 187.685 170.015 186.32 176.872C184.955 183.729 181.586 190.027 176.638 194.971C171.69 199.914 165.387 203.281 158.524 204.645C151.661 206.008 144.548 205.308 138.084 202.633C131.619 199.958 126.094 195.427 122.206 189.614C118.319 183.801 116.244 176.967 116.244 169.976C116.244 165.334 117.159 160.737 118.937 156.448C120.715 152.16 123.321 148.263 126.606 144.981C129.891 141.698 133.791 139.095 138.084 137.318C142.376 135.542 146.976 134.627 151.622 134.627Z" fill="#FFF5D0"/>
<path d="M44.0571 140.37C38.1969 140.37 32.4682 142.107 27.5955 145.36C22.7229 148.613 18.9251 153.237 16.6825 158.646C14.4399 164.056 13.8531 170.008 14.9964 175.751C16.1397 181.494 18.9617 186.769 23.1055 190.91C27.2493 195.05 32.5289 197.87 38.2766 199.012C44.0243 200.154 49.9819 199.568 55.3961 197.327C60.8103 195.086 65.4379 191.292 68.6936 186.423C71.9494 181.555 73.6872 175.831 73.6872 169.976C73.6781 162.127 70.5534 154.602 64.9987 149.052C59.4439 143.502 51.9127 140.38 44.0571 140.37M44.0571 134.627C51.0542 134.627 57.8942 136.701 63.712 140.585C69.5299 144.469 74.0644 149.989 76.7421 156.448C79.4197 162.907 80.1203 170.015 78.7553 176.872C77.3902 183.729 74.0208 190.027 69.0731 194.971C64.1254 199.914 57.8217 203.281 50.959 204.645C44.0964 206.008 36.9831 205.308 30.5186 202.633C24.0541 199.958 18.5288 195.427 14.6415 189.614C10.7541 183.801 8.67922 176.967 8.67922 169.976C8.67922 165.334 9.59429 160.737 11.3722 156.448C13.1501 152.16 15.756 148.263 19.0412 144.981C22.3263 141.698 26.2263 139.095 30.5186 137.318C34.8108 135.542 39.4112 134.627 44.0571 134.627Z" fill="#FFF5D0"/>
<path d="M44.0569 140.37C36.3518 140.38 28.953 143.386 23.4269 148.751C17.9008 154.116 14.6812 161.419 14.4498 169.114C14.4498 168.827 14.4498 168.54 14.4498 168.253C14.4498 160.401 17.5715 152.871 23.1283 147.319C28.685 141.767 36.2215 138.648 44.0799 138.648C51.9383 138.648 59.4748 141.767 65.0315 147.319C70.5882 152.871 73.71 160.401 73.71 168.253C73.71 168.54 73.71 168.827 73.71 169.114C73.4783 161.411 70.2523 154.101 64.7164 148.735C59.1804 143.369 51.77 140.368 44.0569 140.37V140.37Z" fill="#DBD3B1"/>
<path d="M151.622 140.37C143.917 140.38 136.518 143.386 130.992 148.751C125.466 154.116 122.246 161.419 122.015 169.114C122.015 168.827 122.015 168.54 122.015 168.253C122.015 160.401 125.136 152.871 130.693 147.319C136.25 141.767 143.786 138.648 151.645 138.648C159.503 138.648 167.04 141.767 172.596 147.319C178.153 152.871 181.275 160.401 181.275 168.253C181.275 168.54 181.275 168.827 181.275 169.114C181.043 161.411 177.817 154.101 172.281 148.735C166.745 143.369 159.335 140.368 151.622 140.37V140.37Z" fill="#DBD3B1"/>
<path d="M106.53 176.907H106.801L151.289 171.819C151.693 171.773 152.079 171.622 152.407 171.38C152.735 171.139 152.994 170.817 153.158 170.444C153.323 170.072 153.387 169.663 153.344 169.259C153.302 168.854 153.154 168.468 152.915 168.138L122.624 126.254C122.409 125.954 122.125 125.71 121.796 125.541C121.467 125.372 121.103 125.284 120.733 125.284H59.289C58.8264 125.283 58.374 125.419 57.9891 125.676C57.6043 125.932 57.3045 126.297 57.1277 126.724C56.9509 127.151 56.9052 127.621 56.9963 128.074C57.0874 128.528 57.3112 128.943 57.6394 129.269L104.852 176.23C105.073 176.449 105.335 176.621 105.623 176.738C105.911 176.854 106.22 176.912 106.53 176.907V176.907ZM149.007 168.603L106.939 173.41L62.0192 128.729H120.187L149.007 168.603Z" fill="#316B5C"/>
<path d="M125.1 106.841L128.406 107.821L108.252 175.673L104.945 174.692L125.1 106.841Z" fill="#316B5C"/>
<path d="M44.0572 173.215C44.4208 173.214 44.775 173.099 45.0693 172.886C45.3635 172.672 45.5826 172.371 45.6953 172.026L63.7263 116.635C63.932 115.967 63.9875 115.263 63.8887 114.572C63.7898 113.881 63.5391 113.22 63.1545 112.637C62.77 112.054 62.261 111.563 61.6642 111.2C61.0675 110.837 60.3976 110.61 59.7028 110.536L46.2643 109.025C46.0379 109 45.8087 109.019 45.5898 109.083C45.3709 109.146 45.1667 109.252 44.9887 109.394C44.8107 109.536 44.6624 109.712 44.5524 109.911C44.4424 110.11 44.3727 110.329 44.3474 110.556C44.3222 110.782 44.3417 111.011 44.405 111.23C44.4683 111.448 44.5741 111.652 44.7163 111.83C44.8586 112.008 45.0345 112.156 45.234 112.266C45.4335 112.376 45.6528 112.446 45.8792 112.471L59.3407 113.953C59.5286 113.974 59.7095 114.037 59.8708 114.136C60.0321 114.234 60.1698 114.367 60.2744 114.525C60.3789 114.682 60.4478 114.861 60.4761 115.048C60.5045 115.234 60.4916 115.425 60.4385 115.607L42.419 170.952C42.3347 171.21 42.3127 171.485 42.3551 171.754C42.3974 172.023 42.5027 172.277 42.6625 172.497C42.8223 172.718 43.032 172.897 43.2744 173.021C43.5168 173.144 43.785 173.209 44.0572 173.209V173.215Z" fill="#316B5C"/>
<path d="M132.798 100.79C134.227 100.82 135.605 101.326 136.715 102.227C137.825 103.127 138.602 104.372 138.925 105.763C139.5 108.502 138.155 111.23 134.752 112.218C129.154 113.843 130.78 108.066 125.901 108.066C121.021 108.066 112.525 108.606 111.623 106.619C110.72 104.632 110.583 102.828 112.818 101.381C114.549 100.267 127.182 100.589 132.798 100.79Z" fill="#FFB700"/>
<path d="M107.191 162.734C107.456 169.137 107.927 178.722 108.214 180.669C112.583 180.543 146.725 174.576 151.214 173.777L151.059 165.737L107.191 162.716M106.617 162.102L151.645 165.203L151.8 174.254C151.8 174.254 112.209 181.232 108.117 181.232C107.916 181.232 107.795 181.232 107.778 181.18C107.364 180.411 106.628 162.108 106.628 162.108L106.617 162.102Z" fill="#FFB700"/>
<path d="M107.335 161.045C107.317 161.136 107.269 161.218 107.2 161.28C107.13 161.341 107.043 161.378 106.951 161.385C106.858 161.392 106.766 161.369 106.688 161.319C106.61 161.269 106.551 161.195 106.519 161.108V161.108C106.487 161.015 106.423 160.937 106.339 160.886C106.254 160.835 106.155 160.816 106.058 160.831C105.96 160.846 105.872 160.894 105.807 160.968C105.742 161.042 105.705 161.136 105.702 161.235C105.702 161.329 105.67 161.42 105.612 161.494C105.553 161.567 105.472 161.619 105.38 161.641C105.289 161.663 105.193 161.654 105.107 161.614C105.022 161.575 104.952 161.508 104.909 161.424C104.861 161.339 104.785 161.272 104.693 161.236C104.601 161.201 104.5 161.198 104.406 161.228C104.313 161.259 104.233 161.321 104.18 161.404C104.127 161.486 104.104 161.585 104.116 161.683V161.683C104.13 161.775 104.112 161.87 104.066 161.951C104.02 162.033 103.947 162.096 103.861 162.132C103.774 162.168 103.678 162.173 103.588 162.148C103.498 162.123 103.419 162.068 103.363 161.993V161.993C103.304 161.913 103.218 161.857 103.121 161.835C103.024 161.813 102.923 161.826 102.834 161.871C102.746 161.916 102.677 161.992 102.639 162.083C102.601 162.175 102.597 162.277 102.627 162.372V162.372C102.642 162.458 102.631 162.547 102.593 162.626C102.556 162.705 102.495 162.771 102.419 162.814C102.343 162.858 102.255 162.877 102.168 162.868C102.081 162.86 101.998 162.825 101.932 162.768V162.768C101.859 162.704 101.767 162.666 101.67 162.661C101.573 162.656 101.477 162.684 101.399 162.741C101.32 162.799 101.264 162.881 101.238 162.974C101.213 163.068 101.22 163.167 101.259 163.256V163.256C101.296 163.34 101.305 163.434 101.285 163.523C101.265 163.612 101.216 163.692 101.146 163.752C101.076 163.811 100.989 163.847 100.898 163.852C100.806 163.858 100.715 163.835 100.639 163.785V163.785C100.558 163.737 100.465 163.718 100.372 163.73C100.28 163.741 100.194 163.783 100.128 163.849C100.062 163.915 100.02 164.001 100.009 164.093C99.9969 164.185 100.016 164.279 100.064 164.359V164.359C100.114 164.436 100.138 164.527 100.132 164.618C100.126 164.709 100.09 164.796 100.031 164.866C99.9715 164.936 99.8911 164.985 99.8017 165.005C99.7124 165.025 99.6188 165.016 99.535 164.979V164.979C99.4461 164.94 99.3465 164.933 99.2528 164.958C99.159 164.983 99.0768 165.04 99.0197 165.118C98.9627 165.197 98.9342 165.293 98.939 165.39C98.9439 165.486 98.9818 165.579 99.0464 165.651C99.1076 165.719 99.1453 165.805 99.1536 165.896C99.162 165.987 99.1408 166.079 99.093 166.157C99.0452 166.235 98.9734 166.296 98.8884 166.33C98.8034 166.364 98.7096 166.37 98.6211 166.346V166.346C98.5268 166.32 98.4264 166.328 98.337 166.367C98.2475 166.406 98.1743 166.475 98.1298 166.562C98.0852 166.649 98.0721 166.749 98.0924 166.844C98.1128 166.94 98.1655 167.026 98.2417 167.087V167.087C98.3172 167.142 98.3719 167.221 98.3971 167.312C98.4223 167.402 98.4166 167.498 98.3809 167.584C98.3452 167.671 98.2816 167.743 98.2001 167.789C98.1186 167.835 98.024 167.853 97.9313 167.839V167.839C97.8327 167.823 97.7316 167.843 97.6463 167.895C97.5609 167.947 97.4969 168.027 97.4657 168.122C97.4346 168.217 97.4383 168.32 97.4762 168.412C97.5141 168.505 97.5838 168.58 97.6727 168.626V168.626C97.7521 168.672 97.8146 168.742 97.8509 168.826C97.8871 168.91 97.8952 169.004 97.8739 169.093C97.8526 169.182 97.803 169.262 97.7325 169.321C97.6621 169.379 97.5746 169.414 97.483 169.419V169.419C97.3855 169.423 97.2925 169.461 97.2198 169.526C97.147 169.591 97.0988 169.679 97.0833 169.776C97.0678 169.872 97.0859 169.971 97.1346 170.055C97.1833 170.14 97.2597 170.205 97.3508 170.24V170.24C97.439 170.27 97.5146 170.328 97.5658 170.406C97.617 170.484 97.6409 170.576 97.6336 170.669C97.6264 170.762 97.5885 170.85 97.5258 170.919C97.4631 170.987 97.3793 171.034 97.2876 171.05V171.05C97.1896 171.066 97.1007 171.116 97.0365 171.192C96.9724 171.268 96.9372 171.364 96.9372 171.463C96.9372 171.562 96.9724 171.658 97.0365 171.734C97.1007 171.81 97.1896 171.86 97.2876 171.877V171.877C97.3784 171.895 97.4608 171.942 97.5222 172.011C97.5837 172.081 97.6208 172.168 97.628 172.26C97.6351 172.353 97.6119 172.445 97.5619 172.523C97.5119 172.601 97.4377 172.66 97.3508 172.692V172.692C97.2597 172.727 97.1833 172.792 97.1346 172.877C97.0859 172.961 97.0678 173.06 97.0833 173.156C97.0988 173.253 97.147 173.341 97.2198 173.406C97.2925 173.471 97.3855 173.509 97.483 173.513V173.513C97.5751 173.516 97.6638 173.549 97.7354 173.607C97.807 173.665 97.8575 173.745 97.8791 173.834C97.9007 173.924 97.8921 174.018 97.8548 174.102C97.8175 174.186 97.7535 174.256 97.6727 174.3V174.3C97.5869 174.348 97.5205 174.425 97.4847 174.516C97.4489 174.608 97.4461 174.709 97.4766 174.802C97.5071 174.896 97.5691 174.976 97.652 175.029C97.7349 175.082 97.8336 175.104 97.9313 175.093V175.093C98.024 175.079 98.1186 175.097 98.2001 175.143C98.2816 175.189 98.3452 175.261 98.3809 175.348C98.4166 175.434 98.4223 175.53 98.3971 175.62C98.3719 175.71 98.3172 175.789 98.2417 175.845V175.845C98.1655 175.906 98.1128 175.992 98.0924 176.087C98.0721 176.183 98.0852 176.283 98.1298 176.37C98.1743 176.457 98.2475 176.526 98.337 176.565C98.4264 176.604 98.5268 176.612 98.6211 176.586V176.586C98.7096 176.562 98.8034 176.568 98.8884 176.602C98.9734 176.636 99.0452 176.697 99.093 176.775C99.1408 176.853 99.162 176.944 99.1536 177.035C99.1453 177.127 99.1076 177.213 99.0464 177.281V177.281C98.978 177.352 98.937 177.445 98.9304 177.543C98.9239 177.642 98.9523 177.739 99.0107 177.819C99.069 177.898 99.1536 177.955 99.2495 177.978C99.3454 178.002 99.4465 177.991 99.535 177.947V177.947C99.6188 177.91 99.7124 177.901 99.8017 177.921C99.8911 177.942 99.9715 177.99 100.031 178.06C100.09 178.13 100.126 178.217 100.132 178.308C100.138 178.399 100.114 178.49 100.064 178.567C100.016 178.647 99.9969 178.741 100.009 178.833C100.02 178.925 100.062 179.011 100.128 179.077C100.194 179.143 100.28 179.185 100.372 179.197C100.465 179.208 100.558 179.189 100.639 179.141V179.141C100.716 179.09 100.808 179.065 100.9 179.071C100.993 179.077 101.081 179.113 101.152 179.173C101.222 179.234 101.271 179.316 101.29 179.406C101.309 179.497 101.299 179.592 101.259 179.676V179.676C101.215 179.765 101.204 179.866 101.229 179.963C101.253 180.059 101.31 180.144 101.391 180.202C101.472 180.259 101.57 180.287 101.669 180.279C101.768 180.271 101.861 180.228 101.932 180.158V180.158C102 180.096 102.087 180.057 102.179 180.049C102.271 180.04 102.364 180.062 102.442 180.111C102.521 180.16 102.582 180.233 102.615 180.319C102.648 180.405 102.653 180.5 102.627 180.589V180.589C102.6 180.683 102.606 180.783 102.644 180.873C102.683 180.963 102.752 181.037 102.84 181.081C102.927 181.125 103.027 181.138 103.123 181.116C103.219 181.094 103.303 181.04 103.363 180.962V180.962C103.419 180.887 103.498 180.832 103.588 180.807C103.678 180.782 103.774 180.787 103.861 180.823C103.947 180.859 104.02 180.922 104.066 181.004C104.112 181.085 104.13 181.18 104.116 181.272V181.272C104.104 181.37 104.127 181.468 104.18 181.551C104.233 181.634 104.313 181.696 104.406 181.726C104.5 181.757 104.601 181.754 104.693 181.718C104.785 181.683 104.861 181.616 104.909 181.531V181.531C104.955 181.451 105.025 181.389 105.109 181.352C105.194 181.316 105.287 181.308 105.377 181.329C105.466 181.351 105.546 181.4 105.604 181.471C105.663 181.541 105.697 181.629 105.702 181.72V181.72C105.704 181.819 105.739 181.914 105.804 181.989C105.868 182.064 105.957 182.113 106.055 182.129C106.152 182.145 106.252 182.126 106.337 182.075C106.422 182.024 106.486 181.946 106.519 181.852V181.852C106.551 181.765 106.61 181.691 106.688 181.641C106.766 181.591 106.858 181.568 106.951 181.575C107.043 181.582 107.13 181.619 107.2 181.681C107.269 181.742 107.317 181.825 107.335 181.915C107.351 182.013 107.402 182.102 107.478 182.166C107.553 182.23 107.649 182.265 107.749 182.265C107.848 182.265 107.944 182.23 108.02 182.166C108.096 182.102 108.146 182.013 108.162 181.915C108.181 181.825 108.228 181.742 108.297 181.681C108.367 181.619 108.454 181.582 108.547 181.575C108.639 181.568 108.731 181.591 108.809 181.641C108.887 181.691 108.947 181.765 108.979 181.852V181.852C109.011 181.946 109.075 182.024 109.16 182.075C109.245 182.126 109.345 182.145 109.442 182.129C109.54 182.113 109.629 182.064 109.693 181.989C109.758 181.914 109.794 181.819 109.795 181.72V181.72C109.8 181.629 109.834 181.541 109.893 181.471C109.952 181.4 110.031 181.351 110.121 181.329C110.21 181.308 110.304 181.316 110.388 181.352C110.472 181.389 110.542 181.451 110.588 181.531C110.636 181.616 110.713 181.683 110.804 181.718C110.896 181.754 110.997 181.757 111.091 181.726C111.184 181.696 111.264 181.634 111.317 181.551C111.37 181.468 111.393 181.37 111.381 181.272C111.367 181.18 111.385 181.085 111.431 181.004C111.478 180.922 111.55 180.859 111.636 180.823C111.723 180.787 111.819 180.782 111.909 180.807C112 180.832 112.079 180.887 112.134 180.962V180.962C112.194 181.04 112.279 181.094 112.374 181.116C112.47 181.138 112.57 181.125 112.657 181.081C112.745 181.037 112.814 180.963 112.853 180.873C112.892 180.783 112.898 180.683 112.87 180.589V180.589C112.845 180.5 112.849 180.405 112.882 180.319C112.916 180.233 112.976 180.16 113.055 180.111C113.134 180.062 113.226 180.04 113.318 180.049C113.41 180.057 113.497 180.096 113.565 180.158V180.158C113.636 180.228 113.729 180.271 113.828 180.279C113.927 180.287 114.026 180.259 114.106 180.202C114.187 180.144 114.245 180.059 114.269 179.963C114.293 179.866 114.282 179.765 114.238 179.676C114.199 179.592 114.188 179.497 114.207 179.406C114.227 179.316 114.275 179.234 114.346 179.173C114.416 179.113 114.504 179.077 114.597 179.071C114.689 179.065 114.781 179.09 114.859 179.141V179.141C114.939 179.189 115.033 179.208 115.125 179.197C115.217 179.185 115.303 179.143 115.369 179.077C115.435 179.011 115.477 178.925 115.489 178.833C115.5 178.741 115.481 178.647 115.433 178.567V178.567C115.384 178.49 115.36 178.399 115.366 178.308C115.372 178.217 115.407 178.13 115.466 178.06C115.526 177.99 115.606 177.942 115.696 177.921C115.785 177.901 115.878 177.91 115.962 177.947C116.051 177.991 116.152 178.002 116.248 177.978C116.344 177.955 116.428 177.898 116.487 177.819C116.545 177.739 116.573 177.642 116.567 177.543C116.56 177.445 116.519 177.352 116.451 177.281C116.39 177.213 116.352 177.127 116.344 177.035C116.335 176.944 116.357 176.853 116.404 176.775C116.452 176.697 116.524 176.636 116.609 176.602C116.694 176.568 116.788 176.562 116.876 176.586V176.586C116.97 176.612 117.071 176.604 117.16 176.565C117.25 176.526 117.323 176.457 117.367 176.37C117.412 176.283 117.425 176.183 117.405 176.087C117.384 175.992 117.332 175.906 117.256 175.845V175.845C117.18 175.789 117.125 175.71 117.1 175.62C117.075 175.53 117.081 175.434 117.116 175.348C117.152 175.261 117.216 175.189 117.297 175.143C117.379 175.097 117.473 175.079 117.566 175.093V175.093C117.664 175.104 117.762 175.082 117.845 175.029C117.928 174.976 117.99 174.896 118.021 174.802C118.051 174.709 118.048 174.608 118.013 174.516C117.977 174.425 117.91 174.348 117.825 174.3V174.3C117.744 174.256 117.68 174.186 117.642 174.102C117.605 174.018 117.597 173.924 117.618 173.834C117.64 173.745 117.69 173.665 117.762 173.607C117.833 173.549 117.922 173.516 118.014 173.513V173.513C118.112 173.509 118.205 173.471 118.277 173.406C118.35 173.341 118.398 173.253 118.414 173.156C118.429 173.06 118.411 172.961 118.363 172.877C118.314 172.792 118.238 172.727 118.146 172.692V172.692C118.06 172.66 117.985 172.601 117.935 172.523C117.885 172.445 117.862 172.353 117.869 172.26C117.876 172.168 117.914 172.081 117.975 172.011C118.036 171.942 118.119 171.895 118.21 171.877C118.308 171.86 118.397 171.81 118.461 171.734C118.525 171.658 118.56 171.562 118.56 171.463C118.56 171.364 118.525 171.268 118.461 171.192C118.397 171.116 118.308 171.066 118.21 171.05C118.118 171.034 118.034 170.987 117.971 170.919C117.909 170.85 117.871 170.762 117.864 170.669C117.856 170.576 117.88 170.484 117.931 170.406C117.983 170.328 118.058 170.27 118.146 170.24V170.24C118.238 170.205 118.314 170.14 118.363 170.055C118.411 169.971 118.429 169.872 118.414 169.776C118.398 169.679 118.35 169.591 118.277 169.526C118.205 169.461 118.112 169.423 118.014 169.419V169.419C117.923 169.414 117.835 169.379 117.765 169.321C117.694 169.262 117.645 169.182 117.623 169.093C117.602 169.004 117.61 168.91 117.646 168.826C117.683 168.742 117.745 168.672 117.825 168.626C117.913 168.58 117.983 168.505 118.021 168.412C118.059 168.32 118.063 168.217 118.032 168.122C118 168.027 117.936 167.947 117.851 167.895C117.766 167.843 117.665 167.823 117.566 167.839V167.839C117.473 167.853 117.379 167.835 117.297 167.789C117.216 167.743 117.152 167.671 117.116 167.584C117.081 167.498 117.075 167.402 117.1 167.312C117.125 167.221 117.18 167.142 117.256 167.087V167.087C117.332 167.026 117.384 166.94 117.405 166.844C117.425 166.749 117.412 166.649 117.367 166.562C117.323 166.475 117.25 166.406 117.16 166.367C117.071 166.328 116.97 166.32 116.876 166.346V166.346C116.788 166.37 116.694 166.364 116.609 166.33C116.524 166.296 116.452 166.235 116.404 166.157C116.357 166.079 116.335 165.987 116.344 165.896C116.352 165.805 116.39 165.719 116.451 165.651V165.651C116.515 165.579 116.553 165.486 116.558 165.39C116.563 165.293 116.535 165.197 116.478 165.118C116.42 165.04 116.338 164.983 116.244 164.958C116.151 164.933 116.051 164.94 115.962 164.979V164.979C115.878 165.016 115.785 165.025 115.696 165.005C115.606 164.985 115.526 164.936 115.466 164.866C115.407 164.796 115.372 164.709 115.366 164.618C115.36 164.527 115.384 164.436 115.433 164.359V164.359C115.481 164.279 115.5 164.185 115.489 164.093C115.477 164.001 115.435 163.915 115.369 163.849C115.303 163.783 115.217 163.741 115.125 163.73C115.033 163.718 114.939 163.737 114.859 163.785V163.785C114.782 163.835 114.691 163.858 114.599 163.852C114.508 163.847 114.421 163.811 114.351 163.752C114.281 163.692 114.233 163.612 114.212 163.523C114.192 163.434 114.201 163.34 114.238 163.256V163.256C114.277 163.167 114.284 163.068 114.259 162.974C114.234 162.881 114.177 162.799 114.099 162.741C114.02 162.684 113.924 162.656 113.827 162.661C113.73 162.666 113.638 162.704 113.565 162.768V162.768C113.497 162.829 113.411 162.867 113.32 162.875C113.229 162.884 113.137 162.862 113.059 162.815C112.981 162.767 112.92 162.695 112.886 162.61C112.852 162.525 112.846 162.432 112.87 162.343C112.9 162.249 112.896 162.146 112.858 162.055C112.82 161.963 112.751 161.888 112.663 161.842C112.574 161.797 112.473 161.784 112.376 161.806C112.279 161.829 112.194 161.885 112.134 161.964V161.964C112.079 162.04 112 162.094 111.909 162.119C111.819 162.145 111.723 162.139 111.636 162.103C111.55 162.068 111.478 162.004 111.431 161.923C111.385 161.841 111.367 161.747 111.381 161.654V161.654C111.393 161.556 111.37 161.458 111.317 161.375C111.264 161.292 111.184 161.23 111.091 161.2C110.997 161.169 110.896 161.172 110.804 161.208C110.713 161.243 110.636 161.31 110.588 161.396C110.545 161.479 110.475 161.546 110.39 161.586C110.305 161.625 110.208 161.634 110.117 161.613C110.025 161.591 109.944 161.539 109.885 161.465C109.827 161.391 109.795 161.3 109.795 161.206V161.206C109.792 161.108 109.756 161.013 109.691 160.94C109.626 160.866 109.537 160.817 109.44 160.802C109.342 160.787 109.243 160.806 109.159 160.857C109.074 160.908 109.011 160.987 108.979 161.08V161.08C108.947 161.167 108.887 161.241 108.809 161.291C108.731 161.341 108.639 161.364 108.547 161.357C108.454 161.349 108.367 161.312 108.297 161.251C108.228 161.19 108.181 161.107 108.162 161.017V161.017C108.143 160.919 108.089 160.832 108.011 160.77C107.933 160.708 107.836 160.676 107.736 160.68C107.637 160.683 107.542 160.722 107.468 160.789C107.395 160.856 107.347 160.947 107.335 161.045Z" fill="#C2B9A3"/>
<path d="M150.496 164.336C150.489 164.387 150.465 164.434 150.427 164.469C150.39 164.504 150.342 164.525 150.291 164.529C150.24 164.533 150.189 164.52 150.147 164.491C150.105 164.462 150.073 164.419 150.059 164.37V164.37C150.039 164.322 150.003 164.282 149.958 164.256C149.912 164.231 149.859 164.222 149.807 164.23C149.756 164.239 149.709 164.265 149.674 164.304C149.639 164.343 149.619 164.393 149.616 164.445V164.445C149.613 164.495 149.594 164.542 149.562 164.581C149.53 164.619 149.486 164.645 149.437 164.656C149.389 164.667 149.338 164.662 149.292 164.642C149.247 164.621 149.209 164.586 149.185 164.543V164.543C149.158 164.499 149.117 164.465 149.069 164.447C149.02 164.429 148.967 164.428 148.918 164.444C148.869 164.46 148.826 164.492 148.798 164.535C148.769 164.578 148.756 164.629 148.76 164.681C148.764 164.729 148.753 164.778 148.728 164.819C148.704 164.861 148.666 164.894 148.621 164.913C148.577 164.932 148.527 164.937 148.48 164.926C148.432 164.915 148.389 164.89 148.357 164.853V164.853C148.325 164.812 148.279 164.783 148.227 164.772C148.176 164.76 148.122 164.767 148.075 164.79C148.028 164.814 147.99 164.853 147.968 164.901C147.946 164.949 147.942 165.003 147.955 165.054C147.967 165.101 147.963 165.151 147.945 165.197C147.927 165.242 147.894 165.28 147.853 165.306C147.811 165.331 147.762 165.343 147.713 165.339C147.665 165.335 147.618 165.316 147.581 165.284C147.542 165.249 147.492 165.23 147.44 165.227C147.388 165.225 147.337 165.241 147.295 165.271C147.253 165.302 147.222 165.346 147.209 165.396C147.195 165.447 147.199 165.5 147.219 165.548V165.548C147.239 165.593 147.244 165.643 147.233 165.691C147.223 165.739 147.197 165.783 147.159 165.815C147.122 165.847 147.075 165.867 147.026 165.87C146.977 165.874 146.928 165.861 146.886 165.835V165.835C146.843 165.798 146.788 165.779 146.731 165.781C146.675 165.783 146.621 165.806 146.581 165.846C146.541 165.886 146.518 165.94 146.516 165.996C146.514 166.053 146.533 166.108 146.57 166.151C146.596 166.192 146.609 166.241 146.605 166.291C146.601 166.34 146.582 166.387 146.55 166.424C146.518 166.461 146.474 166.487 146.426 166.498C146.378 166.509 146.327 166.504 146.282 166.484V166.484C146.235 166.463 146.181 166.46 146.131 166.473C146.081 166.487 146.036 166.517 146.006 166.559C145.975 166.601 145.959 166.653 145.962 166.705C145.964 166.757 145.984 166.806 146.018 166.846V166.846C146.05 166.883 146.069 166.929 146.073 166.978C146.077 167.026 146.066 167.075 146.04 167.117C146.014 167.158 145.976 167.191 145.931 167.209C145.886 167.227 145.836 167.231 145.788 167.219C145.737 167.201 145.68 167.202 145.63 167.222C145.579 167.242 145.538 167.28 145.513 167.329C145.488 167.377 145.482 167.433 145.496 167.486C145.509 167.539 145.542 167.585 145.587 167.615V167.615C145.626 167.646 145.653 167.689 145.666 167.737C145.678 167.785 145.675 167.835 145.656 167.881C145.637 167.927 145.604 167.966 145.562 167.991C145.519 168.017 145.47 168.028 145.42 168.023V168.023C145.369 168.019 145.317 168.032 145.274 168.061C145.231 168.09 145.199 168.132 145.184 168.181C145.168 168.23 145.169 168.283 145.187 168.332C145.204 168.38 145.238 168.421 145.282 168.448V168.448C145.328 168.47 145.365 168.508 145.386 168.554C145.408 168.6 145.413 168.652 145.401 168.702C145.389 168.752 145.361 168.795 145.32 168.827C145.28 168.858 145.23 168.874 145.179 168.873V168.873C145.127 168.877 145.078 168.898 145.04 168.933C145.002 168.968 144.976 169.015 144.968 169.067C144.96 169.118 144.97 169.17 144.996 169.216C145.021 169.261 145.062 169.296 145.11 169.315V169.315C145.157 169.332 145.198 169.364 145.226 169.407C145.253 169.449 145.266 169.499 145.262 169.549C145.258 169.6 145.238 169.647 145.204 169.685C145.17 169.723 145.125 169.748 145.075 169.757V169.757C145.025 169.769 144.979 169.797 144.947 169.838C144.914 169.879 144.897 169.929 144.897 169.981C144.897 170.033 144.914 170.084 144.947 170.125C144.979 170.165 145.025 170.194 145.075 170.205V170.205C145.123 170.216 145.166 170.242 145.197 170.279C145.229 170.316 145.248 170.362 145.252 170.411C145.256 170.46 145.244 170.508 145.219 170.55C145.193 170.591 145.155 170.623 145.11 170.642V170.642C145.062 170.661 145.021 170.696 144.996 170.741C144.97 170.787 144.96 170.839 144.968 170.89C144.976 170.942 145.002 170.989 145.04 171.024C145.078 171.059 145.127 171.08 145.179 171.084V171.084C145.227 171.088 145.273 171.106 145.311 171.138C145.348 171.169 145.374 171.212 145.386 171.259C145.397 171.306 145.393 171.356 145.375 171.401C145.356 171.446 145.324 171.484 145.282 171.509C145.238 171.536 145.204 171.577 145.187 171.625C145.169 171.674 145.168 171.727 145.184 171.776C145.199 171.825 145.231 171.867 145.274 171.896C145.317 171.925 145.369 171.938 145.42 171.934V171.934C145.47 171.929 145.519 171.94 145.562 171.966C145.604 171.991 145.637 172.03 145.656 172.076C145.675 172.122 145.678 172.172 145.666 172.22C145.653 172.268 145.626 172.311 145.587 172.342V172.342C145.542 172.372 145.509 172.418 145.496 172.471C145.482 172.524 145.488 172.58 145.513 172.628C145.538 172.677 145.579 172.715 145.63 172.735C145.68 172.755 145.737 172.756 145.788 172.738V172.738C145.836 172.726 145.886 172.73 145.931 172.748C145.976 172.766 146.014 172.799 146.04 172.84C146.066 172.882 146.077 172.931 146.073 172.979C146.069 173.028 146.05 173.074 146.018 173.111V173.111C145.984 173.151 145.964 173.2 145.962 173.252C145.959 173.304 145.975 173.356 146.006 173.398C146.036 173.44 146.081 173.47 146.131 173.484C146.181 173.497 146.235 173.494 146.282 173.473V173.473C146.328 173.451 146.38 173.445 146.43 173.456C146.479 173.467 146.524 173.493 146.557 173.532C146.589 173.571 146.608 173.619 146.611 173.67C146.613 173.72 146.599 173.77 146.57 173.812V173.812C146.543 173.856 146.531 173.908 146.538 173.959C146.544 174.01 146.567 174.058 146.603 174.094C146.64 174.131 146.688 174.154 146.739 174.16C146.79 174.166 146.842 174.155 146.886 174.128V174.128C146.926 174.098 146.976 174.082 147.027 174.084C147.077 174.085 147.126 174.104 147.164 174.137C147.203 174.169 147.229 174.214 147.239 174.263C147.249 174.313 147.242 174.364 147.219 174.409V174.409C147.199 174.457 147.195 174.51 147.209 174.561C147.222 174.611 147.253 174.655 147.295 174.686C147.337 174.716 147.388 174.732 147.44 174.73C147.492 174.727 147.542 174.708 147.581 174.673C147.618 174.641 147.665 174.622 147.713 174.618C147.762 174.614 147.811 174.626 147.853 174.651C147.894 174.677 147.927 174.715 147.945 174.76C147.963 174.806 147.967 174.856 147.955 174.903V174.903C147.942 174.954 147.946 175.008 147.968 175.056C147.99 175.104 148.028 175.143 148.075 175.167C148.122 175.19 148.176 175.197 148.227 175.185C148.279 175.174 148.325 175.145 148.357 175.104V175.104C148.389 175.067 148.432 175.042 148.48 175.031C148.527 175.02 148.577 175.025 148.621 175.044C148.666 175.063 148.704 175.096 148.728 175.138C148.753 175.179 148.764 175.228 148.76 175.276V175.276C148.756 175.328 148.769 175.379 148.798 175.422C148.826 175.465 148.869 175.497 148.918 175.513C148.967 175.529 149.02 175.528 149.069 175.51C149.117 175.492 149.158 175.458 149.185 175.414V175.414C149.209 175.37 149.247 175.335 149.294 175.315C149.34 175.295 149.391 175.29 149.44 175.302C149.489 175.314 149.533 175.341 149.564 175.38C149.596 175.419 149.614 175.467 149.616 175.518V175.518C149.62 175.569 149.641 175.618 149.676 175.656C149.712 175.695 149.759 175.72 149.81 175.728C149.861 175.736 149.914 175.726 149.959 175.7C150.004 175.675 150.039 175.635 150.059 175.587V175.587C150.073 175.538 150.105 175.495 150.147 175.466C150.189 175.437 150.24 175.424 150.291 175.428C150.342 175.432 150.39 175.453 150.427 175.488C150.465 175.523 150.489 175.57 150.496 175.621V175.621C150.507 175.672 150.536 175.717 150.576 175.75C150.617 175.782 150.668 175.8 150.72 175.8C150.772 175.8 150.822 175.782 150.863 175.75C150.904 175.717 150.932 175.672 150.944 175.621V175.621C150.951 175.57 150.975 175.523 151.012 175.488C151.049 175.453 151.097 175.432 151.148 175.428C151.199 175.424 151.25 175.437 151.293 175.466C151.335 175.495 151.366 175.538 151.381 175.587V175.587C151.4 175.635 151.435 175.675 151.48 175.7C151.526 175.726 151.578 175.736 151.629 175.728C151.681 175.72 151.728 175.695 151.763 175.656C151.798 175.618 151.819 175.569 151.823 175.518V175.518C151.822 175.467 151.839 175.417 151.87 175.376C151.901 175.336 151.945 175.307 151.994 175.295C152.044 175.283 152.096 175.288 152.142 175.31C152.189 175.332 152.226 175.368 152.249 175.414V175.414C152.276 175.458 152.317 175.492 152.365 175.51C152.413 175.528 152.467 175.529 152.516 175.513C152.565 175.497 152.607 175.465 152.636 175.422C152.665 175.379 152.678 175.328 152.674 175.276V175.276C152.668 175.227 152.678 175.176 152.703 175.133C152.728 175.089 152.766 175.055 152.812 175.035C152.859 175.016 152.91 175.012 152.959 175.024C153.008 175.037 153.051 175.065 153.082 175.104V175.104C153.113 175.149 153.159 175.182 153.212 175.195C153.264 175.209 153.32 175.203 153.369 175.178C153.418 175.153 153.455 175.112 153.476 175.061C153.496 175.011 153.497 174.954 153.479 174.903C153.465 174.855 153.467 174.803 153.486 174.756C153.504 174.709 153.537 174.67 153.581 174.644C153.624 174.617 153.674 174.606 153.724 174.612C153.774 174.617 153.821 174.639 153.858 174.673C153.897 174.708 153.947 174.727 153.999 174.73C154.051 174.732 154.102 174.716 154.145 174.686C154.187 174.655 154.217 174.611 154.231 174.561C154.245 174.51 154.241 174.457 154.22 174.409V174.409C154.197 174.364 154.19 174.313 154.2 174.263C154.21 174.214 154.237 174.169 154.275 174.137C154.314 174.104 154.362 174.085 154.413 174.084C154.463 174.082 154.513 174.098 154.554 174.128V174.128C154.598 174.155 154.649 174.166 154.701 174.16C154.752 174.154 154.8 174.131 154.836 174.094C154.873 174.058 154.896 174.01 154.902 173.959C154.908 173.908 154.897 173.856 154.87 173.812V173.812C154.841 173.77 154.826 173.72 154.829 173.67C154.831 173.619 154.85 173.571 154.883 173.532C154.916 173.493 154.96 173.467 155.01 173.456C155.059 173.445 155.111 173.451 155.157 173.473C155.204 173.488 155.255 173.487 155.302 173.469C155.348 173.452 155.388 173.42 155.414 173.378C155.44 173.336 155.452 173.286 155.447 173.237C155.442 173.188 155.421 173.142 155.387 173.106V173.106C155.355 173.069 155.335 173.022 155.331 172.974C155.327 172.925 155.339 172.876 155.365 172.835C155.39 172.793 155.429 172.761 155.474 172.742C155.519 172.724 155.569 172.72 155.617 172.732V172.732C155.667 172.745 155.72 172.74 155.767 172.719C155.814 172.698 155.853 172.662 155.877 172.616C155.901 172.57 155.909 172.517 155.899 172.467C155.889 172.416 155.863 172.37 155.824 172.336V172.336C155.785 172.305 155.758 172.262 155.745 172.214C155.733 172.166 155.736 172.116 155.755 172.07C155.774 172.024 155.807 171.986 155.849 171.96C155.892 171.934 155.941 171.923 155.99 171.928V171.928C156.042 171.932 156.093 171.919 156.136 171.89C156.179 171.861 156.211 171.819 156.227 171.77C156.243 171.721 156.242 171.668 156.224 171.62C156.206 171.571 156.172 171.53 156.128 171.503V171.503C156.087 171.478 156.055 171.44 156.036 171.395C156.017 171.35 156.014 171.3 156.025 171.253C156.037 171.206 156.063 171.163 156.1 171.132C156.137 171.101 156.183 171.082 156.232 171.078V171.078C156.284 171.074 156.333 171.053 156.371 171.018C156.409 170.983 156.434 170.936 156.442 170.885C156.45 170.833 156.441 170.781 156.415 170.736C156.389 170.691 156.349 170.655 156.301 170.636V170.636C156.256 170.618 156.217 170.585 156.192 170.544C156.166 170.502 156.155 170.454 156.158 170.405C156.162 170.357 156.181 170.311 156.213 170.274C156.245 170.237 156.288 170.211 156.335 170.2V170.2C156.386 170.188 156.431 170.16 156.464 170.119C156.496 170.078 156.514 170.028 156.514 169.976C156.514 169.924 156.496 169.873 156.464 169.832C156.431 169.792 156.386 169.763 156.335 169.752V169.752C156.286 169.742 156.24 169.717 156.207 169.679C156.173 169.642 156.153 169.594 156.149 169.544C156.145 169.493 156.157 169.443 156.185 169.401C156.213 169.358 156.253 169.326 156.301 169.309V169.309C156.349 169.29 156.389 169.255 156.415 169.21C156.441 169.165 156.45 169.112 156.442 169.061C156.434 169.01 156.409 168.963 156.371 168.927C156.333 168.892 156.284 168.871 156.232 168.867V168.867C156.181 168.868 156.131 168.852 156.091 168.821C156.05 168.79 156.021 168.746 156.009 168.696C155.997 168.647 156.003 168.594 156.024 168.548C156.046 168.502 156.083 168.465 156.128 168.442V168.442C156.172 168.415 156.206 168.374 156.224 168.326C156.242 168.278 156.243 168.224 156.227 168.175C156.211 168.126 156.179 168.084 156.136 168.055C156.093 168.027 156.042 168.013 155.99 168.017V168.017C155.941 168.022 155.892 168.011 155.849 167.985C155.807 167.96 155.774 167.921 155.755 167.876C155.736 167.83 155.733 167.779 155.745 167.731C155.758 167.683 155.785 167.64 155.824 167.609V167.609C155.863 167.576 155.889 167.53 155.899 167.479C155.909 167.428 155.901 167.376 155.877 167.33C155.853 167.284 155.814 167.247 155.767 167.226C155.72 167.205 155.667 167.201 155.617 167.213C155.569 167.225 155.519 167.222 155.474 167.203C155.429 167.185 155.39 167.153 155.365 167.111C155.339 167.069 155.327 167.021 155.331 166.972C155.335 166.923 155.355 166.877 155.387 166.84V166.84C155.427 166.803 155.453 166.753 155.458 166.698C155.464 166.644 155.45 166.589 155.418 166.545C155.386 166.5 155.339 166.469 155.286 166.457C155.232 166.444 155.176 166.452 155.128 166.478V166.478C155.083 166.498 155.033 166.503 154.985 166.492C154.936 166.482 154.893 166.456 154.861 166.418C154.829 166.381 154.809 166.334 154.806 166.285C154.802 166.236 154.814 166.187 154.841 166.145V166.145C154.868 166.101 154.879 166.049 154.873 165.998C154.867 165.947 154.844 165.899 154.807 165.863C154.771 165.826 154.723 165.803 154.672 165.797C154.621 165.791 154.569 165.802 154.525 165.829V165.829C154.483 165.856 154.434 165.868 154.385 165.864C154.336 165.861 154.289 165.841 154.251 165.809C154.214 165.777 154.188 165.734 154.177 165.686C154.166 165.637 154.171 165.587 154.191 165.542V165.542C154.212 165.494 154.216 165.441 154.202 165.391C154.188 165.34 154.158 165.296 154.116 165.266C154.074 165.235 154.022 165.219 153.97 165.222C153.918 165.224 153.869 165.244 153.829 165.278V165.278C153.793 165.313 153.746 165.334 153.696 165.34C153.645 165.345 153.595 165.334 153.552 165.308C153.509 165.282 153.475 165.242 153.457 165.195C153.439 165.148 153.436 165.097 153.45 165.048V165.048C153.468 164.997 153.467 164.941 153.447 164.89C153.427 164.839 153.389 164.798 153.34 164.773C153.292 164.749 153.236 164.742 153.183 164.756C153.13 164.77 153.084 164.802 153.053 164.847V164.847C153.022 164.886 152.979 164.914 152.93 164.927C152.881 164.939 152.83 164.935 152.784 164.916C152.737 164.896 152.699 164.862 152.674 164.819C152.649 164.775 152.639 164.725 152.645 164.675V164.675C152.649 164.623 152.636 164.572 152.607 164.529C152.578 164.486 152.536 164.454 152.487 164.438C152.438 164.422 152.385 164.424 152.336 164.441C152.288 164.459 152.247 164.493 152.22 164.537V164.537C152.198 164.582 152.161 164.619 152.115 164.64C152.069 164.662 152.018 164.668 151.969 164.656C151.919 164.645 151.875 164.618 151.844 164.578C151.812 164.539 151.795 164.49 151.795 164.439V164.439C151.792 164.387 151.771 164.337 151.737 164.298C151.702 164.259 151.655 164.233 151.603 164.225C151.552 164.216 151.499 164.225 151.453 164.251C151.407 164.276 151.372 164.316 151.352 164.365V164.365C151.337 164.414 151.306 164.456 151.264 164.485C151.222 164.514 151.171 164.528 151.12 164.524C151.069 164.52 151.02 164.498 150.983 164.463C150.946 164.428 150.922 164.381 150.915 164.33V164.33C150.896 164.29 150.867 164.256 150.829 164.233C150.791 164.209 150.748 164.197 150.703 164.197C150.659 164.198 150.616 164.211 150.579 164.236C150.542 164.261 150.513 164.295 150.496 164.336V164.336Z" fill="#C2B9A3"/>
<path d="M107.749 175.012C105.803 175.012 104.226 173.436 104.226 171.492C104.226 169.547 105.803 167.971 107.749 167.971C109.695 167.971 111.272 169.547 111.272 171.492C111.272 173.436 109.695 175.012 107.749 175.012Z" fill="#8C321A"/>
<path d="M108.646 170.2L95.2128 153.493C95.1172 153.376 94.9789 153.301 94.8282 153.285C94.6775 153.269 94.5265 153.313 94.4081 153.407C94.2897 153.502 94.2136 153.64 94.1963 153.79C94.1791 153.941 94.2222 154.092 94.3162 154.211L107.749 170.917C107.795 170.979 107.853 171.031 107.92 171.069C107.986 171.108 108.06 171.133 108.136 171.142C108.213 171.152 108.29 171.146 108.365 171.125C108.439 171.104 108.508 171.069 108.568 171.021C108.628 170.973 108.678 170.913 108.714 170.845C108.751 170.778 108.773 170.703 108.781 170.627C108.788 170.55 108.78 170.473 108.756 170.399C108.733 170.326 108.696 170.258 108.646 170.2Z" fill="#CBDFFF"/>
<path d="M103.131 155.232L88.451 156.552C88.07 156.587 87.7334 156.306 87.6992 155.925L87.3189 151.704C87.2847 151.324 87.5657 150.987 87.9466 150.953L102.627 149.633C103.007 149.599 103.344 149.879 103.378 150.26L103.759 154.481C103.793 154.862 103.512 155.198 103.131 155.232Z" fill="#FFB700"/>
<path d="M44.057 125.054C44.4805 125.056 44.8897 124.901 45.2068 124.621C45.5239 124.341 45.7266 123.953 45.7763 123.533C45.826 123.113 45.7193 122.689 45.4764 122.343C45.2335 121.996 44.8715 121.751 44.4594 121.654L34.6823 119.294C34.661 119.28 34.6442 119.26 34.634 119.236C34.6238 119.213 34.6206 119.187 34.6248 119.162L35.8721 111.696C35.8764 111.663 35.8932 111.634 35.919 111.613C35.9447 111.593 35.9774 111.583 36.0101 111.587L51.0924 113.039C51.3188 113.061 51.5474 113.038 51.7649 112.972C51.9825 112.906 52.1849 112.797 52.3605 112.653C52.5361 112.508 52.6815 112.33 52.7884 112.13C52.8953 111.929 52.9615 111.709 52.9834 111.483C53.0053 111.257 52.9824 111.029 52.916 110.811C52.8495 110.594 52.7409 110.392 52.5962 110.216C52.4516 110.041 52.2738 109.895 52.073 109.789C51.8721 109.682 51.6522 109.616 51.4258 109.594L36.3434 108.141C35.4421 108.057 34.5423 108.316 33.824 108.867C33.1057 109.417 32.6219 110.218 32.4694 111.11L31.2221 118.576C31.079 119.415 31.2423 120.278 31.6821 121.007C32.122 121.737 32.8093 122.284 33.619 122.55L33.7569 122.59L43.6777 124.985C43.8015 125.021 43.9286 125.044 44.057 125.054V125.054Z" fill="#FFB700"/>
<path d="M151.622 203.601C160.849 203.601 169.711 199.997 176.317 193.56C182.922 187.122 186.748 178.36 186.977 169.143C186.977 169.43 186.977 169.717 186.977 170.004C186.977 179.379 183.25 188.37 176.615 194.999C169.98 201.628 160.982 205.352 151.599 205.352C142.216 205.352 133.218 201.628 126.583 194.999C119.949 188.37 116.221 179.379 116.221 170.004C116.221 169.711 116.221 169.43 116.221 169.143C116.451 178.368 120.283 187.137 126.898 193.576C133.513 200.015 142.387 203.613 151.622 203.601V203.601Z" fill="#DBD3B1"/>
<path d="M44.0572 203.601C53.2846 203.601 62.1465 199.997 68.7518 193.56C75.3571 187.122 79.1827 178.36 79.4121 169.143C79.4121 169.43 79.4121 169.717 79.4121 170.004C79.4121 179.379 75.6848 188.37 69.0502 194.999C62.4155 201.628 53.417 205.352 44.0342 205.352C34.6514 205.352 25.6529 201.628 19.0182 194.999C12.3836 188.37 8.65628 179.379 8.65628 170.004C8.65628 169.711 8.65628 169.43 8.65628 169.143C8.88592 178.368 12.7179 187.137 19.3331 193.576C25.9483 200.015 34.8219 203.613 44.0572 203.601V203.601Z" fill="#DBD3B1"/>
<path d="M79.0672 152.161C79.596 150.599 81.1307 148.56 82.125 147.922C82.3369 147.787 82.5556 147.662 82.7803 147.549C84.0408 148.384 84.9747 149.627 85.4243 151.07L102.064 149.071C102.064 149.531 102.099 149.99 102.064 150.455L79.8431 153.16C79.7177 153.171 79.5915 153.15 79.4761 153.1C79.3607 153.05 79.2597 152.971 79.1825 152.872C79.1053 152.772 79.0543 152.655 79.0342 152.531C79.014 152.407 79.0254 152.28 79.0672 152.161V152.161Z" fill="#EEE5C2"/>
<path d="M95.5175 144.391C93.8736 144.391 92.0688 143.627 90.7525 142.943C90.787 142.892 90.8215 142.851 90.8502 142.8C91.0962 142.396 91.2335 141.936 91.2486 141.464C91.2637 140.992 91.1561 140.524 90.9364 140.106L96.006 137.97C96.325 138.829 96.8594 139.592 97.5579 140.187C97.8153 140.363 98.0908 140.511 98.3799 140.629C98.15 142.145 97.4832 144.391 95.5175 144.391Z" fill="#ECC19C"/>
<path d="M82.7802 147.549C83.8838 146.975 85.0794 146.63 86.2289 146.148C87.1429 145.768 88.017 145.299 88.8385 144.747C89.594 144.285 90.241 143.666 90.7352 142.932C92.04 143.615 93.8563 144.379 95.5002 144.379C97.466 144.379 98.1327 142.145 98.3741 140.617C98.7801 140.776 99.1659 140.983 99.5237 141.232C100.096 141.746 100.522 142.402 100.759 143.133C101.515 145.027 101.952 147.034 102.053 149.071L85.4128 151.07C84.9661 149.629 84.0365 148.386 82.7802 147.549V147.549Z" fill="#632313"/>
<path d="M72.4113 100.589C74.9001 97.4358 114.112 83.6238 114.112 83.6238L116.244 70.949L136.856 74.1594C136.856 74.1594 137.195 84.9735 137.638 88.6203C138.08 92.2671 138.856 101.33 131.114 103.983C123.372 106.636 86.0279 105.206 85.2519 106.854C85.2519 106.854 87.3269 109.025 88.9823 116.617C90.2065 122.188 97.9086 138.648 97.9086 138.648L89.7869 141.864C89.7869 141.864 69.9224 103.736 72.4113 100.589Z" fill="#C64625"/>
<path d="M115.692 67.2793C116.049 66.0216 116.738 47.3568 117.721 43.8536C118.704 40.3504 120.532 38.7997 120.532 38.7997C120.532 38.7997 119.831 38.0991 120.532 37.8177C121.797 37.2434 128.401 33.3267 128.401 33.3267L139.896 57.2003C139.896 57.2003 139.057 63.0754 139.04 65.5966C139.023 68.1178 141.443 78.2312 141.581 78.0819C136.81 78.0819 130.769 80.6088 126.418 81.028C122.067 81.4473 115.031 78.1048 115.123 77.5363C115.215 76.9677 115.336 68.5427 115.692 67.2793Z" fill="#A8F0D5"/>
<path d="M138.235 53.7315L139.908 57.1773C139.908 57.1773 139.069 63.0524 139.051 65.5736C139.051 66.8772 139.678 70.168 140.316 73.0395C136.384 70.8037 132.991 67.7343 130.374 64.0473C127.758 60.3603 125.981 56.1452 125.17 51.6985L138.235 53.7315Z" fill="#7BC7AB"/>
<path d="M127.136 28.1695C128.251 27.4286 136.166 28.8242 137.189 29.9383C138.212 31.0525 137.189 33.8435 137.189 33.8435L126.205 37.3468C126.205 37.3468 126.016 28.9161 127.136 28.1695Z" fill="#00C6CC"/>
<path d="M128.177 33.0682C127.764 32.5709 127.472 31.9851 127.324 31.3565C127.175 30.7279 127.174 30.0735 127.32 29.4444C127.325 29.4259 127.334 29.4086 127.345 29.3934C127.357 29.3782 127.371 29.3654 127.388 29.3558C127.405 29.3462 127.423 29.34 127.442 29.3374C127.461 29.3349 127.48 29.3361 127.499 29.341C127.517 29.3459 127.534 29.3544 127.55 29.366C127.565 29.3776 127.578 29.3921 127.587 29.4086C127.597 29.4251 127.603 29.4434 127.606 29.4623C127.608 29.4813 127.607 29.5005 127.602 29.519C127.464 30.0995 127.463 30.704 127.598 31.285C127.734 31.866 128.003 32.4077 128.384 32.8672C128.499 33.0108 128.297 33.2118 128.177 33.0682Z" fill="#105B5B"/>
<path d="M131.786 31.2534C128.337 31.4487 127.228 32.3676 126.038 38.2254C124.849 44.0833 121.015 54.4092 131.068 60.6231C141.121 66.8371 154.99 60.9964 163.83 65.5506C172.671 70.1048 174.814 76.9907 174.814 76.9907C174.814 76.9907 174.24 64.6432 164.02 57.1946C157.909 52.7371 151.466 48.7532 144.748 45.2778C144.748 45.2778 147.449 41.5564 147.075 39.8852C146.702 38.2139 142.425 36.4394 141.213 35.4171C140 34.3949 136.724 30.9605 131.786 31.2534Z" fill="#00888C"/>
<g style="mix-blend-mode:multiply" opacity="0.4">
<path d="M139.655 47.7818L144.064 44.9964L150.599 47.0811L155.197 54.0244C155.197 54.0244 147.311 57.1831 139.678 53.7086C132.045 50.234 130.625 41.1544 130.625 41.1544C133.011 44.1069 136.122 46.3905 139.655 47.7818V47.7818Z" fill="#00888C"/>
</g>
<path d="M139.62 47.9081C136.051 46.5164 132.907 44.2182 130.499 41.2405C130.384 41.0969 130.585 40.8959 130.706 41.0395C132.55 43.3181 134.833 45.2045 137.419 46.5872C138.164 46.9805 138.932 47.3295 139.718 47.6325C139.885 47.7014 139.816 47.9771 139.643 47.9081H139.62Z" fill="#105B5B"/>
<path d="M132.574 43.5434C131.524 43.4923 130.535 43.0326 129.82 42.2628C129.7 42.1249 129.901 41.9239 130.027 42.0618C130.685 42.7768 131.597 43.2057 132.568 43.2563C132.752 43.2563 132.758 43.5492 132.568 43.5434H132.574Z" fill="#105B5B"/>
<path d="M149.8 42.0733C148.748 40.3963 147.967 38.1508 145.07 37.8464C143.801 37.7092 142.517 37.8634 141.317 38.2973C140.116 38.7313 139.031 39.4335 138.144 40.3504C137.319 41.1016 136.825 42.1483 136.77 43.262C136.715 44.3756 137.104 45.4658 137.85 46.2944C139.368 48.0919 142.449 50.3145 145.512 49.5966C148.576 48.8787 151.559 44.8816 149.8 42.0733Z" fill="#00C6CC"/>
<path d="M147.053 39.8679C148.455 40.1838 152.358 42.9692 153.375 43.5607C154.393 44.1522 155.203 42.1766 156.192 41.9239C157.18 41.6712 158.669 41.4358 159.313 40.5399C159.957 39.644 160.75 37.5592 161.434 37.5995C162.118 37.6397 162.825 38.6676 162.75 39.6152C162.675 40.5628 159.52 43.6353 160.451 44.8816C161.382 46.1278 164.118 46.7825 164.44 46.3862C164.554 46.2727 164.635 46.1306 164.674 45.9749C164.713 45.8192 164.71 45.6557 164.664 45.5018C164.595 45.3525 163.175 45.4616 162.48 44.4164C161.784 43.3712 162.233 42.7567 162.899 42.659C163.566 42.5614 164.687 42.9634 165.434 43.107C166.181 43.2506 167.159 45.1974 167.256 45.7488C167.354 46.3001 165.791 48.1379 166.038 48.5686C166.485 48.9578 166.835 49.4453 167.061 49.9928C167.125 50.4036 167.082 50.824 166.936 51.2133C166.79 51.6026 166.546 51.9478 166.227 52.2154C166.073 52.239 165.926 52.2965 165.797 52.384C165.668 52.4714 165.559 52.5864 165.48 52.7208C165.319 53.0309 165.877 53.5937 165.595 54.2369C165.314 54.8801 164.664 55.1845 164.198 55.5176C163.682 55.7597 163.132 55.9205 162.566 55.9943C162.261 56.1034 162.451 57.0682 161.865 57.5793C161.599 57.8583 161.271 58.0711 160.907 58.2008C160.544 58.3304 160.156 58.3733 159.773 58.3259C158.956 58.1709 157.474 56.6547 157.111 56.5456C156.749 56.4365 152.548 54.3862 151.668 52.9792C150.789 51.5722 151.093 50.6246 150.45 49.9469C149.806 49.2692 144.029 48.5514 142.644 47.4774C138.402 45.2664 142.546 38.5815 147.053 39.8679Z" fill="#ECC19C"/>
<path d="M166.038 48.5744C165.592 48.131 165.063 47.78 164.481 47.5415C163.899 47.303 163.275 47.1817 162.646 47.1845L160.801 47.0295C160.486 46.9851 160.165 47.0066 159.859 47.0927C159.557 47.2274 159.3 47.4444 159.117 47.7186C158.911 47.9904 158.794 48.3196 158.784 48.6605C158.774 48.8394 158.806 49.0181 158.876 49.1831C158.954 49.3556 159.077 49.5042 159.232 49.6138C159.757 49.9675 160.341 50.2243 160.957 50.3719L161.411 50.481L161.646 50.527H161.778H161.819C162.066 50.6418 162.342 50.8141 162.606 50.9577C163.141 51.2912 163.744 51.4993 164.371 51.5664V51.5205C163.796 51.3317 163.257 51.0462 162.779 50.6763C162.52 50.504 162.29 50.3317 161.997 50.1594L161.934 50.125H161.824H161.727L161.508 50.0733L161.077 49.9527C160.509 49.8062 159.962 49.5861 159.451 49.298C159.348 49.2386 159.264 49.1509 159.209 49.0453C159.153 48.9287 159.121 48.8015 159.117 48.672C159.109 48.395 159.177 48.121 159.313 47.8794C159.44 47.6229 159.64 47.4092 159.887 47.2649C160.169 47.1729 160.467 47.1416 160.761 47.1731C161.368 47.2526 161.971 47.3657 162.566 47.5119C163.175 47.644 163.761 47.7014 164.33 47.8852C164.906 48.0631 165.458 48.3099 165.974 48.6203L166.038 48.5744Z" fill="#CC966A"/>
<path d="M164.773 52.6231C164.271 52.2822 163.74 51.9844 163.187 51.733C162.638 51.4706 162.059 51.2777 161.463 51.1587C160.888 51.0438 160.313 50.8887 159.738 50.7394C159.438 50.6486 159.126 50.6041 158.813 50.6073C158.482 50.6347 158.168 50.7653 157.916 50.9806C157.779 51.0929 157.666 51.2317 157.584 51.3886C157.502 51.5455 157.453 51.7173 157.439 51.8938C157.425 52.2517 157.532 52.6039 157.744 52.8931C158.144 53.3988 158.653 53.8089 159.232 54.0934C159.807 54.3805 160.382 54.5872 160.911 54.8112C161.44 55.0352 162.06 55.2247 162.635 55.3855V55.3338C161.635 54.6504 160.531 54.1048 159.514 53.542C159.01 53.2953 158.553 52.963 158.163 52.56C157.99 52.3767 157.89 52.1362 157.883 51.8842C157.875 51.6322 157.961 51.3863 158.123 51.1931C158.299 50.9816 158.543 50.8375 158.813 50.7854C159.104 50.7664 159.395 50.8074 159.669 50.906C160.244 51.0898 160.756 51.3999 161.342 51.6066C162.491 51.9397 163.578 52.3877 164.791 52.6921L164.773 52.6231Z" fill="#CC966A"/>
<path d="M161.083 56.5686C161.165 56.3888 161.197 56.1905 161.175 55.9943C161.162 55.7923 161.103 55.5959 161.003 55.42C160.903 55.2411 160.764 55.0877 160.595 54.972C160.424 54.8548 160.226 54.7835 160.02 54.7653L160.152 54.8686C160.098 54.7916 160.025 54.7302 159.939 54.6906C159.876 54.6504 159.813 54.6217 159.75 54.5872L159.376 54.4264L158.64 54.1048C158.393 53.9871 158.138 53.8873 157.876 53.8062C157.587 53.7371 157.286 53.7371 156.997 53.8062C156.675 53.8729 156.386 54.0495 156.18 54.3058C156.069 54.4402 155.992 54.6 155.956 54.771C155.916 54.9495 155.932 55.1361 156.002 55.3051C156.241 55.811 156.605 56.2478 157.06 56.5743L157.106 56.5398C156.881 56.0888 156.689 55.6224 156.531 55.1443C156.456 54.8399 156.761 54.4839 157.152 54.3403C157.62 54.2247 158.109 54.2247 158.577 54.3403C158.83 54.3971 159.071 54.4962 159.29 54.6332C159.398 54.7001 159.498 54.7791 159.589 54.8686C159.635 54.9083 159.678 54.9526 159.715 55.0007C159.75 55.0352 159.801 55.1098 159.778 55.0926L159.916 55.2017C160.197 55.32 160.444 55.5056 160.635 55.742C160.827 55.9784 160.957 56.2584 161.014 56.5571L161.083 56.5686Z" fill="#CC966A"/>
<path d="M159.594 48.0173C159.796 47.0754 161.031 47.3683 161.215 47.443C161.052 47.6324 160.942 47.8626 160.899 48.1092C160.851 48.3924 160.867 48.6827 160.945 48.9591C160.948 48.9685 160.948 48.9785 160.945 48.9878V49.0395C160.945 49.0395 159.376 49.0568 159.594 48.0173Z" fill="#FFD1A9"/>
<path d="M160.899 48.0862C160.942 47.8396 161.052 47.6094 161.215 47.42V47.42L160.934 48.9591C160.937 48.9498 160.937 48.9397 160.934 48.9304C160.86 48.655 160.848 48.3667 160.899 48.0862V48.0862Z" fill="#FFE2C9"/>
<path d="M158.261 51.354C158.778 50.5442 159.836 51.2506 159.985 51.354C159.767 51.4768 159.584 51.655 159.457 51.8708C159.312 52.118 159.225 52.395 159.204 52.6806C159.204 52.6806 159.204 52.6806 159.204 52.7093V52.7553C159.204 52.7553 157.686 52.2097 158.261 51.354Z" fill="#FFD1A9"/>
<path d="M159.445 51.8593C159.573 51.6436 159.755 51.4653 159.974 51.3425V51.3425L159.169 52.6806C159.169 52.6806 159.169 52.6806 159.169 52.6519C159.2 52.3703 159.294 52.0994 159.445 51.8593V51.8593Z" fill="#FFE2C9"/>
<path d="M162.629 43.1759C162.755 42.6705 164.089 42.8658 164.307 42.906C164.254 42.9552 164.216 43.0187 164.197 43.0889C164.179 43.1592 164.181 43.2332 164.204 43.3022C164.311 43.5809 164.483 43.8307 164.704 44.0316L164.744 44.066V44.1177C164.744 44.1177 162.439 43.9742 162.629 43.1759Z" fill="#FFD1A9"/>
<path d="M164.204 43.3137C164.181 43.2447 164.179 43.1707 164.197 43.1005C164.216 43.0302 164.254 42.9667 164.307 42.9175H164.342L164.744 44.0661L164.704 44.0316C164.484 43.834 164.313 43.5883 164.204 43.3137Z" fill="#FFE2C9"/>
<path d="M156.939 54.6389C157.474 54.0646 158.341 55.0754 158.474 55.2132C158.273 55.2466 158.089 55.3456 157.951 55.4946C157.798 55.6803 157.695 55.9016 157.652 56.1379V56.1666C157.652 56.1666 156.364 55.2305 156.939 54.6389Z" fill="#FFD1A9"/>
<path d="M157.951 55.5061C158.089 55.3571 158.273 55.2581 158.474 55.2247V55.2247L157.634 56.1551V56.1264C157.687 55.8966 157.795 55.6834 157.951 55.5061V55.5061Z" fill="#FFE2C9"/>
<path d="M135.131 61.5363C142.029 62.2427 167.589 57.6425 173.107 69.5765C174.013 71.975 174.58 74.4877 174.792 77.0424C174.792 77.0424 172.653 70.1508 163.807 65.6023C154.961 61.0539 141.098 66.906 131.045 60.6748C127.596 58.5327 125.768 55.9024 124.923 53.14C126.286 55.5808 129.832 60.9964 135.131 61.5363Z" fill="#00C6CC"/>
<path d="M129.763 10.5384C129.941 9.75348 129.862 8.93234 129.539 8.19526C129.397 7.89891 129.179 7.64607 128.906 7.4632C128.633 7.28033 128.315 7.17415 127.987 7.15578C127.912 7.16236 127.837 7.13977 127.778 7.09271C127.72 7.04565 127.681 6.97774 127.671 6.90308C127.663 6.82774 127.685 6.75227 127.732 6.6931C127.78 6.63394 127.849 6.59588 127.924 6.58722C128.346 6.59117 128.759 6.70771 129.121 6.9248C129.483 7.14189 129.78 7.45162 129.982 7.82196C130.421 8.68917 130.545 9.68187 130.332 10.6303C130.326 10.668 130.313 10.7042 130.293 10.7367C130.273 10.7692 130.247 10.7975 130.216 10.8199C130.185 10.8423 130.15 10.8584 130.112 10.8672C130.075 10.8761 130.037 10.8775 129.999 10.8715C129.961 10.8655 129.925 10.8521 129.892 10.8321C129.86 10.812 129.832 10.7858 129.809 10.7549C129.787 10.724 129.771 10.6889 129.762 10.6518C129.753 10.6146 129.751 10.5761 129.758 10.5384H129.763Z" fill="#591C10"/>
<path d="M127.28 10.5786C126.98 11.7747 126.439 12.8967 125.688 13.8751C125.458 14.168 125.021 13.7947 125.245 13.5018C125.94 12.6064 126.439 11.5754 126.711 10.4752C126.803 10.1192 127.372 10.2168 127.286 10.5786H127.28Z" fill="#591C10"/>
<path d="M136.637 21.8981C136.758 21.6224 136.471 21.3812 136.235 21.3238C135.916 21.2417 135.578 21.287 135.292 21.4501C134.685 21.8403 134.242 22.4387 134.045 23.1328C134.024 23.2055 133.976 23.2675 133.911 23.3068C133.846 23.3461 133.769 23.3599 133.694 23.3453C133.621 23.325 133.558 23.2775 133.519 23.2123C133.479 23.1472 133.466 23.0695 133.482 22.995C133.832 22.0819 134.344 21.1515 135.327 20.8127C135.549 20.729 135.787 20.6938 136.024 20.7097C136.261 20.7256 136.491 20.792 136.701 20.9045C136.92 21.0223 137.087 21.218 137.169 21.453C137.251 21.6881 137.242 21.9453 137.143 22.1737C136.988 22.5126 136.482 22.2369 136.637 21.9038V21.8981Z" fill="#591C10"/>
<path d="M134.626 21.4903C134.688 21.4196 134.77 21.3684 134.86 21.343C134.951 21.3175 135.047 21.3188 135.137 21.3467C135.294 21.4016 135.437 21.4897 135.557 21.6052C135.78 21.8177 135.973 22.0592 136.132 22.323C136.174 22.3857 136.19 22.4623 136.176 22.5365C136.162 22.6106 136.119 22.6763 136.057 22.7193C135.993 22.7612 135.915 22.7762 135.839 22.7612C135.764 22.7461 135.698 22.7022 135.655 22.6389C135.595 22.5327 135.528 22.431 135.453 22.3345L135.339 22.1967L135.304 22.1622L135.241 22.0933L135.109 21.9727L135.051 21.9268C135.011 21.8923 135.097 21.9268 135.051 21.9268H135.017L134.948 21.8923C135.017 21.9268 134.994 21.8923 134.948 21.8923C134.902 21.8923 134.896 21.8923 134.948 21.8923C134.902 21.8923 135.005 21.8923 134.976 21.8923C134.936 21.8923 135.028 21.8406 134.976 21.8923C134.95 21.9191 134.919 21.9403 134.884 21.9548C134.85 21.9693 134.813 21.9768 134.775 21.9768C134.738 21.9768 134.701 21.9693 134.666 21.9548C134.632 21.9403 134.6 21.9191 134.574 21.8923C134.517 21.8425 134.483 21.7724 134.477 21.6972C134.472 21.622 134.496 21.5477 134.545 21.4903H134.626Z" fill="#591C10"/>
<path d="M126.234 18.6188C126.234 19.0053 126.349 19.383 126.564 19.7042C126.779 20.0255 127.084 20.2757 127.442 20.4234C127.799 20.571 128.192 20.6093 128.572 20.5335C128.951 20.4577 129.299 20.2711 129.572 19.9975C129.845 19.7238 130.031 19.3754 130.106 18.9962C130.18 18.6171 130.141 18.2243 129.992 17.8676C129.843 17.5109 129.592 17.2063 129.27 16.9925C128.948 16.7786 128.569 16.6651 128.183 16.6662C127.926 16.6662 127.672 16.7168 127.436 16.815C127.199 16.9132 126.984 17.0571 126.803 17.2385C126.622 17.4198 126.478 17.6352 126.381 17.872C126.283 18.1089 126.233 18.3627 126.234 18.6188Z" fill="#D4806A"/>
<path d="M127.694 85.6741C124.892 84.7183 122.005 84.0318 119.072 83.6239C118.532 83.5492 117.572 83.3023 117.204 83.8593C117.1 84.0144 116.853 83.8593 116.957 83.7158C117.133 83.5117 117.361 83.3602 117.618 83.2781C117.875 83.196 118.149 83.1865 118.411 83.2506C119.164 83.3252 119.917 83.4573 120.664 83.5837C122.193 83.8479 123.705 84.1924 125.199 84.6059C126.056 84.8471 126.923 85.1113 127.745 85.3985C127.918 85.4559 127.843 85.7373 127.671 85.6741H127.694Z" fill="#8F3118"/>
<path d="M124.28 83.756C122.693 83.2662 121.044 83.0051 119.383 82.9807C119.199 82.9807 119.199 82.6878 119.383 82.6935C121.069 82.717 122.743 82.98 124.355 83.4745C124.533 83.532 124.458 83.8076 124.28 83.756V83.756Z" fill="#8F3118"/>
<path d="M123.889 91.6698C121.645 90.2955 119.529 88.7233 117.566 86.972C117.428 86.8457 117.635 86.6447 117.773 86.7653C119.722 88.5056 121.827 90.0628 124.061 91.4171C124.088 91.4401 124.105 91.4714 124.11 91.5058C124.116 91.5402 124.109 91.5754 124.092 91.6054C124.074 91.6354 124.046 91.6582 124.013 91.67C123.981 91.6817 123.945 91.6817 123.912 91.6698H123.889Z" fill="#8F3118"/>
</g>
<defs>
<filter id="filter0_d_241_38" x="-4" y="201.734" width="195" height="14.2599" filterUnits="userSpaceOnUse" color-interpolation-filters="sRGB">
<feFlood flood-opacity="0" result="BackgroundImageFix"/>
<feColorMatrix in="SourceAlpha" type="matrix" values="0 0 0 0 0 0 0 0 0 0 0 0 0 0 0 0 0 0 127 0" result="hardAlpha"/>
<feOffset dy="4"/>
<feGaussianBlur stdDeviation="2"/>
<feComposite in2="hardAlpha" operator="out"/>
<feColorMatrix type="matrix" values="0 0 0 0 0 0 0 0 0 0 0 0 0 0 0 0 0 0 0.25 0"/>
<feBlend mode="normal" in2="BackgroundImageFix" result="effect1_dropShadow_241_38"/>
<feBlend mode="normal" in="SourceGraphic" in2="effect1_dropShadow_241_38" result="shape"/>
</filter>
<clipPath id="clip0_241_38">
<rect width="187" height="208" fill="white" transform="matrix(-1 0 0 1 187 0)"/>
</clipPath>
</defs>
</svg>
