<svg width="36" height="28" viewBox="0 0 36 28" fill="none" xmlns="http://www.w3.org/2000/svg">
<path d="M13.5562 8.63473C16.1536 9.05187 17.9061 11.4546 17.4833 13.9922C17.0605 16.5299 14.6196 18.2591 12.0222 17.842C9.4249 17.4248 7.67237 15.0222 8.09517 12.4845C8.51796 9.94679 10.9589 8.21759 13.5562 8.63473Z" fill="#F9BA1C" stroke="black" stroke-width="0.6"/>
<path d="M12.3882 1.55871H12.3882L12.3882 1.55806C12.3881 1.50666 12.3982 1.45566 12.4182 1.40795C12.4382 1.36024 12.4678 1.31667 12.5052 1.27983C12.5427 1.24298 12.5874 1.21361 12.6368 1.19356C12.6863 1.17352 12.7394 1.16324 12.7931 1.16341L12.7937 0.963413V1.16341C12.8474 1.16341 12.9006 1.17382 12.95 1.19396C12.9994 1.21409 13.0441 1.24351 13.0816 1.28039C13.1191 1.31725 13.1487 1.36083 13.1688 1.40855C13.1889 1.45627 13.1992 1.50728 13.1992 1.55871V5.78498H13.1992L13.1992 5.78759C13.1999 5.83944 13.1901 5.89099 13.1703 5.93928C13.1505 5.98757 13.1211 6.03174 13.0835 6.06914C13.0459 6.10655 13.001 6.13643 12.9512 6.15689C12.9014 6.17734 12.8479 6.18792 12.7937 6.18791L12.7937 6.38791V6.18791C12.6851 6.18791 12.5816 6.14545 12.5058 6.07094C12.4301 5.99653 12.3882 5.89634 12.3882 5.79261V1.55871Z" fill="#F9BA1C" stroke="black" stroke-width="0.4"/>
<path d="M12.3882 24.9212V24.9205V20.6866C12.3882 20.5829 12.4301 20.4827 12.5058 20.4083C12.5816 20.3338 12.6851 20.2913 12.7937 20.2913C12.9023 20.2913 13.0059 20.3338 13.0816 20.4083C13.1573 20.4827 13.1992 20.5829 13.1992 20.6866V24.9205C13.1992 25.0243 13.1573 25.1245 13.0816 25.1989C13.0059 25.2734 12.9023 25.3158 12.7937 25.3158L12.7931 25.3158C12.7394 25.316 12.6863 25.3057 12.6368 25.2857C12.5874 25.2656 12.5427 25.2363 12.5052 25.1994C12.4678 25.1626 12.4382 25.119 12.4182 25.0713C12.3982 25.0236 12.3881 24.9726 12.3882 24.9212ZM12.1882 24.9205V20.6866C12.1882 20.5288 12.252 20.3773 12.3656 20.2657C12.4791 20.1541 12.6331 20.0913 12.7937 20.0913C12.9543 20.0913 13.1083 20.1541 13.2219 20.2657C13.3354 20.3773 13.3992 20.5288 13.3992 20.6866V24.9205C13.3992 25.0784 13.3354 25.2298 13.2219 25.3415C13.1083 25.4531 12.9543 25.5158 12.7937 25.5158L12.1882 24.9205Z" fill="#F9BA1C" stroke="black" stroke-width="0.4"/>
<path d="M17.8626 7.69729L17.863 7.69687L20.9119 4.70153C20.9119 4.70148 20.912 4.70144 20.912 4.7014C20.9883 4.62682 21.0923 4.58431 21.2014 4.58431C21.3105 4.58431 21.4144 4.62673 21.4907 4.70117C21.5659 4.77583 21.6075 4.87586 21.6075 4.97933C21.6075 5.08286 21.5659 5.18295 21.4905 5.25762C21.4904 5.2577 21.4904 5.25778 21.4903 5.25785L18.4397 8.25292L18.4394 8.2533C18.4019 8.29023 18.3573 8.31973 18.3078 8.33992C18.2583 8.36012 18.2051 8.37056 18.1514 8.37056C18.0976 8.37056 18.0444 8.36012 17.9949 8.33992C17.9454 8.31973 17.9008 8.29023 17.8633 8.2533L17.7228 8.39564L17.8626 8.25255C17.825 8.21582 17.7953 8.17235 17.7752 8.12474C17.755 8.07715 17.7447 8.02624 17.7447 7.97492C17.7447 7.9236 17.755 7.87269 17.7752 7.82509C17.7953 7.77748 17.825 7.73402 17.8626 7.69729Z" fill="#F9BA1C" stroke="black" stroke-width="0.4"/>
<path d="M7.43079 18.1087C7.53985 18.1087 7.64376 18.1511 7.72 18.2256C7.79527 18.3002 7.83683 18.4003 7.83683 18.5037C7.83683 18.6073 7.79522 18.7074 7.71986 18.782C7.71978 18.7821 7.7197 18.7822 7.71962 18.7823L4.66962 21.7768C4.66954 21.7769 4.66947 21.777 4.66939 21.777C4.5932 21.8512 4.48951 21.8934 4.3807 21.8934C4.27196 21.8934 4.16833 21.8512 4.09215 21.7772C4.01647 21.7025 3.97466 21.6022 3.97466 21.4984C3.97466 21.3945 4.01657 21.294 4.09243 21.2193C4.09246 21.2193 4.09249 21.2192 4.09252 21.2192L7.14121 18.2259C7.14123 18.2259 7.14125 18.2259 7.14128 18.2259C7.21753 18.1513 7.32158 18.1087 7.43079 18.1087Z" fill="#F9BA1C" stroke="black" stroke-width="0.4"/>
<path d="M19.9729 13.2394C19.9729 13.1357 20.0149 13.0356 20.0907 12.9611C20.1666 12.8866 20.2703 12.8441 20.3793 12.8441H24.6916C24.8005 12.8441 24.9043 12.8866 24.9802 12.9611C25.056 13.0356 25.0979 13.1357 25.0979 13.2394C25.0979 13.2908 25.0876 13.3418 25.0675 13.3894C25.0473 13.4371 25.0178 13.4807 24.9802 13.5176C24.9426 13.5545 24.8978 13.5839 24.8483 13.6041C24.7987 13.6243 24.7454 13.6347 24.6916 13.6347H20.3793C20.3254 13.6347 20.2722 13.6243 20.2226 13.6041C20.173 13.5839 20.1282 13.5545 20.0907 13.5176C20.0531 13.4807 20.0235 13.4371 20.0034 13.3894C19.9833 13.3418 19.9729 13.2908 19.9729 13.2394Z" fill="#F9BA1C" stroke="black" stroke-width="0.4"/>
<path d="M0.488818 13.2394C0.488818 13.1357 0.530718 13.0356 0.606523 12.9611C0.682455 12.8866 0.786208 12.8441 0.895143 12.8441H5.20938C5.31831 12.8441 5.42207 12.8866 5.498 12.9611C5.57381 13.0356 5.61571 13.1357 5.61571 13.2394C5.61571 13.2908 5.6054 13.3418 5.58528 13.3894C5.56516 13.4371 5.53556 13.4807 5.498 13.5176C5.46043 13.5545 5.41563 13.5839 5.36607 13.6041C5.3165 13.6243 5.26324 13.6347 5.20938 13.6347H0.895143C0.841282 13.6347 0.788029 13.6243 0.738457 13.6041C0.688892 13.5839 0.644092 13.5545 0.606523 13.5176C0.568961 13.4807 0.539366 13.4371 0.519243 13.3894C0.499124 13.3418 0.488818 13.2908 0.488818 13.2394Z" fill="#F9BA1C" stroke="black" stroke-width="0.4"/>
<path d="M18.4394 18.226L18.4394 18.226L18.4398 18.2264L21.4901 21.2194C21.4903 21.2195 21.4904 21.2196 21.4905 21.2197C21.566 21.2947 21.6077 21.3951 21.6077 21.499C21.6077 21.6027 21.5661 21.703 21.4908 21.778C21.4143 21.852 21.3104 21.8942 21.2014 21.8942C21.0923 21.8942 20.9883 21.8519 20.9117 21.7776C20.9116 21.7775 20.9115 21.7774 20.9114 21.7773L17.863 18.7824L17.863 18.7824L17.8626 18.782C17.825 18.7453 17.7953 18.7018 17.7752 18.6542C17.755 18.6066 17.7447 18.5557 17.7447 18.5044C17.7447 18.453 17.755 18.4021 17.7752 18.3545C17.7953 18.3069 17.825 18.2635 17.8626 18.2267L17.7228 18.0837L17.8633 18.226C17.9008 18.1891 17.9454 18.1596 17.9949 18.1394C18.0444 18.1192 18.0976 18.1087 18.1514 18.1087C18.2051 18.1087 18.2583 18.1192 18.3078 18.1394C18.3573 18.1596 18.4019 18.1891 18.4394 18.226Z" fill="#F9BA1C" stroke="black" stroke-width="0.4"/>
<path d="M4.66887 4.7006L4.66886 4.7006L4.66925 4.70097L7.71978 7.69604C7.71986 7.69612 7.71994 7.6962 7.72003 7.69628C7.79538 7.77095 7.83699 7.87103 7.83699 7.97457C7.83699 8.07804 7.79543 8.17807 7.72016 8.25273C7.64393 8.32716 7.54002 8.36959 7.43095 8.36959C7.32171 8.36959 7.21764 8.32703 7.14137 8.25237L4.09243 5.26076L4.09243 5.26075L4.09143 5.25979C4.05342 5.22301 4.02344 5.17938 4.00305 5.13154C3.98267 5.0837 3.97222 5.0325 3.97222 4.98089C3.97222 4.92927 3.98267 4.87807 4.00305 4.83024C4.02344 4.7824 4.05342 4.73877 4.09143 4.70199L3.95235 4.55826L4.09285 4.7006C4.13027 4.66366 4.17495 4.63417 4.22441 4.61397C4.27389 4.59377 4.32707 4.58333 4.38086 4.58333C4.43465 4.58333 4.48783 4.59377 4.53731 4.61397C4.58677 4.63417 4.63145 4.66366 4.66887 4.7006Z" fill="#F9BA1C" stroke="black" stroke-width="0.4"/>
<path d="M32.7078 20.6494H32.8454C33.564 20.7048 34.2452 21.0411 34.7574 21.6041C35.3045 22.2056 35.614 23.0174 35.614 23.8668C35.614 24.7162 35.3045 25.528 34.7574 26.1295C34.2118 26.7293 33.4743 27.0717 32.704 27.0915H12.2112C11.0868 27.0676 10.011 26.571 9.21633 25.7005C8.42031 24.8286 7.97114 23.6516 7.97114 22.4217C7.97114 21.1918 8.42031 20.0149 9.21633 19.1429C10.011 18.2724 11.0868 17.7758 12.2112 17.7519H12.2655H12.6036L12.5634 17.4162C12.5287 17.1266 12.5102 16.835 12.5081 16.543C12.5072 14.89 13.0407 13.2905 14.0135 12.0177C14.9862 10.745 16.3365 9.87912 17.8309 9.56217C19.325 9.24529 20.8759 9.49539 22.2201 10.2723C23.5648 11.0496 24.6213 12.3075 25.204 13.8353L25.339 14.1891L25.6525 13.9768C26.4927 13.408 27.4776 13.1448 28.4633 13.2228C29.4492 13.3007 30.3891 13.7161 31.1444 14.4125C31.9 15.1092 32.431 16.0506 32.6557 17.1005C32.8653 18.0797 32.7974 19.1021 32.4639 20.0361L32.4078 20.0347V20.1857C32.4011 20.2029 32.3943 20.2199 32.3874 20.237L32.2209 20.6494H32.6656H32.6657H32.6658H32.6659H32.6659H32.666H32.6661H32.6662H32.6663H32.6664H32.6665H32.6666H32.6667H32.6667H32.6668H32.6669H32.667H32.6671H32.6672H32.6673H32.6674H32.6675H32.6675H32.6676H32.6677H32.6678H32.6679H32.668H32.6681H32.6682H32.6682H32.6683H32.6684H32.6685H32.6686H32.6687H32.6688H32.6689H32.6689H32.669H32.6691H32.6692H32.6693H32.6694H32.6695H32.6696H32.6696H32.6697H32.6698H32.6699H32.67H32.6701H32.6702H32.6703H32.6703H32.6704H32.6705H32.6706H32.6707H32.6708H32.6709H32.671H32.671H32.6711H32.6712H32.6713H32.6714H32.6715H32.6716H32.6716H32.6717H32.6718H32.6719H32.672H32.6721H32.6722H32.6723H32.6723H32.6724H32.6725H32.6726H32.6727H32.6728H32.6729H32.6729H32.673H32.6731H32.6732H32.6733H32.6734H32.6735H32.6735H32.6736H32.6737H32.6738H32.6739H32.674H32.6741H32.6741H32.6742H32.6743H32.6744H32.6745H32.6746H32.6747H32.6747H32.6748H32.6749H32.675H32.6751H32.6752H32.6753H32.6753H32.6754H32.6755H32.6756H32.6757H32.6758H32.6759H32.6759H32.676H32.6761H32.6762H32.6763H32.6764H32.6764H32.6765H32.6766H32.6767H32.6768H32.6769H32.677H32.677H32.6771H32.6772H32.6773H32.6774H32.6775H32.6775H32.6776H32.6777H32.6778H32.6779H32.678H32.6781H32.6781H32.6782H32.6783H32.6784H32.6785H32.6786H32.6786H32.6787H32.6788H32.6789H32.679H32.6791H32.6791H32.6792H32.6793H32.6794H32.6795H32.6796H32.6797H32.6797H32.6798H32.6799H32.68H32.6801H32.6802H32.6802H32.6803H32.6804H32.6805H32.6806H32.6807H32.6807H32.6808H32.6809H32.681H32.6811H32.6812H32.6812H32.6813H32.6814H32.6815H32.6816H32.6817H32.6817H32.6818H32.6819H32.682H32.6821H32.6822H32.6822H32.6823H32.6824H32.6825H32.6826H32.6827H32.6827H32.6828H32.6829H32.683H32.6831H32.6831H32.6832H32.6833H32.6834H32.6835H32.6836H32.6836H32.6837H32.6838H32.6839H32.684H32.6841H32.6841H32.6842H32.6843H32.6844H32.6845H32.6846H32.6846H32.6847H32.6848H32.6849H32.685H32.685H32.6851H32.6852H32.6853H32.6854H32.6855H32.6855H32.6856H32.6857H32.6858H32.6859H32.6859H32.686H32.6861H32.6862H32.6863H32.6864H32.6864H32.6865H32.6866H32.6867H32.6868H32.6869H32.6869H32.687H32.6871H32.6872H32.6873H32.6873H32.6874H32.6875H32.6876H32.6877H32.6877H32.6878H32.6879H32.688H32.6881H32.6882H32.6882H32.6883H32.6884H32.6885H32.6886H32.6886H32.6887H32.6888H32.6889H32.689H32.6891H32.6891H32.6892H32.6893H32.6894H32.6895H32.6895H32.6896H32.6897H32.6898H32.6899H32.6899H32.69H32.6901H32.6902H32.6903H32.6903H32.6904H32.6905H32.6906H32.6907H32.6908H32.6908H32.6909H32.691H32.6911H32.6912H32.6912H32.6913H32.6914H32.6915H32.6916H32.6916H32.6917H32.6918H32.6919H32.692H32.692H32.6921H32.6922H32.6923H32.6924H32.6924H32.6925H32.6926H32.6927H32.6928H32.6929H32.6929H32.693H32.6931H32.6932H32.6933H32.6933H32.6934H32.6935H32.6936H32.6937H32.6937H32.6938H32.6939H32.694H32.6941H32.6941H32.6942H32.6943H32.6944H32.6945H32.6945H32.6946H32.6947H32.6948H32.6949H32.6949H32.695H32.6951H32.6952H32.6953H32.6953H32.6954H32.6955H32.6956H32.6957H32.6957H32.6958H32.6959H32.696H32.6961H32.6961H32.6962H32.6963H32.6964H32.6965H32.6965H32.6966H32.6967H32.6968H32.6969H32.6969H32.697H32.6971H32.6972H32.6973H32.6973H32.6974H32.6975H32.6976H32.6977H32.6977H32.6978H32.6979H32.698H32.6981H32.6981H32.6982H32.6983H32.6984H32.6985H32.6985H32.6986H32.6987H32.6988H32.6989H32.6989H32.699H32.6991H32.6992H32.6993H32.6993H32.6994H32.6995H32.6996H32.6997H32.6997H32.6998H32.6999H32.7H32.7001H32.7001H32.7002H32.7003H32.7004H32.7004H32.7005H32.7006H32.7007H32.7008H32.7008H32.7009H32.701H32.7011H32.7012H32.7012H32.7013H32.7014H32.7015H32.7016H32.7016H32.7017H32.7018H32.7019H32.702H32.702H32.7021H32.7022H32.7023H32.7024H32.7024H32.7025H32.7026H32.7027H32.7028H32.7028H32.7029H32.703H32.7031H32.7031H32.7032H32.7033H32.7034H32.7035H32.7035H32.7036H32.7037H32.7038H32.7039H32.7039H32.704H32.7041H32.7042H32.7043H32.7043H32.7044H32.7045H32.7046H32.7047H32.7047H32.7048H32.7049H32.705H32.7051H32.7051H32.7052H32.7053H32.7054H32.7054H32.7055H32.7056H32.7057H32.7058H32.7058H32.7059H32.706H32.7061H32.7062H32.7062H32.7063H32.7064H32.7065H32.7066H32.7066H32.7067H32.7068H32.7069H32.707H32.707H32.7071H32.7072H32.7073H32.7073H32.7074H32.7075H32.7076H32.7077H32.7077H32.7078Z" fill="white" stroke="black" stroke-width="0.6"/>
</svg>
