<svg width="29" height="30" viewBox="0 0 29 30" fill="none" xmlns="http://www.w3.org/2000/svg">
<path d="M28.6777 12.1783C28.6914 10.6355 28.1038 9.14915 27.0415 8.03938C25.9793 6.92962 24.5274 6.28533 22.9988 6.24535C21.4702 6.20537 19.9872 6.77289 18.8694 7.82564C17.7516 8.87838 17.0885 10.3321 17.0229 11.8734C16.2844 11.1299 15.3619 10.5997 14.3514 10.3381C13.3409 10.0764 12.2793 10.0929 11.2772 10.3857C10.2751 10.6785 9.36917 11.237 8.65366 12.003C7.93815 12.769 7.43925 13.7146 7.20891 14.7412C6.81196 14.5367 6.36952 14.4387 5.92418 14.4568C5.47883 14.4748 5.04559 14.6082 4.66616 14.8441C4.28673 15.08 3.97389 15.4106 3.75777 15.8038C3.54164 16.1971 3.4295 16.6399 3.43214 17.0896C3.43379 17.2697 3.45252 17.4493 3.4881 17.6259C2.65043 17.8908 1.93484 18.4503 1.4715 19.2025C1.00816 19.9548 0.827856 20.8499 0.963376 21.725C1.0989 22.6001 1.54124 23.397 2.20995 23.9708C2.87866 24.5446 3.7293 24.8572 4.60714 24.8517C5.23704 24.8524 5.85618 24.6869 6.4032 24.3718C6.81845 25.4865 7.55891 26.4478 8.52686 27.1291C9.49481 27.8104 10.6448 28.1796 11.8249 28.188C12.2775 28.1884 12.7284 28.1334 13.1678 28.0243C13.6029 28.6829 14.2361 29.1832 14.9741 29.4517C15.7121 29.7202 16.5161 29.7427 17.2677 29.5158C18.0193 29.289 18.6789 28.8248 19.1495 28.1914C19.6201 27.5581 19.8769 26.7892 19.882 25.9976C19.8803 25.7951 19.8616 25.593 19.8261 25.3936C19.9837 25.2518 20.1097 25.0778 20.1955 24.8832C20.2814 24.6885 20.3252 24.4776 20.3241 24.2646C20.3299 24.1894 20.3299 24.1139 20.3241 24.0388C20.9762 23.9641 21.5965 23.7138 22.1198 23.3141C22.6432 22.9144 23.0503 22.38 23.2986 21.767C23.5469 21.154 23.6272 20.4849 23.5311 19.8298C23.435 19.1747 23.166 18.5578 22.7524 18.0436H22.8251C24.3719 18.0481 25.8572 17.4328 26.9546 16.333C28.052 15.2332 28.6718 13.7389 28.6777 12.1783V12.1783Z" stroke="#231F20" stroke-width="0.5" stroke-miterlimit="10"/>
<path d="M7.90776 8.66073C8.72974 8.66073 9.39608 7.98843 9.39608 7.15911C9.39608 6.32979 8.72974 5.6575 7.90776 5.6575C7.08578 5.6575 6.41943 6.32979 6.41943 7.15911C6.41943 7.98843 7.08578 8.66073 7.90776 8.66073Z" stroke="#231F20" stroke-width="0.5" stroke-miterlimit="10"/>
<path d="M14.7966 5.16617C15.9368 5.16617 16.8612 4.23355 16.8612 3.0831C16.8612 1.93266 15.9368 1.00003 14.7966 1.00003C13.6563 1.00003 12.7319 1.93266 12.7319 3.0831C12.7319 4.23355 13.6563 5.16617 14.7966 5.16617Z" stroke="#231F20" stroke-width="0.5" stroke-miterlimit="10"/>
<path d="M11.3604 22.06C10.9204 22.06 10.5424 21.972 10.2264 21.796C9.91442 21.616 9.67442 21.364 9.50642 21.04C9.33842 20.712 9.25442 20.326 9.25442 19.882C9.25442 19.438 9.33842 19.054 9.50642 18.73C9.67442 18.406 9.91442 18.156 10.2264 17.98C10.5424 17.8 10.9204 17.71 11.3604 17.71C11.6444 17.71 11.9124 17.754 12.1644 17.842C12.4204 17.93 12.6304 18.056 12.7944 18.22L12.5424 18.832C12.3624 18.68 12.1784 18.57 11.9904 18.502C11.8024 18.43 11.6004 18.394 11.3844 18.394C10.9564 18.394 10.6304 18.524 10.4064 18.784C10.1824 19.04 10.0704 19.406 10.0704 19.882C10.0704 20.358 10.1824 20.726 10.4064 20.986C10.6304 21.246 10.9564 21.376 11.3844 21.376C11.6004 21.376 11.8024 21.342 11.9904 21.274C12.1784 21.202 12.3624 21.09 12.5424 20.938L12.7944 21.55C12.6304 21.71 12.4204 21.836 12.1644 21.928C11.9124 22.016 11.6444 22.06 11.3604 22.06ZM15.2201 22.06C14.8121 22.06 14.4541 21.97 14.1461 21.79C13.8421 21.61 13.6061 21.358 13.4381 21.034C13.2701 20.706 13.1861 20.322 13.1861 19.882C13.1861 19.438 13.2701 19.054 13.4381 18.73C13.6061 18.406 13.8421 18.156 14.1461 17.98C14.4501 17.8 14.8081 17.71 15.2201 17.71C15.6321 17.71 15.9901 17.8 16.2941 17.98C16.5981 18.156 16.8341 18.406 17.0021 18.73C17.1701 19.054 17.2541 19.436 17.2541 19.876C17.2541 20.32 17.1701 20.706 17.0021 21.034C16.8341 21.358 16.5981 21.61 16.2941 21.79C15.9901 21.97 15.6321 22.06 15.2201 22.06ZM15.2201 21.4C15.6081 21.4 15.9101 21.266 16.1261 20.998C16.3421 20.73 16.4501 20.358 16.4501 19.882C16.4501 19.402 16.3421 19.03 16.1261 18.766C15.9141 18.502 15.6121 18.37 15.2201 18.37C14.8321 18.37 14.5301 18.502 14.3141 18.766C14.0981 19.03 13.9901 19.402 13.9901 19.882C13.9901 20.358 14.0981 20.73 14.3141 20.998C14.5301 21.266 14.8321 21.4 15.2201 21.4Z" fill="#231F20"/>
</svg>
