<svg width="299" height="266" viewBox="0 0 299 266" fill="none" xmlns="http://www.w3.org/2000/svg">
<g opacity="0.5" clip-path="url(#clip0_241_23)">
<path d="M211.421 90.8197C210.722 90.6718 209.994 90.8066 209.394 91.1945C208.909 90.7569 208.324 90.4452 207.69 90.2868C206.589 90.0877 205.511 90.7201 204.679 91.458C203.453 92.6502 202.4 94.0083 201.551 95.4927V95.4927C203.636 95.2058 205.751 95.7445 207.854 95.6508C208.927 95.6037 209.987 95.3883 210.993 95.0125C211.413 94.9024 211.804 94.7039 212.14 94.4302C212.477 94.1564 212.751 93.8139 212.944 93.4256C213.018 93.1545 213.037 92.8713 213 92.5927C212.963 92.3141 212.871 92.0457 212.729 91.803C212.588 91.5604 212.399 91.3485 212.174 91.1796C211.95 91.0108 211.693 90.8884 211.421 90.8197V90.8197Z" fill="#789E7B"/>
<path d="M167.731 121.798C167.084 121.743 166.434 121.859 165.845 122.133C165.256 122.407 164.749 122.831 164.375 123.361C163.635 124.436 163.243 125.711 163.25 127.015C163.25 127.208 163.25 127.402 163.25 127.601C165.094 125.822 167.483 124.716 170.033 124.462C170.04 123.814 169.81 123.185 169.386 122.694C168.962 122.204 168.374 121.885 167.731 121.798Z" fill="#789E7B"/>
<path d="M48.0477 87.4701C47.3624 87.6223 46.6771 87.7922 45.9977 87.9913C45.6579 86.5976 43.8363 85.7543 42.3602 86.0998C40.6968 86.4921 39.4316 87.8566 38.348 89.139C37.5912 90.1122 36.6952 90.9685 35.6887 91.6805V91.6805C38.3562 92.3056 41.1269 92.3496 43.8129 91.8093C46.0621 91.3467 48.6745 89.6544 48.0477 87.4701Z" fill="#789E7B"/>
<path d="M108.806 17.8723C108.121 18.0246 107.435 18.1944 106.756 18.3935C106.416 16.9998 104.595 16.1565 103.119 16.502C101.455 16.8944 100.19 18.2588 99.1063 19.5412C98.3495 20.5144 97.4535 21.3707 96.447 22.0827V22.0827C99.1165 22.7088 101.89 22.7507 104.577 22.2057C106.82 21.7489 109.427 20.0566 108.806 17.8723Z" fill="#789E7B"/>
<path d="M69.7551 187.724C68.9171 187.328 68.0248 187.06 67.1076 186.927C66.1821 186.875 65.1395 187.32 64.8642 188.204C64.8022 188.476 64.8251 188.76 64.9299 189.019C65.0346 189.278 65.2161 189.498 65.45 189.65C64.4308 189.867 63.5346 191.015 63.9388 192.04C64.0428 192.294 64.2151 192.515 64.4366 192.678L64.2726 192.713L64.6182 192.789C65.0024 192.999 65.443 193.083 65.8776 193.029C67.8267 193.21 69.7895 192.882 71.5739 192.077C73.3583 191.273 74.9032 190.019 76.0576 188.438C73.93 188.719 71.7659 188.474 69.7551 187.724V187.724Z" fill="#789E7B"/>
<path d="M5.94531 73.5154C5.10732 73.1198 4.21499 72.8514 3.29779 72.719C2.37232 72.6663 1.32972 73.1114 1.05442 73.9956C0.992413 74.2677 1.01532 74.5522 1.12005 74.8108C1.22479 75.0694 1.40631 75.2897 1.64016 75.442C0.620978 75.6587 -0.275196 76.8065 0.128961 77.8313C0.233223 78.0873 0.407869 78.3086 0.632693 78.4696L0.46283 78.5047C0.576573 78.5363 0.691935 78.5617 0.808413 78.5808C1.20833 78.7942 1.66599 78.8742 2.1146 78.8092C4.06347 78.9872 6.02525 78.6579 7.80914 77.8534C9.59302 77.0489 11.1383 75.7966 12.2947 74.2182C10.1526 74.5073 7.97226 74.266 5.94531 73.5154V73.5154Z" fill="#789E7B"/>
<path d="M28.0625 187.402C29.8228 187.71 31.6315 187.587 33.3341 187.044C35.8469 186.178 37.9848 183.9 38.0903 181.247C34.3357 182.395 31.6121 186.125 28.0625 187.402Z" fill="#789E7B"/>
<path d="M150.651 119.736C148.941 120.26 147.385 121.193 146.117 122.453C144.278 124.374 143.411 127.372 144.53 129.779C147.347 127.05 148.068 122.489 150.651 119.736Z" fill="#789E7B"/>
<path d="M253.547 8.84832C255.321 8.62556 257.015 7.97217 258.479 6.94514C260.623 5.37575 261.993 2.5649 261.302 0C258.057 2.20769 256.563 6.57622 253.547 8.84832Z" fill="#789E7B"/>
<path d="M232.004 201.163C232.901 202.266 233.964 203.222 235.155 203.997C236.912 205.081 239.255 205.514 241.106 204.548C243.215 203.447 244.41 200.759 246.747 200.349C244.379 199.401 241.832 198.982 239.285 199.123C236.738 199.263 234.253 199.96 232.004 201.163Z" fill="#789E7B"/>
<path d="M247.157 264.923C248.46 265.488 249.843 265.846 251.257 265.983C253.336 266.129 255.597 265.438 256.792 263.734C258.157 261.784 257.964 258.844 259.861 257.404C257.323 257.653 254.87 258.456 252.675 259.755C250.48 261.054 248.597 262.818 247.157 264.923Z" fill="#789E7B"/>
<path d="M276.584 129.586C275.572 129.568 274.587 129.913 273.808 130.558C271.961 131.882 270.537 133.713 269.708 135.828C272.507 134.476 275.213 131.665 278.388 131.577C278.546 130.57 277.58 129.68 276.584 129.586Z" fill="#789E7B"/>
<path d="M297.167 39.6037C296.157 39.5891 295.175 39.9336 294.396 40.5758C292.549 41.9001 291.125 43.7305 290.296 45.8461C293.096 44.4934 295.802 41.6884 298.971 41.5947C299.129 40.5758 298.162 39.6857 297.167 39.6037Z" fill="#789E7B"/>
<path d="M226.732 155.961C225.818 155.253 224.213 155.75 223.962 156.81C223.911 156.423 223.716 156.068 223.417 155.817C223.118 155.565 222.735 155.435 222.345 155.452C221.903 155.514 221.478 155.669 221.099 155.904C220.72 156.14 220.394 156.453 220.143 156.822C219.365 157.819 218.825 158.98 218.562 160.217C218.299 161.453 218.321 162.733 218.626 163.96C220.627 163.507 222.559 162.791 224.372 161.829C225.529 161.31 226.51 160.465 227.195 159.399C227.804 158.298 227.734 156.722 226.732 155.961Z" fill="#789E7B"/>
</g>
<defs>
<clipPath id="clip0_241_23">
<rect width="299" height="266" fill="white"/>
</clipPath>
</defs>
</svg>
