<svg width="60" height="60" viewBox="0 0 60 60" fill="none" xmlns="http://www.w3.org/2000/svg">
<path d="M30 58.9189C45.9714 58.9189 58.9189 45.9715 58.9189 30C58.9189 14.0285 45.9714 1.08109 30 1.08109C14.0285 1.08109 1.08105 14.0285 1.08105 30C1.08105 45.9715 14.0285 58.9189 30 58.9189Z" fill="url(#paint0_linear_187_2047)" stroke="black" stroke-width="0.5"/>
<path d="M44.8105 19.6649H52.6484C53.0268 18.5838 51.7835 18.3135 51.1349 18.3135C49.7835 15.9892 47.297 16.6378 46.6484 18.3135C45.1889 18.0432 44.8105 19.1243 44.8105 19.6649Z" fill="#DDDBE0"/>
<path d="M11.3516 13.027H21.8921C22.4326 11.6757 20.7029 11.2973 19.8921 11.2973C18.1083 8.27026 14.7029 9.13513 13.838 11.2973C11.838 10.9189 11.3516 12.2703 11.3516 13.027Z" fill="#DDDBE0"/>
<path d="M40.9728 21.6757C41.1519 21.6757 41.2971 21.5305 41.2971 21.3514C41.2971 21.1722 41.1519 21.027 40.9728 21.027C40.7936 21.027 40.6484 21.1722 40.6484 21.3514C40.6484 21.5305 40.7936 21.6757 40.9728 21.6757Z" fill="#C4C4C4"/>
<path d="M54.3243 34.3243C54.5034 34.3243 54.6486 34.1791 54.6486 34C54.6486 33.8209 54.5034 33.6757 54.3243 33.6757C54.1452 33.6757 54 33.8209 54 34C54 34.1791 54.1452 34.3243 54.3243 34.3243Z" fill="#C4C4C4"/>
<path d="M38.0001 10.973C38.1792 10.973 38.3244 10.8278 38.3244 10.6487C38.3244 10.4695 38.1792 10.3243 38.0001 10.3243C37.821 10.3243 37.6758 10.4695 37.6758 10.6487C37.6758 10.8278 37.821 10.973 38.0001 10.973Z" fill="#C4C4C4"/>
<path d="M23.3512 8.97299C23.5303 8.97299 23.6755 8.82778 23.6755 8.64867C23.6755 8.46955 23.5303 8.32434 23.3512 8.32434C23.1721 8.32434 23.0269 8.46955 23.0269 8.64867C23.0269 8.82778 23.1721 8.97299 23.3512 8.97299Z" fill="#C4C4C4"/>
<path d="M13.027 17.2973C13.2061 17.2973 13.3513 17.1521 13.3513 16.973C13.3513 16.7939 13.2061 16.6487 13.027 16.6487C12.8478 16.6487 12.7026 16.7939 12.7026 16.973C12.7026 17.1521 12.8478 17.2973 13.027 17.2973Z" fill="#C4C4C4"/>
<path d="M41.4052 22.2703H18.7025C13.1349 22.2703 8.64844 27.5135 8.64844 33.9459V34.8108C8.64844 41.2432 13.1349 46.4865 18.7025 46.4865H41.4052C46.9728 46.4865 51.4592 41.2432 51.4592 34.8108V33.9459C51.5133 27.5135 46.9728 22.2703 41.4052 22.2703Z" fill="#E2F8FE"/>
<path d="M15.2431 34.7027H11.1891C11.0612 34.7096 10.936 34.7417 10.8206 34.7971C10.7052 34.8524 10.6018 34.9301 10.5164 35.0255C10.4311 35.1209 10.3654 35.2322 10.3231 35.3531C10.2808 35.4739 10.2628 35.6019 10.2701 35.7297C10.265 35.9854 10.3569 36.2335 10.5274 36.4241C10.698 36.6147 10.9344 36.7336 11.1891 36.7568H15.2431C15.4973 36.7306 15.7328 36.6112 15.904 36.4215C16.0753 36.2317 16.17 35.9853 16.17 35.7297C16.17 35.4742 16.0753 35.2277 15.904 35.038C15.7328 34.8483 15.4973 34.7288 15.2431 34.7027Z" fill="#C3EAF4"/>
<path d="M36.0001 23.0811H34.4866C34.3546 23.0824 34.2242 23.1103 34.1032 23.163C33.9822 23.2158 33.8731 23.2924 33.7823 23.3882C33.6915 23.4841 33.6209 23.5972 33.5748 23.7209C33.5286 23.8445 33.5078 23.9762 33.5136 24.1081C33.5106 24.3722 33.6105 24.627 33.7921 24.8187C33.9737 25.0104 34.2228 25.1239 34.4866 25.1351H36.0001C36.1321 25.1338 36.2625 25.1059 36.3835 25.0532C36.5045 25.0004 36.6137 24.9238 36.7045 24.828C36.7952 24.7322 36.8658 24.619 36.912 24.4954C36.9581 24.3717 36.9789 24.24 36.9731 24.1081C36.9762 23.8441 36.8763 23.5892 36.6947 23.3975C36.5131 23.2058 36.264 23.0923 36.0001 23.0811Z" fill="#BFEDFA"/>
<path d="M47.3512 29.1892H45.8377C45.7057 29.1905 45.5753 29.2184 45.4543 29.2712C45.3333 29.3239 45.2242 29.4005 45.1334 29.4964C45.0426 29.5922 44.972 29.7053 44.9259 29.829C44.8797 29.9527 44.8589 30.0844 44.8647 30.2162C44.8617 30.4803 44.9615 30.7352 45.1431 30.9269C45.3248 31.1186 45.5739 31.232 45.8377 31.2433H47.3512C47.6236 31.2433 47.8848 31.1351 48.0774 30.9425C48.27 30.7498 48.3782 30.4886 48.3782 30.2162C48.3782 29.9439 48.27 29.6826 48.0774 29.49C47.8848 29.2974 47.6236 29.1892 47.3512 29.1892Z" fill="#C3EAF4"/>
<path d="M48.027 39.1189H48.4054C48.4383 39.119 48.4708 39.1123 48.501 39.0994C48.5313 39.0865 48.5586 39.0676 48.5813 39.0439C48.6041 39.0202 48.6217 38.992 48.6333 38.9613C48.6449 38.9305 48.6501 38.8977 48.6486 38.8649C48.6487 38.7993 48.6234 38.7363 48.5781 38.6889C48.5327 38.6416 48.4709 38.6136 48.4054 38.6108H48.027C47.9596 38.6108 47.895 38.6376 47.8474 38.6852C47.7997 38.7329 47.7729 38.7975 47.7729 38.8649C47.7729 38.9322 47.7997 38.9969 47.8474 39.0445C47.895 39.0921 47.9596 39.1189 48.027 39.1189Z" fill="#C3EAF4"/>
<path d="M12.7349 33.3892H13.4268C13.4869 33.3878 13.5461 33.3745 13.6011 33.35C13.656 33.3256 13.7055 33.2904 13.7467 33.2467C13.7879 33.2029 13.8201 33.1514 13.8413 33.0952C13.8624 33.0389 13.8722 32.979 13.8701 32.9189C13.8716 32.7983 13.8262 32.6819 13.7435 32.5942C13.6608 32.5064 13.5473 32.4542 13.4268 32.4486H12.7349C12.6102 32.4486 12.4906 32.4982 12.4024 32.5864C12.3142 32.6746 12.2646 32.7942 12.2646 32.9189C12.2646 33.0436 12.3142 33.1632 12.4024 33.2514C12.4906 33.3396 12.6102 33.3892 12.7349 33.3892Z" fill="#C3EAF4"/>
<path d="M32.1944 37.173H32.8863C32.9464 37.1716 33.0056 37.1583 33.0605 37.1338C33.1154 37.1093 33.165 37.0742 33.2062 37.0305C33.2474 36.9867 33.2796 36.9352 33.3007 36.8789C33.3219 36.8227 33.3317 36.7628 33.3295 36.7027C33.3311 36.5821 33.2857 36.4657 33.203 36.3779C33.1203 36.2902 33.0067 36.238 32.8863 36.2324H32.1944C32.0697 36.2324 31.9501 36.282 31.8619 36.3702C31.7737 36.4584 31.7241 36.578 31.7241 36.7027C31.7241 36.8274 31.7737 36.947 31.8619 37.0352C31.9501 37.1234 32.0697 37.173 32.1944 37.173Z" fill="#C3EAF4"/>
<path d="M31.892 19.4595H29.3514C29.2092 19.473 29.0711 19.5145 28.945 19.5818C28.8189 19.649 28.7074 19.7405 28.6169 19.8511C28.5265 19.9617 28.4588 20.0891 28.4179 20.226C28.3769 20.3629 28.3635 20.5066 28.3785 20.6487C28.353 20.9406 28.4393 21.2313 28.6199 21.4621C28.8005 21.6928 29.062 21.8465 29.3514 21.8919H31.892C32.1856 21.8554 32.4528 21.7041 32.6351 21.4711C32.8175 21.2381 32.9001 20.9424 32.865 20.6487C32.8799 20.5066 32.8665 20.3629 32.8256 20.226C32.7846 20.0891 32.717 19.9617 32.6265 19.8511C32.536 19.7405 32.4245 19.649 32.2985 19.5818C32.1724 19.5145 32.0342 19.473 31.892 19.4595Z" fill="#BFEDFA"/>
<path d="M35.3516 19.4595H34.4867C34.3445 19.473 34.2063 19.5145 34.0802 19.5818C33.9542 19.649 33.8427 19.7405 33.7522 19.8511C33.6617 19.9617 33.594 20.0891 33.5531 20.226C33.5122 20.3629 33.4988 20.5066 33.5137 20.6487C33.4883 20.9406 33.5746 21.2313 33.7552 21.4621C33.9358 21.6928 34.1972 21.8465 34.4867 21.8919H35.3516C35.6452 21.8554 35.9124 21.7041 36.0947 21.4711C36.277 21.2381 36.3597 20.9424 36.3245 20.6487C36.3395 20.5066 36.3261 20.3629 36.2851 20.226C36.2442 20.0891 36.1766 19.9617 36.0861 19.8511C35.9956 19.7405 35.8841 19.649 35.758 19.5818C35.632 19.5145 35.4938 19.473 35.3516 19.4595Z" fill="#C3EAF4"/>
<path fill-rule="evenodd" clip-rule="evenodd" d="M16.6484 47.8919C16.6519 47.796 16.6743 47.7018 16.7142 47.6146C16.7541 47.5274 16.8109 47.4489 16.8811 47.3836C16.9514 47.3184 17.0339 47.2676 17.1238 47.2342C17.2137 47.2009 17.3093 47.1856 17.4052 47.1892H43.0268C43.2132 47.1892 43.3919 47.2632 43.5237 47.395C43.6555 47.5268 43.7295 47.7055 43.7295 47.8919C43.7295 48.0782 43.6555 48.257 43.5237 48.3888C43.3919 48.5205 43.2132 48.5946 43.0268 48.5946H17.4052C17.2142 48.5926 17.0309 48.5195 16.891 48.3895C16.751 48.2596 16.6646 48.0822 16.6484 47.8919Z" fill="#B3B3B3"/>
<path fill-rule="evenodd" clip-rule="evenodd" d="M13.7837 47.2973C13.7872 47.2015 13.8095 47.1072 13.8495 47.02C13.8894 46.9328 13.9461 46.8543 14.0164 46.7891C14.0867 46.7238 14.1691 46.673 14.2591 46.6397C14.349 46.6063 14.4446 46.591 14.5404 46.5946H45.8377C45.93 46.5946 46.0214 46.6128 46.1067 46.6481C46.1919 46.6834 46.2694 46.7352 46.3346 46.8004C46.3999 46.8657 46.4516 46.9431 46.487 47.0284C46.5223 47.1137 46.5404 47.205 46.5404 47.2973C46.5404 47.3896 46.5223 47.481 46.487 47.5662C46.4516 47.6515 46.3999 47.7289 46.3346 47.7942C46.2694 47.8594 46.1919 47.9112 46.1067 47.9465C46.0214 47.9818 45.93 48 45.8377 48H14.5404C14.4446 48.0036 14.349 47.9883 14.2591 47.9549C14.1691 47.9216 14.0867 47.8708 14.0164 47.8055C13.9461 47.7403 13.8894 47.6618 13.8495 47.5746C13.8095 47.4874 13.7872 47.3932 13.7837 47.2973Z" fill="#CCCCCC"/>
<path fill-rule="evenodd" clip-rule="evenodd" d="M10.1079 46.7568C10.1147 46.6856 10.1354 46.6166 10.1691 46.5535C10.2027 46.4905 10.2484 46.4347 10.3037 46.3895C10.359 46.3443 10.4227 46.3104 10.4912 46.29C10.5596 46.2695 10.6315 46.2628 10.7025 46.2703H49.7295C49.802 46.2549 49.8769 46.2559 49.9489 46.2732C50.021 46.2906 50.0882 46.3238 50.1457 46.3704C50.2033 46.417 50.2497 46.4759 50.2815 46.5427C50.3134 46.6096 50.33 46.6827 50.33 46.7568C50.33 46.8308 50.3134 46.9039 50.2815 46.9708C50.2497 47.0376 50.2033 47.0965 50.1457 47.1431C50.0882 47.1898 50.021 47.2229 49.9489 47.2403C49.8769 47.2576 49.802 47.2586 49.7295 47.2432H10.7025C10.6315 47.2507 10.5596 47.244 10.4912 47.2235C10.4227 47.2031 10.359 47.1693 10.3037 47.124C10.2484 47.0788 10.2027 47.023 10.1691 46.96C10.1354 46.897 10.1147 46.8279 10.1079 46.7568Z" fill="#364066"/>
<path d="M34.9623 13.4919H26.438V15.6973H34.9623V13.4919Z" fill="#F3ECE6"/>
<path d="M34.9623 14.0973H26.438V15.7027H34.9623V14.0973Z" fill="#DFCEBD"/>
<path d="M28.0757 13.5784L30.7027 12.6378L33.3297 13.5784H28.0757Z" fill="#F3ECE6"/>
<path d="M38.9242 14.4973H22.4756V25.7352H38.9242V14.4973Z" fill="#F3ECE6"/>
<path d="M38.9242 17.4378H22.4756V25.7297H38.9242V17.4378Z" fill="#DFCEBD"/>
<path d="M41.3352 18.1081H20.0703V25.7297H41.3352V18.1081Z" fill="#F3ECE6"/>
<path d="M41.3352 19.3135H20.0703V25.7352H41.3352V19.3135Z" fill="#DFCEBD"/>
<path d="M43.6111 20.6487H17.7949V25.7351H43.6111V20.6487Z" fill="#F3ECE6"/>
<path d="M43.6111 22.6541H17.7949V25.7297H43.6111V22.6541Z" fill="#DFCEBD"/>
<path d="M44.2432 25.3297V46.1946H34.1783C34.1783 44.6433 34.1783 43.2865 34.1783 42.0973C34.1783 37.3838 34.1783 35.2757 34.1783 34.2379C34.1783 34.1946 34.1783 34.1568 34.1783 34.1189C34.1711 33.8036 34.1294 33.49 34.054 33.1838C34.054 33.1351 34.027 33.0973 34.0162 33.0487C33.9699 32.8644 33.9103 32.6837 33.8378 32.5081V32.4595L33.7999 32.3838C33.7834 32.3426 33.7635 32.3028 33.7405 32.2649C33.7319 32.2422 33.721 32.2205 33.7081 32.2L33.5783 31.9676C33.5479 31.9515 33.5247 31.9245 33.5135 31.8919L33.4486 31.7946L33.3675 31.6811L33.281 31.5676L33.2378 31.5081C33.1595 31.4005 33.0688 31.3026 32.9675 31.2162L32.7945 31.0541C32.6797 30.9645 32.5587 30.8832 32.4324 30.8108C32.3913 30.7789 32.3479 30.75 32.3027 30.7243L32.2486 30.6973L32.1243 30.6324L32.0324 30.5892L31.8918 30.5135L31.6972 30.4433C31.634 30.4185 31.5689 30.3986 31.5027 30.3838C31.4371 30.3648 31.3702 30.3503 31.3027 30.3406L31.1783 30.3135C30.7492 30.221 30.303 30.2452 29.8864 30.3838L29.7243 30.4324C29.24 30.5989 28.7975 30.8681 28.427 31.2216L28.2648 31.3838H28.2324L28.1729 31.4595L28.0864 31.573C27.9921 31.6815 27.9088 31.7992 27.8378 31.9243C27.7647 32.047 27.698 32.1733 27.6378 32.3027C27.6054 32.3577 27.5782 32.4156 27.5567 32.4757C27.5324 32.5268 27.5107 32.5791 27.4918 32.6324L27.4216 32.8162C27.3989 32.8793 27.3826 32.9445 27.3729 33.0108C27.3571 33.0531 27.3445 33.0964 27.3351 33.1406C27.332 33.1711 27.332 33.2019 27.3351 33.2324V33.3243V33.3784C27.3351 33.3784 27.3351 33.3784 27.3351 33.4216C27.3351 33.4649 27.3351 33.4703 27.3351 33.4919V33.6703C27.3324 33.69 27.3324 33.71 27.3351 33.7297C27.3322 33.7657 27.3322 33.8019 27.3351 33.8378C27.3351 33.8811 27.3351 33.9297 27.3351 33.9784C27.3351 34.427 27.3351 35.0595 27.3351 36.0865C27.3351 36.8757 27.3351 37.8865 27.3351 39.2C27.3351 40.9243 27.3351 43.1784 27.3351 46.1297H17.1621V25.3297H44.2432Z" fill="#DFCEBD"/>
<path d="M27.8434 31.9514C27.7678 32.0735 27.6992 32.1998 27.638 32.3297L27.5569 32.5027C27.5326 32.5538 27.5109 32.6061 27.4921 32.6595C27.4921 32.7297 27.438 32.7892 27.4218 32.8432C27.3973 32.9061 27.3792 32.9713 27.3677 33.0378C27.3519 33.0801 27.3393 33.1234 27.3299 33.1676C27.3299 33.1676 27.3299 33.227 27.3299 33.2595V33.3514V33.4054C27.3299 33.4054 27.3299 33.4054 27.3299 33.4486C27.3299 33.4919 27.3299 33.4973 27.3299 33.5189V33.6973C27.3269 33.717 27.3269 33.737 27.3299 33.7568C27.3271 33.7927 27.3271 33.8289 27.3299 33.8649C27.3299 33.9081 27.3299 33.9568 27.3299 34.0054C27.2921 34.7946 27.2975 36.2162 27.3299 39.227C27.3299 40.9514 27.3299 43.2054 27.3299 46.1568H26.9299C26.9299 32.0108 26.8758 32.5568 27.0326 31.9135L27.8434 31.9514Z" fill="#B18A60"/>
<path d="M34.4757 31.9514H33.5568C33.5372 31.9359 33.5222 31.9153 33.5135 31.8919C33.4945 31.8579 33.4728 31.8253 33.4487 31.7946L33.3676 31.6811C33.3418 31.641 33.3129 31.6031 33.2811 31.5676L33.2379 31.5081C33.1533 31.4058 33.0631 31.3084 32.9676 31.2162C32.914 31.158 32.8562 31.1038 32.7946 31.0541C32.6798 30.9645 32.5588 30.8832 32.4325 30.8108C32.3914 30.7789 32.348 30.75 32.3027 30.7243L32.2487 30.6973L32.1244 30.6324L32.0325 30.5892L31.8919 30.5135L31.6973 30.4433L31.5027 30.3838L31.3027 30.3406C30.8335 30.2467 30.3491 30.2615 29.8865 30.3838L29.7244 30.4324C29.2368 30.5919 28.7928 30.862 28.4271 31.2216L28.2649 31.3838L28.173 31.4865L28.0865 31.6C27.9945 31.7104 27.9114 31.8279 27.8379 31.9514H26.9189C27.115 31.0949 27.5962 30.3305 28.2837 29.7835C28.9712 29.2365 29.8242 28.9392 30.7027 28.9406C31.7168 28.9435 32.6885 29.3478 33.4054 30.0649C33.722 30.3792 33.9834 30.7447 34.1784 31.146C34.3052 31.4034 34.4048 31.6733 34.4757 31.9514Z" fill="#A0703D"/>
<path d="M37.0543 27.2V46.1946H36.2489V28H25.1516V46.1946H24.3516V27.2H37.0543Z" fill="#D2BCA4"/>
<path d="M45.5785 23.5189L45.438 23.7946H15.9677L15.8271 23.5189H45.5785Z" fill="#F3ECE6"/>
<path d="M45.438 23.7946L45.0867 24.4595H16.3191L15.9678 23.7946H45.438Z" fill="#DFCEBD"/>
<path d="M45.0864 24.4595L44.5837 25.4216H16.8216L16.3188 24.4595H45.0864Z" fill="#C6A98B"/>
<path d="M26.8055 34.3243V34.9135H16.4866L16.292 34.3243H26.8055Z" fill="#F3ECE6"/>
<path d="M26.8057 34.9135V35.5135H16.6814L16.4868 34.9135H26.8057Z" fill="#C6A98B"/>
<path d="M26.8055 42.7514V43.3352H16.4866L16.292 42.7514H26.8055Z" fill="#F3ECE6"/>
<path d="M26.8057 43.3351V43.9351H16.6814L16.4868 43.3351H26.8057Z" fill="#C6A98B"/>
<path d="M26.8054 45.0216V45.6108H16.0811L16.0757 45.5892V45.0216H26.8054Z" fill="#F3ECE6"/>
<path d="M26.8108 45.6108H16.0757V46.1946H26.8108V45.6108Z" fill="#C6A98B"/>
<path d="M26.8055 32.4487V33.0379H16.4866L16.292 32.4487H26.8055Z" fill="#F3ECE6"/>
<path d="M26.8057 33.0378V33.6432H16.6814L16.4868 33.0378H26.8057Z" fill="#C6A98B"/>
<path d="M34.5786 34.3243V34.9081H44.9354L45.13 34.3243H34.5786Z" fill="#F3ECE6"/>
<path d="M34.5786 34.9081V35.5135H44.7408L44.9354 34.9081H34.5786Z" fill="#C6A98B"/>
<path d="M34.5786 42.7514V43.3352H44.9354L45.13 42.7514H34.5786Z" fill="#F3ECE6"/>
<path d="M34.5566 43.3351L34.5783 43.9406H44.7404L44.9134 43.3351H34.5566Z" fill="#C6A98B"/>
<path d="M45.3354 45.0216H34.5786V45.6108H45.3354V45.0216Z" fill="#F3ECE6"/>
<path d="M45.3354 45.6108H34.5786V46.1946H45.3354V45.6108Z" fill="#C6A98B"/>
<path d="M34.5786 32.4487V33.0379H44.9354L45.13 32.4487H34.5786Z" fill="#F3ECE6"/>
<path d="M34.5786 33.0378V33.6432H44.7408L44.9354 33.0378H34.5786Z" fill="#C6A98B"/>
<path d="M22.7784 28.8595C22.7774 29.15 22.6902 29.4338 22.528 29.6748C22.3658 29.9159 22.1358 30.1035 21.8671 30.214C21.5983 30.3244 21.3029 30.3528 21.018 30.2954C20.7332 30.2381 20.4717 30.0976 20.2666 29.8918C20.0615 29.686 19.922 29.424 19.8657 29.1389C19.8095 28.8539 19.8389 28.5585 19.9503 28.2902C20.0618 28.0218 20.2502 27.7925 20.4919 27.6312C20.7335 27.4699 21.0176 27.3838 21.3082 27.3838C21.5017 27.3838 21.6933 27.422 21.8721 27.4962C22.0508 27.5704 22.2131 27.6792 22.3497 27.8163C22.4863 27.9534 22.5945 28.1162 22.6681 28.2952C22.7416 28.4742 22.7791 28.6659 22.7784 28.8595Z" fill="#C6A98B"/>
<path d="M22.4327 28.8595C22.4317 29.0816 22.3648 29.2984 22.2406 29.4826C22.1164 29.6668 21.9405 29.8101 21.7349 29.8943C21.5294 29.9786 21.3035 30.0001 21.0858 29.9561C20.868 29.9121 20.6682 29.8046 20.5115 29.6472C20.3548 29.4897 20.2482 29.2894 20.2053 29.0714C20.1623 28.8535 20.1849 28.6277 20.2702 28.4226C20.3554 28.2174 20.4995 28.0422 20.6843 27.9189C20.8691 27.7955 21.0863 27.7297 21.3084 27.7297C21.4565 27.7297 21.6031 27.759 21.7399 27.8158C21.8767 27.8727 22.0009 27.956 22.1053 28.061C22.2098 28.1659 22.2925 28.2905 22.3487 28.4275C22.4049 28.5646 22.4334 28.7114 22.4327 28.8595Z" fill="#F3ECE6"/>
<path d="M42.2379 28.8595C42.2368 29.15 42.1497 29.4338 41.9875 29.6748C41.8253 29.9159 41.5953 30.1035 41.3265 30.214C41.0578 30.3244 40.7623 30.3528 40.4775 30.2954C40.1926 30.2381 39.9312 30.0976 39.7261 29.8918C39.521 29.686 39.3815 29.424 39.3252 29.1389C39.2689 28.8539 39.2984 28.5585 39.4098 28.2902C39.5212 28.0218 39.7097 27.7925 39.9514 27.6312C40.193 27.4699 40.4771 27.3838 40.7676 27.3838C40.9612 27.3838 41.1528 27.422 41.3315 27.4962C41.5103 27.5704 41.6726 27.6792 41.8092 27.8163C41.9458 27.9534 42.054 28.1162 42.1275 28.2952C42.2011 28.4742 42.2386 28.6659 42.2379 28.8595Z" fill="#C6A98B"/>
<path d="M41.8922 28.8595C41.8911 29.0816 41.8243 29.2984 41.7001 29.4826C41.5759 29.6668 41.3999 29.8101 41.1944 29.8943C40.9889 29.9786 40.763 30.0001 40.5452 29.9561C40.3275 29.9121 40.1277 29.8046 39.971 29.6472C39.8143 29.4897 39.7077 29.2894 39.6648 29.0714C39.6218 28.8535 39.6444 28.6277 39.7297 28.4226C39.8149 28.2174 39.959 28.0422 40.1438 27.9189C40.3286 27.7955 40.5457 27.7297 40.7679 27.7297C40.916 27.7297 41.0626 27.759 41.1994 27.8158C41.3361 27.8727 41.4603 27.956 41.5648 28.061C41.6693 28.1659 41.752 28.2905 41.8082 28.4275C41.8643 28.5646 41.8929 28.7114 41.8922 28.8595Z" fill="#F3ECE6"/>
<path d="M20.2378 25.1297H18.6973V25.8541H20.2378V25.1297Z" fill="#C6A98B"/>
<path d="M20.2378 24.6054H18.6973V25.1297H20.2378V24.6054Z" fill="#F3ECE6"/>
<path d="M23.4487 25.1297H21.9082V25.8541H23.4487V25.1297Z" fill="#C6A98B"/>
<path d="M23.4487 24.6054H21.9082V25.1297H23.4487V24.6054Z" fill="#F3ECE6"/>
<path d="M26.6597 25.1297H25.1191V25.8541H26.6597V25.1297Z" fill="#C6A98B"/>
<path d="M26.6597 24.6054H25.1191V25.1297H26.6597V24.6054Z" fill="#F3ECE6"/>
<path d="M29.8706 25.1297H28.3301V25.8541H29.8706V25.1297Z" fill="#C6A98B"/>
<path d="M29.8706 24.6054H28.3301V25.1297H29.8706V24.6054Z" fill="#F3ECE6"/>
<path d="M33.0757 25.1297H31.5352V25.8541H33.0757V25.1297Z" fill="#C6A98B"/>
<path d="M33.0757 24.6054H31.5352V25.1297H33.0757V24.6054Z" fill="#F3ECE6"/>
<path d="M36.2866 25.1297H34.7461V25.8541H36.2866V25.1297Z" fill="#C6A98B"/>
<path d="M36.2866 24.6054H34.7461V25.1297H36.2866V24.6054Z" fill="#F3ECE6"/>
<path d="M39.4976 25.1297H37.957V25.8541H39.4976V25.1297Z" fill="#C6A98B"/>
<path d="M39.4976 24.6054H37.957V25.1297H39.4976V24.6054Z" fill="#F3ECE6"/>
<path d="M42.708 25.1297H41.1675V25.8541H42.708V25.1297Z" fill="#C6A98B"/>
<path d="M42.708 24.6054H41.1675V25.1297H42.708V24.6054Z" fill="#F3ECE6"/>
<path d="M27.2165 16.2865C27.2165 16.5249 27.1458 16.758 27.0133 16.9562C26.8809 17.1544 26.6926 17.3089 26.4724 17.4001C26.2521 17.4914 26.0097 17.5152 25.7759 17.4687C25.5421 17.4222 25.3273 17.3074 25.1587 17.1388C24.9901 16.9703 24.8753 16.7555 24.8288 16.5217C24.7823 16.2878 24.8062 16.0455 24.8974 15.8252C24.9887 15.6049 25.1432 15.4167 25.3414 15.2842C25.5396 15.1518 25.7727 15.0811 26.0111 15.0811C26.3308 15.0811 26.6374 15.2081 26.8634 15.4341C27.0895 15.6602 27.2165 15.9668 27.2165 16.2865Z" fill="#DFCEBD"/>
<path d="M26.9351 16.2865C26.9361 16.4695 26.8828 16.6488 26.7819 16.8015C26.681 16.9542 26.537 17.0735 26.3682 17.1443C26.1994 17.2151 26.0134 17.2342 25.8337 17.1991C25.6541 17.1641 25.4889 17.0765 25.3591 16.9474C25.2293 16.8184 25.1407 16.6537 25.1046 16.4742C25.0685 16.2948 25.0865 16.1087 25.1563 15.9394C25.2261 15.7702 25.3445 15.6256 25.4967 15.5237C25.6488 15.4219 25.8277 15.3676 26.0107 15.3676C26.2549 15.3676 26.4892 15.4642 26.6624 15.6364C26.8356 15.8086 26.9336 16.0423 26.9351 16.2865Z" fill="#F3ECE6"/>
<path d="M36.5949 16.2865C36.5949 16.5249 36.5242 16.758 36.3917 16.9562C36.2593 17.1544 36.071 17.3089 35.8508 17.4001C35.6305 17.4914 35.3882 17.5152 35.1543 17.4687C34.9205 17.4222 34.7057 17.3074 34.5371 17.1388C34.3686 16.9703 34.2538 16.7555 34.2072 16.5217C34.1607 16.2878 34.1846 16.0455 34.2758 15.8252C34.3671 15.6049 34.5216 15.4167 34.7198 15.2842C34.918 15.1518 35.1511 15.0811 35.3895 15.0811C35.7092 15.0811 36.0158 15.2081 36.2418 15.4341C36.4679 15.6602 36.5949 15.9668 36.5949 16.2865Z" fill="#DFCEBD"/>
<path d="M36.3081 16.2865C36.3081 16.4682 36.2542 16.6459 36.1532 16.797C36.0522 16.9481 35.9087 17.0659 35.7408 17.1355C35.5729 17.205 35.3881 17.2232 35.2099 17.1878C35.0316 17.1523 34.8679 17.0648 34.7394 16.9363C34.6108 16.8078 34.5233 16.644 34.4879 16.4658C34.4524 16.2875 34.4706 16.1028 34.5402 15.9348C34.6097 15.7669 34.7275 15.6234 34.8786 15.5224C35.0297 15.4215 35.2074 15.3676 35.3891 15.3676C35.6328 15.3676 35.8666 15.4644 36.0389 15.6367C36.2112 15.8091 36.3081 16.0428 36.3081 16.2865Z" fill="#F3ECE6"/>
<path d="M33.8273 15.2108H27.5732V17.0919H33.8273V15.2108Z" fill="#C6A98B"/>
<path d="M33.5785 15.3513H27.8271V16.8216H33.5785V15.3513Z" fill="#DFCEBD"/>
<defs>
<linearGradient id="paint0_linear_187_2047" x1="30" y1="4.13793e-06" x2="30" y2="60" gradientUnits="userSpaceOnUse">
<stop stop-color="#8AA3E7"/>
<stop offset="1" stop-color="#B9B0E2"/>
</linearGradient>
</defs>
</svg>
