<svg width="28" height="15" viewBox="0 0 28 15" fill="none" xmlns="http://www.w3.org/2000/svg">
<path d="M26.9173 0.966003H20.3591C20.2113 0.966003 20.0916 1.08151 20.0916 1.224V5.688C20.0916 5.83049 20.2113 5.946 20.3591 5.946H26.9173C27.0651 5.946 27.1849 5.83049 27.1849 5.688V1.224C27.1849 1.08151 27.0651 0.966003 26.9173 0.966003Z" fill="#0094FF"/>
<path d="M5.25791 5.39999C4.41019 5.39999 3.59701 5.72389 2.99642 6.30079C2.39582 6.87768 2.05676 7.66056 2.05347 8.47799C2.05347 10.188 5.25791 13.848 5.25791 13.848C5.25791 13.848 8.46236 10.2 8.46236 8.47799C8.45906 7.66056 8.12 6.87768 7.51941 6.30079C6.91881 5.72389 6.10563 5.39999 5.25791 5.39999Z" fill="#0094FF"/>
<path d="M12.2084 13.052H12.1584H12.1582C10.784 13.052 9.21046 13.052 7.41312 13.0101C7.38796 13.0127 7.36249 13.0106 7.33814 13.0037C7.3125 12.9965 7.28859 12.9841 7.268 12.9673C7.2474 12.9505 7.23054 12.9296 7.21862 12.9059C7.2067 12.8822 7.20001 12.8563 7.19906 12.8298L7.19869 12.8197L7.19968 12.8199C7.20381 12.7948 7.2131 12.7708 7.22693 12.7494C7.24075 12.7281 7.25881 12.7097 7.27994 12.6953C7.30107 12.681 7.32487 12.671 7.34992 12.6657C7.37352 12.6608 7.39783 12.6603 7.42161 12.6641C12.7705 12.742 16.1274 12.7059 18.2712 12.5501L18.2714 12.5501C19.502 12.467 20.4678 11.7038 20.5459 10.7959C20.6297 9.75589 19.6016 8.8392 18.2101 8.76793L12.2084 13.052ZM12.2084 13.052V13.022C14.9144 13.0213 16.8729 12.9674 18.3155 12.8659C19.1192 12.8142 19.8194 12.5102 20.3014 12.0645C20.7836 11.6186 21.0489 11.0291 20.9751 10.4101L20.9751 10.4101C20.8405 9.28513 19.673 8.42278 18.24 8.35005L18.2396 8.35004C16.8975 8.29299 15.7128 8.20598 14.8772 7.93837C14.4598 7.80471 14.1347 7.62751 13.9205 7.39105C13.7079 7.15628 13.6013 6.85942 13.6269 6.47733L13.6271 6.47734L13.627 6.47338C13.6242 6.24302 13.6828 6.01572 13.7972 5.81323C13.9117 5.61072 14.0783 5.43972 14.2812 5.31675L14.2812 5.31681L14.2833 5.31536C14.6538 5.06398 15.1484 4.89135 15.686 4.7747C16.2229 4.65817 16.7993 4.59821 17.3309 4.57017C18.2861 4.51978 19.0864 4.57242 19.2606 4.58389C19.274 4.58477 19.2837 4.5854 19.2894 4.58573C19.3407 4.59431 19.3936 4.58425 19.438 4.55718C19.4833 4.52952 19.5164 4.48599 19.5302 4.43501L19.5322 4.42761L19.5319 4.41996C19.5298 4.36911 19.5079 4.32126 19.4712 4.28582C19.4345 4.25042 19.3856 4.22996 19.3345 4.22803L19.3326 4.27799M12.2084 13.052L18.21 8.76792L18.1932 8.76708C17.0638 8.7104 15.7906 8.6465 14.8129 8.34426C14.3212 8.19226 13.8991 7.97853 13.6071 7.67071C13.3136 7.36139 13.1547 6.96024 13.1848 6.44198C13.1913 6.161 13.2696 5.88601 13.4127 5.6414C13.5556 5.39688 13.7589 5.19036 14.0041 5.03997C14.8284 4.48014 16.1282 4.27608 17.232 4.21158C18.3317 4.14731 19.2488 4.22109 19.335 4.22802L19.3366 4.22815L19.3326 4.27799M19.3326 4.27799C19.3717 4.27947 19.4088 4.29512 19.4365 4.32181C19.4642 4.3485 19.4804 4.38427 19.4819 4.42199L18.1999 8.71735C15.9309 8.60347 13.1168 8.46222 13.2348 6.44399C13.241 6.17127 13.3169 5.90425 13.4558 5.66664C13.5948 5.42903 13.7924 5.2282 14.0312 5.08199C15.6498 3.9817 19.1595 4.26407 19.331 4.27786L19.3326 4.27799Z" fill="white" stroke="white" stroke-width="0.1"/>
<path d="M5.13337 13.944C4.97781 13.8 1.8667 10.2 1.8667 8.47798V8.39998C1.87495 7.53908 2.23752 6.71661 2.87464 6.11349C3.19011 5.81486 3.56349 5.57907 3.97347 5.41958C4.38344 5.2601 4.82197 5.18004 5.26403 5.18398C5.70609 5.18792 6.14302 5.27578 6.54986 5.44254C6.95671 5.60931 7.32551 5.85172 7.6352 6.15592C7.94489 6.46013 8.18942 6.82017 8.35481 7.2155C8.52021 7.61083 8.60323 8.03371 8.59914 8.45998C8.59914 10.206 5.48803 13.776 5.35737 13.926C5.34288 13.9446 5.32409 13.9597 5.30249 13.9701C5.28089 13.9806 5.25707 13.986 5.23292 13.986C5.20877 13.986 5.18495 13.9806 5.16336 13.9701C5.14176 13.9597 5.12297 13.9446 5.10848 13.926L5.13337 13.944ZM2.21514 8.47798C2.21514 9.92398 4.70403 12.906 5.25781 13.602C5.8427 12.912 8.30048 9.92398 8.30048 8.47798C8.30048 7.69983 7.97991 6.95356 7.4093 6.40333C6.83869 5.85309 6.06478 5.54398 5.25781 5.54398C4.45084 5.54398 3.67693 5.85309 3.10632 6.40333C2.53571 6.95356 2.21514 7.69983 2.21514 8.47798V8.47798Z" fill="white"/>
<path d="M5.25777 10.302C6.30244 10.302 7.14932 9.48536 7.14932 8.47799C7.14932 7.47062 6.30244 6.65399 5.25777 6.65399C4.21309 6.65399 3.36621 7.47062 3.36621 8.47799C3.36621 9.48536 4.21309 10.302 5.25777 10.302Z" fill="white"/>
<path d="M3.20435 8.47799C3.20435 8.08638 3.32477 7.70357 3.55039 7.37796C3.77602 7.05235 4.0967 6.79857 4.4719 6.64871C4.8471 6.49884 5.25996 6.45963 5.65826 6.53603C6.05657 6.61243 6.42244 6.80101 6.7096 7.07792C6.99677 7.35482 7.19233 7.70763 7.27156 8.09171C7.35079 8.47579 7.31012 8.8739 7.15471 9.2357C6.9993 9.5975 6.73612 9.90673 6.39845 10.1243C6.06078 10.3419 5.66379 10.458 5.25768 10.458C4.7131 10.458 4.19083 10.2494 3.80575 9.87806C3.42068 9.50674 3.20435 9.00312 3.20435 8.47799V8.47799ZM3.5279 8.47799C3.5279 8.80789 3.62935 9.13038 3.81942 9.40468C4.00949 9.67898 4.27965 9.89277 4.59572 10.019C4.9118 10.1453 5.2596 10.1783 5.59514 10.1139C5.93069 10.0496 6.2389 9.89071 6.48082 9.65744C6.72273 9.42417 6.88748 9.12696 6.95422 8.8034C7.02096 8.47984 6.98671 8.14446 6.85579 7.83967C6.72486 7.53488 6.50315 7.27438 6.21869 7.0911C5.93423 6.90781 5.5998 6.80999 5.25768 6.80999C5.03029 6.80919 4.80499 6.8518 4.59475 6.93534C4.38451 7.01888 4.1935 7.14172 4.03271 7.29676C3.87192 7.45181 3.74454 7.636 3.6579 7.83873C3.57126 8.04146 3.52708 8.25872 3.5279 8.47799V8.47799Z" fill="white"/>
<path d="M2.42667 12.102L2.352 12C2.34293 11.9858 2.33687 11.9701 2.33415 11.9536C2.33143 11.9372 2.33212 11.9204 2.33617 11.9042C2.34022 11.8881 2.34755 11.8728 2.35774 11.8594C2.36794 11.8459 2.38079 11.8346 2.39556 11.826C2.40958 11.8161 2.42559 11.8092 2.44255 11.8057C2.45951 11.8022 2.47705 11.8021 2.49404 11.8055C2.51104 11.8089 2.5271 11.8156 2.54122 11.8254C2.55533 11.8351 2.56718 11.8476 2.576 11.862L2.65067 11.97C2.65707 11.9916 2.65707 12.0144 2.65067 12.036C2.65151 12.053 2.64875 12.0701 2.64257 12.086C2.63638 12.102 2.62689 12.1166 2.61467 12.129C2.60245 12.1413 2.58776 12.1512 2.57149 12.1579C2.55521 12.1646 2.5377 12.168 2.52 12.168C2.50039 12.1642 2.48187 12.1564 2.46574 12.145C2.44962 12.1336 2.43628 12.1189 2.42667 12.102Z" fill="white"/>
<path d="M1.99735 11.184C1.97083 11.1815 1.94527 11.1732 1.92262 11.1596C1.89996 11.1461 1.88083 11.1278 1.86668 11.106C1.42405 10.4071 1.11627 9.63665 0.958238 8.832V8.832C0.954707 8.81148 0.955465 8.79049 0.960469 8.77026C0.965472 8.75003 0.97462 8.73097 0.987374 8.7142C1.00013 8.69743 1.01623 8.68329 1.03474 8.67261C1.05324 8.66192 1.07377 8.65492 1.09513 8.652C1.1164 8.64949 1.13797 8.65109 1.15859 8.65669C1.17922 8.66229 1.19848 8.67178 1.21527 8.68462C1.23206 8.69746 1.24603 8.71339 1.25638 8.73148C1.26673 8.74957 1.27326 8.76946 1.27557 8.79C1.43347 9.5543 1.73051 10.2856 2.1529 10.95C2.15925 10.9756 2.15925 11.0024 2.1529 11.028C2.1529 11.0485 2.14872 11.0688 2.14059 11.0877C2.13246 11.1066 2.12054 11.1238 2.10552 11.1383C2.0905 11.1528 2.07266 11.1643 2.05304 11.1721C2.03341 11.18 2.01237 11.184 1.99113 11.184H1.99735Z" fill="white"/>
<path d="M20.3965 0.425987C20.413 0.432645 20.4264 0.444783 20.4344 0.460196C20.4424 0.47561 20.4444 0.493276 20.44 0.509987V0.539987L20.3591 0.599987C20.3445 0.609794 20.3272 0.615052 20.3094 0.615052C20.2916 0.615052 20.2742 0.609794 20.2596 0.599987C20.2478 0.587769 20.2412 0.571688 20.2412 0.554987C20.2412 0.538285 20.2478 0.522204 20.2596 0.509987V0.509987L20.3156 0.473987C20.3169 0.465369 20.3202 0.45714 20.3252 0.449872C20.3302 0.442605 20.3368 0.436473 20.3445 0.431905C20.3522 0.427336 20.3608 0.42444 20.3698 0.423418C20.3788 0.422396 20.3879 0.423272 20.3965 0.425987V0.425987Z" fill="white"/>
<path d="M20.0854 0.659991C20.1065 0.666876 20.124 0.681281 20.1344 0.700249C20.1448 0.719217 20.1473 0.741309 20.1414 0.761991C20.1414 0.761991 20.1414 0.761991 20.1414 0.797991C19.7989 1.02232 19.5016 1.30493 19.2641 1.63199C19.2565 1.6398 19.2473 1.64603 19.2372 1.65029C19.227 1.65455 19.216 1.65675 19.2049 1.65675C19.1939 1.65675 19.1829 1.65455 19.1727 1.65029C19.1626 1.64603 19.1534 1.6398 19.1458 1.63199C19.1267 1.6218 19.1122 1.60503 19.1053 1.58502C19.0984 1.56501 19.0995 1.54323 19.1085 1.52399V1.52399C19.3554 1.17688 19.6678 0.87767 20.0294 0.641991C20.0426 0.634619 20.0577 0.630737 20.0729 0.630737C20.0882 0.630737 20.1033 0.634619 20.1165 0.641991L20.0854 0.659991Z" fill="white"/>
<path d="M26.5441 1.23599H20.7325C20.5882 1.23599 20.4712 1.34882 20.4712 1.48799V5.42999C20.4712 5.56917 20.5882 5.68199 20.7325 5.68199H26.5441C26.6884 5.68199 26.8054 5.56917 26.8054 5.42999V1.48799C26.8054 1.34882 26.6884 1.23599 26.5441 1.23599Z" fill="#F4F4F4"/>
<path opacity="0.2" d="M20.4773 1.48199V5.51999C20.4773 5.51999 20.5271 5.77199 20.8755 5.68199V2.04599C20.8802 1.98243 20.8997 1.9207 20.9324 1.86535C20.9652 1.81 21.0104 1.76244 21.0647 1.72617C21.119 1.68989 21.1811 1.66584 21.2464 1.65577C21.3116 1.6457 21.3784 1.64988 21.4417 1.66799H26.8115C26.8115 1.66799 27.0542 1.10399 26.2951 1.23599H20.7511C20.7511 1.23599 20.5831 1.19999 20.4773 1.48199Z" fill="#CFD1D1"/>
<g opacity="0.8">
<path d="M25.0383 3.828H25.5858C25.6168 3.828 25.6418 3.80383 25.6418 3.774C25.6418 3.74418 25.6168 3.72 25.5858 3.72H25.0383C25.0074 3.72 24.9823 3.74418 24.9823 3.774C24.9823 3.80383 25.0074 3.828 25.0383 3.828Z" fill="#0094FF"/>
<path d="M25.872 3.828H26.0152C26.0358 3.828 26.0525 3.81189 26.0525 3.792V3.756C26.0525 3.73612 26.0358 3.72 26.0152 3.72H25.872C25.8514 3.72 25.8347 3.73612 25.8347 3.756V3.792C25.8347 3.81189 25.8514 3.828 25.872 3.828Z" fill="#0094FF"/>
<path d="M23.744 3.828H24.7333C24.7642 3.828 24.7893 3.80383 24.7893 3.774C24.7893 3.74418 24.7642 3.72 24.7333 3.72H23.744C23.713 3.72 23.688 3.74418 23.688 3.774C23.688 3.80383 23.713 3.828 23.744 3.828Z" fill="#0094FF"/>
<path d="M21.3172 3.828L23.4079 3.828C23.4388 3.828 23.4639 3.80383 23.4639 3.774C23.4639 3.74418 23.4388 3.72 23.4079 3.72L21.3172 3.72C21.2863 3.72 21.2612 3.74418 21.2612 3.774C21.2612 3.80383 21.2863 3.828 21.3172 3.828Z" fill="#0094FF"/>
<path d="M25.0072 4.04999H25.9965C26.0274 4.04999 26.0525 4.02581 26.0525 3.99599C26.0525 3.96616 26.0274 3.94199 25.9965 3.94199H25.0072C24.9762 3.94199 24.9512 3.96616 24.9512 3.99599C24.9512 4.02581 24.9762 4.04999 25.0072 4.04999Z" fill="#0094FF"/>
<path d="M24.3164 4.04999H24.7582C24.7891 4.04999 24.8142 4.02581 24.8142 3.99599C24.8142 3.96616 24.7891 3.94199 24.7582 3.94199H24.3164C24.2855 3.94199 24.2604 3.96616 24.2604 3.99599C24.2604 4.02581 24.2855 4.04999 24.3164 4.04999Z" fill="#0094FF"/>
<path d="M23.52 4.04999H24.0675C24.0985 4.04999 24.1235 4.02581 24.1235 3.99599C24.1235 3.96616 24.0985 3.94199 24.0675 3.94199H23.52C23.4891 3.94199 23.464 3.96616 23.464 3.99599C23.464 4.02581 23.4891 4.04999 23.52 4.04999Z" fill="#0094FF"/>
<path d="M21.2115 4.04999H23.3022C23.3331 4.04999 23.3582 4.02581 23.3582 3.99599C23.3582 3.96616 23.3331 3.94199 23.3022 3.94199L21.2115 3.94199C21.1806 3.94199 21.1555 3.96616 21.1555 3.99599C21.1555 4.02581 21.1806 4.04999 21.2115 4.04999Z" fill="#0094FF"/>
<path d="M22.3003 4.17001H21.7528C21.7218 4.17001 21.6968 4.19419 21.6968 4.22401C21.6968 4.25384 21.7218 4.27801 21.7528 4.27801H22.3003C22.3313 4.27801 22.3563 4.25384 22.3563 4.22401C22.3563 4.19419 22.3313 4.17001 22.3003 4.17001Z" fill="#0094FF"/>
<path d="M21.4666 4.17001H21.3235C21.3028 4.17001 21.2861 4.18613 21.2861 4.20601V4.24201C21.2861 4.2619 21.3028 4.27801 21.3235 4.27801H21.4666C21.4872 4.27801 21.5039 4.2619 21.5039 4.24201V4.20601C21.5039 4.18613 21.4872 4.17001 21.4666 4.17001Z" fill="#0094FF"/>
<path d="M23.5946 4.17001H22.6053C22.5744 4.17001 22.5493 4.19419 22.5493 4.22401C22.5493 4.25384 22.5744 4.27801 22.6053 4.27801H23.5946C23.6256 4.27801 23.6507 4.25384 23.6507 4.22401C23.6507 4.19419 23.6256 4.17001 23.5946 4.17001Z" fill="#0094FF"/>
<path d="M26.0212 4.17001H23.9305C23.8996 4.17001 23.8745 4.19419 23.8745 4.22401C23.8745 4.25384 23.8996 4.27801 23.9305 4.27801H26.0212C26.0521 4.27801 26.0772 4.25384 26.0772 4.22401C26.0772 4.19419 26.0521 4.17001 26.0212 4.17001Z" fill="#0094FF"/>
</g>
<path d="M22.499 2.875H22.3013L22.6025 2.00227H22.8403L23.1412 2.875H22.9434L22.7248 2.2017H22.718L22.499 2.875ZM22.4866 2.53196H22.9537V2.67599H22.4866V2.53196ZM23.5346 2.57159H23.6914L23.7703 2.67301L23.8478 2.76335L23.994 2.94659H23.8218L23.7212 2.82301L23.6697 2.74972L23.5346 2.57159ZM24.0072 2.43864C24.0072 2.53381 23.9891 2.61477 23.9531 2.68153C23.9173 2.7483 23.8684 2.79929 23.8065 2.83452C23.7448 2.86946 23.6755 2.88693 23.5985 2.88693C23.521 2.88693 23.4514 2.86932 23.3897 2.83409C23.3281 2.79886 23.2793 2.74787 23.2436 2.68111C23.2078 2.61435 23.1899 2.53352 23.1899 2.43864C23.1899 2.34347 23.2078 2.2625 23.2436 2.19574C23.2793 2.12898 23.3281 2.07812 23.3897 2.04318C23.4514 2.00795 23.521 1.99034 23.5985 1.99034C23.6755 1.99034 23.7448 2.00795 23.8065 2.04318C23.8684 2.07812 23.9173 2.12898 23.9531 2.19574C23.9891 2.2625 24.0072 2.34347 24.0072 2.43864ZM23.8201 2.43864C23.8201 2.37699 23.8109 2.325 23.7924 2.28267C23.7742 2.24034 23.7485 2.20824 23.7153 2.18636C23.682 2.16449 23.6431 2.15355 23.5985 2.15355C23.5539 2.15355 23.515 2.16449 23.4818 2.18636C23.4485 2.20824 23.4227 2.24034 23.4042 2.28267C23.386 2.325 23.3769 2.37699 23.3769 2.43864C23.3769 2.50028 23.386 2.55227 23.4042 2.5946C23.4227 2.63693 23.4485 2.66903 23.4818 2.69091C23.515 2.71278 23.5539 2.72372 23.5985 2.72372C23.6431 2.72372 23.682 2.71278 23.7153 2.69091C23.7485 2.66903 23.7742 2.63693 23.7924 2.5946C23.8109 2.55227 23.8201 2.50028 23.8201 2.43864ZM24.3284 2.00227V2.875H24.1439V2.00227H24.3284Z" fill="#0094FF"/>
<path opacity="0.8" d="M22.2631 4.866H21.3983C21.3398 4.866 21.2925 4.91166 21.2925 4.968V4.986C21.2925 5.04233 21.3398 5.088 21.3983 5.088H22.2631C22.3216 5.088 22.3689 5.04233 22.3689 4.986V4.968C22.3689 4.91166 22.3216 4.866 22.2631 4.866Z" fill="#0094FF"/>
<path opacity="0.8" d="M23.5883 4.866H22.7235C22.665 4.866 22.6177 4.91166 22.6177 4.968V4.986C22.6177 5.04233 22.665 5.088 22.7235 5.088H23.5883C23.6468 5.088 23.6941 5.04233 23.6941 4.986V4.968C23.6941 4.91166 23.6468 4.866 23.5883 4.866Z" fill="#0094FF"/>
<path opacity="0.8" d="M24.9199 4.866H24.055C23.9966 4.866 23.9492 4.91166 23.9492 4.968V4.986C23.9492 5.04233 23.9966 5.088 24.055 5.088H24.9199C24.9783 5.088 25.0257 5.04233 25.0257 4.986V4.968C25.0257 4.91166 24.9783 4.866 24.9199 4.866Z" fill="#0094FF"/>
<path opacity="0.8" d="M26.2268 4.866H25.3619C25.3035 4.866 25.2561 4.91166 25.2561 4.968V4.986C25.2561 5.04233 25.3035 5.088 25.3619 5.088H26.2268C26.2852 5.088 26.3325 5.04233 26.3325 4.986V4.968C26.3325 4.91166 26.2852 4.866 26.2268 4.866Z" fill="#0094FF"/>
</svg>
