<svg width="20" height="20" viewBox="0 0 20 20" fill="none" xmlns="http://www.w3.org/2000/svg">
<g clip-path="url(#clip0_187_4103)">
<path d="M9.37606 0H10.6286C10.9632 0.0432292 11.2993 0.0744794 11.6312 0.13125C13.5033 0.45 15.1677 1.22135 16.5857 2.4849C18.7667 4.42917 19.9165 6.87188 19.9984 9.79531C20.0506 11.6859 19.5913 13.4609 18.6076 15.0786C17.0246 17.6828 14.7282 19.2812 11.7262 19.8469C11.3609 19.9151 10.9955 19.951 10.6302 20H9.37763C9.32846 19.986 9.27843 19.9752 9.22784 19.9677C7.20075 19.8057 5.38295 19.0995 3.80001 17.8292C1.82667 16.25 0.603846 14.2125 0.152918 11.7229C0.0871581 11.3583 0.0485374 10.9911 0 10.625V9.375C0.0438402 9.04062 0.0761978 8.70469 0.133086 8.37292C0.486417 6.29271 1.39923 4.49271 2.88093 2.99115C4.37724 1.47448 6.17729 0.520833 8.27849 0.15625C8.64226 0.0895833 9.0102 0.0520833 9.37606 0ZM19.1712 10C19.1712 4.95469 15.0481 0.830208 10.0008 0.833333C4.95342 0.836458 0.830877 4.95521 0.830877 10C0.830877 15.0448 4.95812 19.1703 10.0013 19.1698C15.0445 19.1693 19.1717 15.0437 19.1712 10Z" fill="#18B411"/>
<path d="M10.0114 11.6698C12.2183 11.6698 14.4253 11.671 16.6323 11.6734C16.7667 11.6708 16.8998 11.7001 17.0206 11.7589C17.1881 11.8495 17.2293 12.0432 17.1547 12.2599C16.3196 14.7276 14.6736 16.4057 12.1814 17.1724C8.25932 18.3787 4.15869 16.226 2.87062 12.3333C2.7271 11.8984 2.8915 11.6703 3.35287 11.6703L10.0114 11.6698ZM16.162 12.512H3.83772C4.66285 14.6818 6.94515 16.6828 10.0328 16.6651C13.2806 16.6464 15.4329 14.4755 16.162 12.512V12.512Z" fill="#18B411"/>
<path d="M7.5001 7.50004C7.49897 7.82843 7.40031 8.14912 7.2166 8.42157C7.03289 8.69402 6.77237 8.90601 6.46797 9.03075C6.16357 9.1555 5.82894 9.18739 5.50638 9.1224C5.18382 9.05741 4.8878 8.89847 4.65574 8.66564C4.42367 8.43282 4.26597 8.13656 4.20257 7.81433C4.13917 7.49209 4.17291 7.15832 4.29953 6.85522C4.42615 6.55211 4.63996 6.29326 4.91395 6.11138C5.18794 5.9295 5.5098 5.83276 5.83887 5.83338C6.27963 5.83775 6.70097 6.01503 7.01182 6.3269C7.32267 6.63876 7.49807 7.06017 7.5001 7.50004V7.50004ZM5.84513 8.32869C6.00921 8.32631 6.16889 8.27548 6.30404 8.1826C6.43918 8.08973 6.54372 7.95897 6.60446 7.80685C6.6652 7.65473 6.67941 7.48806 6.6453 7.32789C6.61119 7.16771 6.53029 7.02121 6.41282 6.90689C6.29534 6.79256 6.14656 6.71553 5.98525 6.68552C5.82394 6.65551 5.65733 6.67387 5.50647 6.73828C5.35561 6.80269 5.22725 6.91026 5.1376 7.04742C5.04796 7.18457 5.00104 7.34516 5.00277 7.5089C5.00566 7.72904 5.09601 7.93904 5.25395 8.09276C5.4119 8.24647 5.62453 8.33133 5.84513 8.32869V8.32869Z" fill="#18B411"/>
<path d="M15.8301 7.49319C15.8319 7.93307 15.6594 8.35583 15.3502 8.66931C15.041 8.98278 14.6201 9.16155 14.1793 9.16663C13.2722 9.17705 12.5092 8.42444 12.5019 7.51455C12.4968 7.29421 12.5357 7.07506 12.6163 6.86986C12.6969 6.66466 12.8176 6.47753 12.9714 6.31935C13.1252 6.16118 13.309 6.03514 13.5121 5.94856C13.7152 5.86199 13.9335 5.81662 14.1543 5.8151C14.3752 5.81358 14.5941 5.85594 14.7984 5.93971C15.0027 6.02347 15.1882 6.14698 15.3442 6.30302C15.5002 6.45906 15.6234 6.64451 15.7069 6.84858C15.7903 7.05265 15.8322 7.27124 15.8301 7.49163V7.49319ZM14.16 8.32913C14.3242 8.32974 14.4848 8.28181 14.6217 8.1914C14.7586 8.10098 14.8656 7.97213 14.9291 7.8211C14.9927 7.67007 15.01 7.50363 14.9789 7.34279C14.9478 7.18194 14.8696 7.0339 14.7543 6.91734C14.639 6.80079 14.4916 6.72094 14.3308 6.68787C14.1701 6.6548 14.0031 6.67 13.8509 6.73155C13.6988 6.7931 13.5684 6.89823 13.4761 7.03369C13.3837 7.16915 13.3337 7.32886 13.3323 7.49267C13.3314 7.60198 13.3521 7.71038 13.3934 7.81166C13.4346 7.91293 13.4954 8.00508 13.5724 8.08281C13.6495 8.16054 13.7411 8.22231 13.8421 8.26458C13.9431 8.30685 14.0515 8.32879 14.1611 8.32913H14.16Z" fill="#18B411"/>
</g>
<defs>
<clipPath id="clip0_187_4103">
<rect width="20" height="20" fill="white"/>
</clipPath>
</defs>
</svg>
