<svg width="13" height="12" viewBox="0 0 13 12" fill="none" xmlns="http://www.w3.org/2000/svg">
<g clip-path="url(#clip0_187_3471)">
<path d="M5.83674 1.35631C5.83674 1.05834 5.83674 0.756504 5.83674 0.454669C5.83674 0.152834 5.94284 0.00550434 6.15947 -1.36647e-05C6.3761 -0.00553167 6.49657 0.153386 6.49767 0.466809C6.49767 0.759815 6.49767 1.05282 6.49767 1.35521C8.97837 1.74147 10.4157 3.16401 10.8158 5.66973C11.1187 5.66973 11.4364 5.66973 11.7553 5.66973C12.0272 5.66973 12.1758 5.79058 12.1764 5.99805C12.1769 6.20553 12.0266 6.32582 11.7575 6.32913C11.4458 6.33244 11.1341 6.32913 10.818 6.32913C10.4312 8.81224 9.00435 10.2469 6.49933 10.6415C6.49933 10.9295 6.49933 11.2297 6.49933 11.5299C6.49933 11.8438 6.38328 12.0027 6.16279 11.9983C5.94229 11.9939 5.83951 11.8433 5.8384 11.5177C5.8384 11.2253 5.8384 10.9323 5.8384 10.642C3.34609 10.2508 1.91482 8.82437 1.51748 6.32913C1.20802 6.32913 0.8875 6.32913 0.566982 6.32913C0.305594 6.32582 0.143124 6.19063 0.163018 5.98647C0.186228 5.74919 0.343725 5.66642 0.566429 5.66863C0.886948 5.67194 1.20747 5.66863 1.51748 5.66863C1.91095 3.17449 3.34278 1.74699 5.83674 1.35631ZM6.15173 2.03171C3.9805 2.03171 2.19555 3.82396 2.1972 6.00468C2.1972 8.1716 3.97718 9.95943 6.13681 9.96384C8.34231 9.96881 10.1322 8.19808 10.1367 6.00964C10.1405 3.83058 8.34065 2.03227 6.15173 2.03171Z" fill="#0094FF"/>
<path d="M2.83943 5.98759C2.85214 4.12195 4.34144 2.63209 6.18277 2.64313C8.00972 2.65416 9.53494 4.19313 9.52279 6.01297C9.51063 7.85102 7.9948 9.35854 6.18166 9.33536C4.30939 9.31163 2.82727 7.82674 2.83943 5.98759Z" fill="#0094FF"/>
</g>
<defs>
<clipPath id="clip0_187_3471">
<rect width="12.0167" height="12" fill="white" transform="translate(0.159668)"/>
</clipPath>
</defs>
</svg>
