<svg width="731" height="124" viewBox="0 0 731 124" fill="none" xmlns="http://www.w3.org/2000/svg">
<g clip-path="url(#clip0_187_1003)">
<path d="M730.75 102.09C730.782 102.974 730.698 103.858 730.5 104.72C729.83 105.72 728.89 105.49 727.96 105.28C705.8 99.28 683.45 93.19 660.37 92.28C639 91 617 90.47 595.87 94.24C593.635 95.0061 591.336 95.5717 589 95.93C566.06 91.19 541 89.59 516.6 90.32C498.419 90.9247 480.539 95.1362 464 102.71C452.55 107.92 441 113.06 428.52 114.57C429.03 114.73 429.52 114.89 430.07 115.03C429.86 115.03 429.65 115.03 429.44 114.95C403 105.29 375.52 97.79 347.3 96.37C332.87 95.15 318.43 96.22 304.07 97.81C296.44 98.56 289.18 101.19 281.56 101.69C267.17 100.77 253.15 97.02 238.79 96C215.69 94.08 192.63 97.35 170.12 102C164.27 103.17 158.37 104.36 153.07 107.35C139.64 111.59 126.51 117.23 112.41 119.27C84.51 125.21 57.32 113.52 30.74 106.61C23.96 104.88 17.15 103.04 10.08 102.5C7.78003 102.32 5.47003 102.07 3.17003 101.9C1.29003 101.71 -9.46997 100.72 -9.46997 98.7C-9.46997 85.9666 -9.46997 73.2367 -9.46997 60.51C-9.46997 59.77 0.76003 58.94 0.0400295 58.34C0.0133629 39.5733 0.0400295 18.7933 0.0400295 -1.01328e-05C240.8 -4.40001 660.37 -1.66893e-05 730.58 5.126e-06C731.05 33.77 730.59 68.26 730.75 102.09Z" fill="#18B311"/>
<path opacity="0.5" d="M591.72 96.5C591.05 95.85 590.05 96.07 589.32 95.57C607.61 89.33 627.53 91.23 646.56 90.92C675.13 90.68 702.86 97.84 730.23 104.84C730 108.04 732.02 121.16 729.07 121.84C722.744 122.617 716.373 122.972 710 122.9C668.28 125.13 631 106.59 591.72 96.5Z" fill="#18B311"/>
<path opacity="0.5" d="M429.46 114.45C429 114.8 428.33 114.84 428.05 115.45C369.19 130.33 335.63 118.73 281.54 101.2C330.71 89.54 382.84 95.56 429.46 114.45Z" fill="#18B311"/>
<path opacity="0.2" d="M281.54 101.19L281.91 101.81C266.91 101.73 253.64 111.81 239.25 115.3C209.25 124.85 177.25 119.04 148.94 107.86C191.13 91.3 237.65 93.12 281.54 101.19Z" fill="#18B311"/>
<path opacity="0.2" d="M591.72 96.88C541.53 120.38 480.21 131 428.49 115C451.27 112.27 470.63 97.5 492.49 92.24C525 89.17 560.45 90.05 591.72 96.88Z" fill="#18B311"/>
</g>
<defs>
<clipPath id="clip0_187_1003">
<rect width="730.8" height="123.09" fill="white"/>
</clipPath>
</defs>
</svg>
