<svg width="30" height="30" viewBox="0 0 30 30" fill="none" xmlns="http://www.w3.org/2000/svg">
<g clip-path="url(#clip0_187_5144)">
<path d="M6.38536 20.6895C3.60724 20.9538 0.738935 20.7676 0.336048 17.6497C-0.000692658 14.9284 2.56094 12.6756 5.315 12.6756C5.30924 11.7912 5.54021 10.9213 5.98398 10.156C6.42776 9.39068 7.06822 8.75778 7.83906 8.3228C8.6099 7.88783 9.4831 7.66658 10.3683 7.68198C11.2534 7.69737 12.1184 7.94884 12.8736 8.41036C13.5791 6.96724 14.7531 5.8054 16.2042 5.1142C17.6553 4.42301 19.2979 4.24322 20.8644 4.60415C22.4308 4.96508 23.8287 5.84543 24.8302 7.10173C25.8317 8.35802 26.3778 9.91616 26.3793 11.5222C26.3793 11.6183 26.3793 11.7084 26.3793 11.8045C27.3538 12.1445 28.1984 12.7787 28.7963 13.6192C29.3942 14.4597 29.7158 15.4651 29.7167 16.4963C29.7167 19.2417 27.4858 20.5873 24.7317 20.5873" stroke="#231F20" stroke-width="0.5" stroke-miterlimit="10"/>
<path d="M9.50706 4.16914C10.5764 4.16914 11.4433 3.30309 11.4433 2.23476C11.4433 1.16643 10.5764 0.300377 9.50706 0.300377C8.43769 0.300377 7.5708 1.16643 7.5708 2.23476C7.5708 3.30309 8.43769 4.16914 9.50706 4.16914Z" stroke="#231F20" stroke-width="0.5" stroke-miterlimit="10"/>
<path d="M4.88882 7.59335C5.74564 7.59335 6.44023 6.89944 6.44023 6.04345C6.44023 5.18746 5.74564 4.49354 4.88882 4.49354C4.03199 4.49354 3.3374 5.18746 3.3374 6.04345C3.3374 6.89944 4.03199 7.59335 4.88882 7.59335Z" stroke="#231F20" stroke-width="0.5" stroke-miterlimit="10"/>
<path d="M10.462 15V10.77H11.038L13.312 13.722V10.77H14.026V15H13.456L11.176 12.036V15H10.462ZM16.8463 15.06C16.4383 15.06 16.0803 14.97 15.7723 14.79C15.4683 14.61 15.2323 14.358 15.0643 14.034C14.8963 13.706 14.8123 13.322 14.8123 12.882C14.8123 12.438 14.8963 12.054 15.0643 11.73C15.2323 11.406 15.4683 11.156 15.7723 10.98C16.0763 10.8 16.4343 10.71 16.8463 10.71C17.2583 10.71 17.6163 10.8 17.9203 10.98C18.2243 11.156 18.4603 11.406 18.6283 11.73C18.7963 12.054 18.8803 12.436 18.8803 12.876C18.8803 13.32 18.7963 13.706 18.6283 14.034C18.4603 14.358 18.2243 14.61 17.9203 14.79C17.6163 14.97 17.2583 15.06 16.8463 15.06ZM16.8463 14.4C17.2343 14.4 17.5363 14.266 17.7523 13.998C17.9683 13.73 18.0763 13.358 18.0763 12.882C18.0763 12.402 17.9683 12.03 17.7523 11.766C17.5403 11.502 17.2383 11.37 16.8463 11.37C16.4583 11.37 16.1563 11.502 15.9403 11.766C15.7243 12.03 15.6163 12.402 15.6163 12.882C15.6163 13.358 15.7243 13.73 15.9403 13.998C16.1563 14.266 16.4583 14.4 16.8463 14.4Z" fill="#231F20"/>
<path d="M21.4258 16.378V16.8878H19.502C19.5228 16.6951 19.5853 16.5128 19.6895 16.3409C19.7936 16.1677 19.9993 15.9386 20.3066 15.6534C20.554 15.4229 20.7057 15.2667 20.7617 15.1847C20.8372 15.0714 20.875 14.9594 20.875 14.8487C20.875 14.7263 20.8418 14.6326 20.7754 14.5675C20.7103 14.5011 20.6198 14.4679 20.5039 14.4679C20.3893 14.4679 20.2982 14.5024 20.2305 14.5714C20.1628 14.6404 20.1237 14.755 20.1133 14.9151L19.5664 14.8604C19.599 14.5584 19.7012 14.3416 19.873 14.21C20.0449 14.0785 20.2598 14.0128 20.5176 14.0128C20.8001 14.0128 21.0221 14.089 21.1836 14.2413C21.3451 14.3936 21.4258 14.5831 21.4258 14.8097C21.4258 14.9386 21.4023 15.0616 21.3555 15.1788C21.3099 15.2947 21.237 15.4164 21.1367 15.544C21.0703 15.6287 20.9505 15.7504 20.7773 15.9093C20.6042 16.0681 20.4941 16.1736 20.4473 16.2257C20.4017 16.2778 20.3646 16.3285 20.3359 16.378H21.4258Z" fill="#231F20"/>
<path d="M9.87979 17.6497L9.80162 28.2768C9.8022 28.3095 9.79211 28.3414 9.77289 28.3678C9.75366 28.3942 9.72635 28.4136 9.69508 28.4231C9.66382 28.4326 9.6303 28.4317 9.59961 28.4205C9.56893 28.4093 9.54274 28.3883 9.52501 28.3609L8.28027 26.6428L9.79561 28.7334L11.2388 26.6368" stroke="#231F20" stroke-width="0.5" stroke-miterlimit="10"/>
<path d="M14.8588 16.9288L14.7746 24.4741C14.7734 24.5114 14.7606 24.5475 14.738 24.5772C14.7154 24.6069 14.6842 24.6289 14.6485 24.6402C14.6129 24.6514 14.5746 24.6512 14.539 24.6398C14.5035 24.6283 14.4723 24.6061 14.4499 24.5763L13.0007 22.5758L14.7626 24.9788L16.4403 22.5758" stroke="#231F20" stroke-width="0.5" stroke-miterlimit="10"/>
<path d="M19.5551 19.3498L19.4769 27.7602C19.4789 27.7934 19.4698 27.8263 19.4511 27.8537C19.4324 27.8812 19.4051 27.9017 19.3735 27.912C19.3418 27.9223 19.3077 27.9218 19.2763 27.9107C19.245 27.8995 19.2183 27.8783 19.2003 27.8503L17.9556 26.1322L19.4709 28.2348L20.9141 26.1442" stroke="#231F20" stroke-width="0.5" stroke-miterlimit="10"/>
</g>
<defs>
<clipPath id="clip0_187_5144">
<rect width="30" height="29.25" fill="white"/>
</clipPath>
</defs>
</svg>
