<svg width="30" height="30" viewBox="0 0 30 30" fill="none" xmlns="http://www.w3.org/2000/svg">
<path d="M28.9668 12.1782C28.9804 10.6355 28.3929 9.14912 27.3306 8.03935C26.2684 6.92959 24.8165 6.2853 23.2879 6.24532C21.7593 6.20534 20.2763 6.77286 19.1585 7.82561C18.0407 8.87835 17.3775 10.332 17.312 11.8734C16.5735 11.1299 15.651 10.5997 14.6404 10.338C13.6299 10.0764 12.5684 10.0928 11.5663 10.3856C10.5642 10.6785 9.65824 11.237 8.94272 12.003C8.22721 12.769 7.72831 13.7145 7.49797 14.7411C7.10102 14.5366 6.65858 14.4387 6.21324 14.4567C5.7679 14.4748 5.33466 14.6082 4.95523 14.8441C4.5758 15.08 4.26296 15.4105 4.04683 15.8038C3.8307 16.1971 3.71856 16.6399 3.72121 17.0895C3.72285 17.2697 3.74159 17.4493 3.77716 17.6258C2.93949 17.8907 2.22391 18.4502 1.76057 19.2025C1.29723 19.9548 1.11692 20.8499 1.25244 21.7249C1.38796 22.6 1.83031 23.397 2.49901 23.9708C3.16772 24.5446 4.01836 24.8572 4.8962 24.8516C5.5261 24.8523 6.14524 24.6869 6.69226 24.3718C7.10751 25.4864 7.84797 26.4478 8.81592 27.1291C9.78388 27.8104 10.9338 28.1796 12.114 28.1879C12.5665 28.1884 13.0175 28.1334 13.4569 28.0242C13.892 28.6829 14.5251 29.1832 15.2632 29.4517C16.0012 29.7202 16.8051 29.7427 17.5567 29.5158C18.3083 29.2889 18.968 28.8247 19.4386 28.1914C19.9092 27.5581 20.166 26.7891 20.1711 25.9976C20.1694 25.795 20.1507 25.593 20.1152 25.3936C20.2728 25.2518 20.3987 25.0778 20.4846 24.8831C20.5705 24.6885 20.6143 24.4776 20.6131 24.2645C20.6189 24.1894 20.6189 24.1139 20.6131 24.0387C21.2653 23.964 21.8856 23.7137 22.4089 23.314C22.9322 22.9144 23.3394 22.38 23.5877 21.767C23.836 21.154 23.9163 20.4849 23.8202 19.8298C23.7241 19.1747 23.4551 18.5577 23.0414 18.0436H23.1142C24.661 18.0481 26.1463 17.4328 27.2437 16.333C28.3411 15.2332 28.9608 13.7388 28.9668 12.1782V12.1782Z" stroke="#231F20" stroke-width="0.5" stroke-miterlimit="10"/>
<path d="M8.19682 8.66069C9.0188 8.66069 9.68514 7.9884 9.68514 7.15908C9.68514 6.32976 9.0188 5.65746 8.19682 5.65746C7.37484 5.65746 6.7085 6.32976 6.7085 7.15908C6.7085 7.9884 7.37484 8.66069 8.19682 8.66069Z" stroke="#231F20" stroke-width="0.5" stroke-miterlimit="10"/>
<path d="M15.0856 5.16614C16.2259 5.16614 17.1503 4.23352 17.1503 3.08307C17.1503 1.93262 16.2259 1 15.0856 1C13.9454 1 13.021 1.93262 13.021 3.08307C13.021 4.23352 13.9454 5.16614 15.0856 5.16614Z" stroke="#231F20" stroke-width="0.5" stroke-miterlimit="10"/>
<path d="M13.5804 21.06C13.1724 21.06 12.8144 20.97 12.5064 20.79C12.2024 20.61 11.9664 20.358 11.7984 20.034C11.6304 19.706 11.5464 19.322 11.5464 18.882C11.5464 18.438 11.6304 18.054 11.7984 17.73C11.9664 17.406 12.2024 17.156 12.5064 16.98C12.8104 16.8 13.1684 16.71 13.5804 16.71C13.9924 16.71 14.3504 16.8 14.6544 16.98C14.9584 17.156 15.1944 17.406 15.3624 17.73C15.5304 18.054 15.6144 18.436 15.6144 18.876C15.6144 19.32 15.5304 19.706 15.3624 20.034C15.1944 20.358 14.9584 20.61 14.6544 20.79C14.3504 20.97 13.9924 21.06 13.5804 21.06ZM13.5804 20.4C13.9684 20.4 14.2704 20.266 14.4864 19.998C14.7024 19.73 14.8104 19.358 14.8104 18.882C14.8104 18.402 14.7024 18.03 14.4864 17.766C14.2744 17.502 13.9724 17.37 13.5804 17.37C13.1924 17.37 12.8904 17.502 12.6744 17.766C12.4584 18.03 12.3504 18.402 12.3504 18.882C12.3504 19.358 12.4584 19.73 12.6744 19.998C12.8904 20.266 13.1924 20.4 13.5804 20.4Z" fill="#231F20"/>
<path d="M16.25 23.8161C16.058 23.8161 15.874 23.7881 15.698 23.7321C15.5246 23.6735 15.3806 23.5948 15.266 23.4961L15.434 23.1041C15.674 23.2908 15.9406 23.3841 16.234 23.3841C16.594 23.3841 16.774 23.2428 16.774 22.9601C16.774 22.8268 16.7286 22.7281 16.638 22.6641C16.55 22.5975 16.4206 22.5641 16.25 22.5641H15.798V22.1401H16.202C16.3513 22.1401 16.47 22.1041 16.558 22.0321C16.646 21.9575 16.69 21.8548 16.69 21.7241C16.69 21.6015 16.6486 21.5081 16.566 21.4441C16.486 21.3801 16.3686 21.3481 16.214 21.3481C15.9366 21.3481 15.6926 21.4441 15.482 21.6361L15.314 21.2521C15.426 21.1455 15.566 21.0628 15.734 21.0041C15.902 20.9455 16.0766 20.9161 16.258 20.9161C16.5513 20.9161 16.7793 20.9828 16.942 21.1161C17.1046 21.2468 17.186 21.4295 17.186 21.6641C17.186 21.8161 17.1473 21.9495 17.07 22.0641C16.9926 22.1788 16.8873 22.2615 16.754 22.3121C16.9166 22.3575 17.0433 22.4415 17.134 22.5641C17.2246 22.6841 17.27 22.8308 17.27 23.0041C17.27 23.2548 17.1793 23.4535 16.998 23.6001C16.8166 23.7441 16.5673 23.8161 16.25 23.8161Z" fill="#231F20"/>
</svg>
