<svg width="30" height="24" viewBox="0 0 30 24" fill="none" xmlns="http://www.w3.org/2000/svg">
<path d="M29.1555 9.2974C29.1605 9.27281 29.1605 9.24749 29.1555 9.22291C29.2636 8.73929 29.3198 8.24571 29.3231 7.75039C29.3231 7.64152 29.3231 7.53266 29.3231 7.4238C29.3231 7.31493 29.3231 7.20034 29.2942 7.09148C29.2653 6.98261 29.2942 6.88521 29.248 6.78207C29.2304 6.67402 29.2073 6.56692 29.1786 6.46121C29.1786 6.46121 29.1786 6.42684 29.1786 6.41538C29.1288 6.22084 29.067 6.0295 28.9937 5.84241C28.9532 5.75074 28.9127 5.65333 28.8665 5.55593C28.8203 5.45852 28.7682 5.36112 28.7162 5.26944C28.683 5.20637 28.6464 5.14516 28.6064 5.08609C28.4888 4.88502 28.3555 4.69343 28.2076 4.51313V4.51313C28.1602 4.45902 28.11 4.40738 28.0573 4.35843L27.9012 4.18654C27.7914 4.07767 27.6758 3.97454 27.5544 3.86568C27.5247 3.83543 27.4918 3.80853 27.4561 3.78546V3.78546C27.342 3.6871 27.2224 3.59527 27.0977 3.51044C26.976 3.42035 26.8486 3.33806 26.7162 3.26406C26.618 3.20103 26.5255 3.1552 26.4272 3.10363C26.3512 3.05966 26.272 3.02136 26.1902 2.98904C26.1068 2.94551 26.0198 2.90909 25.9301 2.88017C25.8286 2.83704 25.7244 2.80067 25.618 2.77131C25.4859 2.7299 25.3505 2.69924 25.2134 2.67963C25.1583 2.6567 25.0996 2.64314 25.04 2.63953C24.9669 2.63237 24.8934 2.63237 24.8203 2.63953L24.6122 2.61088C23.7768 2.57357 22.9431 2.71425 22.1672 3.02341L21.5198 3.27552C21.3522 3.08071 21.225 2.92601 21.0805 2.77704C20.936 2.62807 20.9071 2.59942 20.8204 2.50774C20.7221 2.41034 20.6181 2.3244 20.5198 2.23272C20.5018 2.22512 20.486 2.21333 20.4736 2.19834L20.1845 1.98062C20.0766 1.9004 19.9668 1.82592 19.8551 1.75716C19.7452 1.6884 19.6296 1.62538 19.5198 1.56808C19.1721 1.37953 18.8036 1.23148 18.4216 1.1269L18.0632 1.05241H17.9245C17.8399 1.04428 17.7547 1.04428 17.6701 1.05241H17.5141C17.4372 1.0439 17.3597 1.0439 17.2829 1.05241C17.2368 1.04689 17.1902 1.04689 17.1441 1.05241C16.8368 1.05852 16.5309 1.09499 16.2308 1.16127C16.009 1.18013 15.7888 1.2146 15.5719 1.26441C15.2474 1.36049 14.9337 1.48912 14.6355 1.6483L14.4158 1.77435L14.121 1.95197C14.0459 2.00353 13.9708 2.0551 13.9014 2.1124C13.8172 2.1687 13.7379 2.23195 13.6644 2.30148L13.595 2.3645C13.5083 2.43899 13.4332 2.5192 13.3581 2.59369C13.3103 2.64027 13.2659 2.69005 13.2251 2.74266L13.1037 2.8859C13.0459 2.95466 12.9939 3.02341 12.9419 3.0979C12.7618 3.34264 12.6087 3.60579 12.4852 3.88286V3.88286C12.4852 3.88286 12.4852 3.88286 12.4852 3.91724C12.439 4.02038 12.3927 4.12351 12.3523 4.22664C12.3118 4.32978 12.2829 4.41572 12.254 4.51313C12.2251 4.61053 12.1962 4.70221 12.1731 4.79388C12.0976 5.06042 12.0434 5.33248 12.0113 5.60749C12.0113 5.8023 11.9188 5.98565 11.8725 6.18046C11.6991 6.13462 11.5257 6.07733 11.3928 6.07733C11.2598 6.07733 10.9419 5.99711 10.7223 5.96846C10.5026 5.93981 10.283 5.93408 10.0691 5.93408C9.68016 5.9325 9.29231 5.97479 8.91303 6.06014C8.83621 6.0691 8.76062 6.0864 8.6876 6.1117C8.6298 6.1117 8.572 6.14035 8.51419 6.15181L8.2772 6.2263L8.05755 6.30651L7.94773 6.35235C7.84292 6.38753 7.74216 6.43363 7.64715 6.48986C7.54311 6.5357 7.44484 6.593 7.35236 6.64456L7.25409 6.70186L7.17895 6.7477C7.06226 6.81884 6.95028 6.8973 6.8437 6.98261C6.67645 7.10725 6.51808 7.24317 6.36971 7.38942C6.27145 7.48682 6.17319 7.5785 6.08648 7.68163L5.87261 7.95093C5.76063 8.10024 5.65645 8.25514 5.56048 8.41503C5.52432 8.47035 5.49151 8.52775 5.46221 8.58692C5.40441 8.69005 5.35239 8.79892 5.30037 8.90778C5.24834 9.01664 5.18476 9.17134 5.13274 9.30886C5.08072 9.44637 5.07494 9.48648 5.04603 9.56669C5.01713 9.64691 5.04603 9.66983 5.00557 9.72712C4.95543 9.90401 4.91682 10.0839 4.88997 10.2657C4.88997 10.2657 4.88997 10.2657 4.88997 10.3001C4.88997 10.4147 4.86107 10.5293 4.84951 10.6439C4.83795 10.7585 4.84951 10.959 4.84951 11.1252C4.84951 11.2913 4.84951 11.5148 4.88997 11.6981C4.88997 11.6981 4.88997 11.6981 4.88997 11.7382C4.88997 11.87 4.93621 12.0075 4.96511 12.1336C4.96412 12.145 4.96412 12.1565 4.96511 12.168C4.99401 12.3112 5.03447 12.443 5.07494 12.5805C5.1347 12.7882 5.21005 12.9912 5.30037 13.1878V13.1878L5.34661 13.291C5.06871 13.3537 4.79466 13.4321 4.52581 13.5259V13.5259C4.39362 13.5603 4.26418 13.6043 4.13853 13.6577L3.84952 13.7665C3.75704 13.8066 3.67033 13.841 3.58363 13.8869L3.41022 13.9613C3.06381 14.1303 2.738 14.3379 2.43914 14.5801V14.5801C2.35221 14.648 2.26923 14.7207 2.19058 14.7979C2.19058 14.7979 2.1559 14.8265 2.13856 14.838C2.08171 14.8905 2.02768 14.946 1.97671 15.0041L1.94203 15.0385C1.90041 15.0817 1.86179 15.1277 1.82643 15.176C1.77981 15.2204 1.73902 15.2705 1.70504 15.325C1.67142 15.3595 1.64229 15.398 1.61834 15.4396C1.55399 15.519 1.49601 15.6033 1.44493 15.6917C1.37557 15.8025 1.31198 15.9113 1.25418 16.0183C1.18069 16.1381 1.11504 16.2625 1.05765 16.3907C1.02855 16.4494 1.00532 16.5109 0.98829 16.5741C0.943115 16.676 0.906386 16.7814 0.878465 16.8892C0.835034 17.021 0.798379 17.1548 0.76864 17.2903C0.738879 17.4073 0.715722 17.5259 0.699277 17.6455V17.6455C0.699277 17.6455 0.699277 17.6799 0.699277 17.7085C0.699277 17.7372 0.664595 17.9549 0.658815 18.0752C0.655643 18.1076 0.655643 18.1403 0.658815 18.1726C0.627075 18.5004 0.627075 18.8304 0.658815 19.1581V19.1581C0.669168 19.3062 0.68847 19.4535 0.716617 19.5993V19.5993C0.763654 19.8489 0.831318 20.0942 0.918927 20.3327C1.02121 20.6213 1.15495 20.898 1.31776 21.1578C1.50409 21.4574 1.72525 21.7344 1.97671 21.9829C2.18954 22.1947 2.42174 22.3865 2.67035 22.5558C2.91273 22.7325 3.16773 22.8914 3.43334 23.0314C3.78704 23.2069 4.1567 23.3489 4.53737 23.4554C4.82466 23.5355 5.11876 23.5892 5.41597 23.6158C5.54314 23.6158 5.6703 23.6158 5.79747 23.6158C6.1039 23.6212 6.41005 23.5943 6.71075 23.5356C6.85546 23.5081 6.99832 23.4718 7.13849 23.4267C7.35038 23.3665 7.55717 23.2899 7.75698 23.1976C8.10915 23.0409 8.44422 22.8489 8.75696 22.6246C8.94771 22.4871 9.13846 22.3381 9.33499 22.1777C9.6217 21.9338 9.89202 21.6716 10.1442 21.3927C10.4536 21.5814 10.774 21.7517 11.1038 21.9027C11.3716 22.0266 11.6477 22.1319 11.9303 22.2178L12.3407 22.3381C12.6012 22.4006 12.8658 22.4446 13.1326 22.4699C13.3292 22.4699 13.5199 22.4699 13.7106 22.4699C13.9652 22.4643 14.2186 22.4355 14.4679 22.3839V22.3839C14.6168 22.3585 14.7637 22.3221 14.9072 22.2751C15.1975 22.1837 15.4798 22.0688 15.7511 21.9313C16.3827 21.6001 16.9581 21.1729 17.4563 20.6651H17.4967C17.6065 20.7567 17.6933 20.8255 17.7742 20.9C17.8551 20.9745 17.9534 21.0661 18.0458 21.1521L18.1152 21.2151C18.3788 21.4279 18.659 21.6195 18.9533 21.7881C19.196 21.9312 19.4514 22.0521 19.7163 22.149L20.1094 22.2808C20.3697 22.3563 20.6369 22.4062 20.9071 22.4298V22.4298C21.0994 22.4463 21.2928 22.4463 21.4851 22.4298C21.7353 22.4246 21.9846 22.3997 22.2308 22.3553L22.6816 22.2522C22.8622 22.2033 23.0398 22.144 23.2134 22.0745C23.3274 22.0366 23.4394 21.9926 23.5487 21.9428C24.3514 21.6047 25.0481 21.0597 25.5665 20.3645C26.0849 19.6693 26.4061 18.8491 26.4966 17.9893C26.5138 17.7592 26.5843 17.5361 26.7026 17.3373C26.8208 17.1386 26.9838 16.9696 27.1787 16.8434C28.0403 16.2242 28.684 15.3524 29.019 14.3511C29.354 13.3498 29.3633 12.2695 29.0457 11.2627C28.8665 10.6611 28.6179 9.98496 29.1555 9.2974Z" stroke="black" stroke-width="0.25" stroke-miterlimit="10"/>
<path d="M14.5426 2.09526C14.5426 2.21736 14.4941 2.33455 14.4077 2.42142C14.3212 2.50829 14.2038 2.55786 14.0808 2.55936C13.9934 2.55917 13.9078 2.53499 13.8334 2.48948C13.7591 2.44397 13.6988 2.37892 13.6594 2.30153C13.8925 2.10045 14.1459 1.9238 14.4156 1.7744C14.4969 1.86182 14.5422 1.97631 14.5426 2.09526Z" fill="black"/>
<path d="M15.3761 2.55307C15.6311 2.55307 15.8379 2.34785 15.8379 2.0947C15.8379 1.84154 15.6311 1.63632 15.3761 1.63632C15.1211 1.63632 14.9143 1.84154 14.9143 2.0947C14.9143 2.34785 15.1211 2.55307 15.3761 2.55307Z" fill="black"/>
<path d="M16.6764 2.55307C16.9314 2.55307 17.1382 2.34785 17.1382 2.0947C17.1382 1.84154 16.9314 1.63632 16.6764 1.63632C16.4213 1.63632 16.2146 1.84154 16.2146 2.0947C16.2146 2.34785 16.4213 2.55307 16.6764 2.55307Z" fill="black"/>
<path d="M17.9767 2.55307C18.2317 2.55307 18.4385 2.34785 18.4385 2.0947C18.4385 1.84154 18.2317 1.63632 17.9767 1.63632C17.7216 1.63632 17.5149 1.84154 17.5149 2.0947C17.5149 2.34785 17.7216 2.55307 17.9767 2.55307Z" fill="black"/>
<path d="M19.2782 2.55307C19.5332 2.55307 19.74 2.34785 19.74 2.0947C19.74 1.84154 19.5332 1.63632 19.2782 1.63632C19.0232 1.63632 18.8164 1.84154 18.8164 2.0947C18.8164 2.34785 19.0232 2.55307 19.2782 2.55307Z" fill="black"/>
<path d="M17.1439 1.00082C17.1458 1.11414 17.1052 1.22412 17.0301 1.30951C16.955 1.3949 16.8507 1.44964 16.7374 1.46317C16.624 1.47671 16.5096 1.44807 16.4163 1.38278C16.3229 1.3175 16.2572 1.2202 16.2319 1.10968C16.5315 1.04339 16.8371 1.00693 17.1439 1.00082Z" fill="black"/>
<path d="M18.4211 1.12642C18.3907 1.21963 18.3313 1.30088 18.2514 1.35851C18.1716 1.41615 18.0754 1.44722 17.9767 1.44728C17.8571 1.44736 17.7422 1.40144 17.6561 1.31916C17.57 1.23688 17.5194 1.12466 17.5149 1.0061H17.6707C17.7552 0.997968 17.8403 0.997968 17.9247 1.0061H18.0633L18.4211 1.12642Z" fill="black"/>
<path d="M20.8031 2.49073C20.7371 2.53632 20.6584 2.56035 20.578 2.55948C20.455 2.55797 20.3375 2.50841 20.2511 2.42154C20.1646 2.33467 20.1162 2.21748 20.1162 2.09538C20.1074 2.0461 20.1074 1.99569 20.1162 1.94641C20.3575 2.11188 20.587 2.29375 20.8031 2.49073Z" fill="black"/>
<path d="M13.26 3.52683C13.2613 3.61504 13.237 3.70176 13.1899 3.77659C13.1429 3.85141 13.075 3.91116 12.9946 3.94867C12.9141 3.98618 12.8245 3.99984 12.7364 3.98803C12.6483 3.97621 12.5656 3.93942 12.498 3.88207C12.6214 3.605 12.7742 3.34184 12.9541 3.09711C13.0424 3.13025 13.1188 3.18889 13.1733 3.26547C13.2278 3.34205 13.258 3.43308 13.26 3.52683Z" fill="black"/>
<path d="M14.0753 3.99043C14.3303 3.99043 14.5371 3.78521 14.5371 3.53206C14.5371 3.27891 14.3303 3.07369 14.0753 3.07369C13.8203 3.07369 13.6135 3.27891 13.6135 3.53206C13.6135 3.78521 13.8203 3.99043 14.0753 3.99043Z" fill="black"/>
<path d="M15.3761 3.99043C15.6311 3.99043 15.8379 3.78521 15.8379 3.53206C15.8379 3.27891 15.6311 3.07369 15.3761 3.07369C15.1211 3.07369 14.9143 3.27891 14.9143 3.53206C14.9143 3.78521 15.1211 3.99043 15.3761 3.99043Z" fill="black"/>
<path d="M16.6764 3.99043C16.9314 3.99043 17.1382 3.78521 17.1382 3.53206C17.1382 3.27891 16.9314 3.07369 16.6764 3.07369C16.4213 3.07369 16.2146 3.27891 16.2146 3.53206C16.2146 3.78521 16.4213 3.99043 16.6764 3.99043Z" fill="black"/>
<path d="M17.9767 3.99043C18.2317 3.99043 18.4385 3.78521 18.4385 3.53206C18.4385 3.27891 18.2317 3.07369 17.9767 3.07369C17.7216 3.07369 17.5149 3.27891 17.5149 3.53206C17.5149 3.78521 17.7216 3.99043 17.9767 3.99043Z" fill="black"/>
<path d="M19.2782 3.99043C19.5332 3.99043 19.74 3.78521 19.74 3.53206C19.74 3.27891 19.5332 3.07369 19.2782 3.07369C19.0232 3.07369 18.8164 3.27891 18.8164 3.53206C18.8164 3.78521 19.0232 3.99043 19.2782 3.99043Z" fill="black"/>
<path d="M20.578 3.99043C20.833 3.99043 21.0398 3.78521 21.0398 3.53206C21.0398 3.27891 20.833 3.07369 20.578 3.07369C20.323 3.07369 20.1162 3.27891 20.1162 3.53206C20.1162 3.78521 20.323 3.99043 20.578 3.99043Z" fill="black"/>
<path d="M21.8788 3.99043C22.1338 3.99043 22.3406 3.78521 22.3406 3.53206C22.3406 3.27891 22.1338 3.07369 21.8788 3.07369C21.6237 3.07369 21.417 3.27891 21.417 3.53206C21.417 3.78521 21.6237 3.99043 21.8788 3.99043Z" fill="black"/>
<path d="M23.1796 3.99043C23.4346 3.99043 23.6413 3.78521 23.6413 3.53206C23.6413 3.27891 23.4346 3.07369 23.1796 3.07369C22.9245 3.07369 22.7178 3.27891 22.7178 3.53206C22.7178 3.78521 22.9245 3.99043 23.1796 3.99043Z" fill="black"/>
<path d="M24.4798 3.99043C24.7349 3.99043 24.9416 3.78521 24.9416 3.53206C24.9416 3.27891 24.7349 3.07369 24.4798 3.07369C24.2248 3.07369 24.0181 3.27891 24.0181 3.53206C24.0181 3.78521 24.2248 3.99043 24.4798 3.99043Z" fill="black"/>
<path d="M25.7806 3.99043C26.0357 3.99043 26.2424 3.78521 26.2424 3.53206C26.2424 3.27891 26.0357 3.07369 25.7806 3.07369C25.5256 3.07369 25.3188 3.27891 25.3188 3.53206C25.3188 3.78521 25.5256 3.99043 25.7806 3.99043Z" fill="black"/>
<path d="M27.4562 3.78501C27.3988 3.86442 27.3174 3.92355 27.2238 3.95378C27.1302 3.98401 27.0293 3.98375 26.9358 3.95304C26.8423 3.92233 26.7612 3.86278 26.7043 3.78308C26.6473 3.70337 26.6175 3.60769 26.6192 3.50999C26.6188 3.41694 26.6492 3.32634 26.7058 3.25215C26.972 3.40637 27.2232 3.58476 27.4562 3.78501Z" fill="black"/>
<path d="M12.7745 5.42296C13.0296 5.42296 13.2363 5.21774 13.2363 4.96459C13.2363 4.71144 13.0296 4.50622 12.7745 4.50622C12.5195 4.50622 12.3127 4.71144 12.3127 4.96459C12.3127 5.21774 12.5195 5.42296 12.7745 5.42296Z" fill="black"/>
<path d="M14.0753 5.42296C14.3303 5.42296 14.5371 5.21774 14.5371 4.96459C14.5371 4.71144 14.3303 4.50622 14.0753 4.50622C13.8203 4.50622 13.6135 4.71144 13.6135 4.96459C13.6135 5.21774 13.8203 5.42296 14.0753 5.42296Z" fill="black"/>
<path d="M15.3761 5.42296C15.6311 5.42296 15.8379 5.21774 15.8379 4.96459C15.8379 4.71144 15.6311 4.50622 15.3761 4.50622C15.1211 4.50622 14.9143 4.71144 14.9143 4.96459C14.9143 5.21774 15.1211 5.42296 15.3761 5.42296Z" fill="black"/>
<path d="M16.6764 5.42296C16.9314 5.42296 17.1382 5.21774 17.1382 4.96459C17.1382 4.71144 16.9314 4.50622 16.6764 4.50622C16.4213 4.50622 16.2146 4.71144 16.2146 4.96459C16.2146 5.21774 16.4213 5.42296 16.6764 5.42296Z" fill="black"/>
<path d="M17.9767 5.42296C18.2317 5.42296 18.4385 5.21774 18.4385 4.96459C18.4385 4.71144 18.2317 4.50622 17.9767 4.50622C17.7216 4.50622 17.5149 4.71144 17.5149 4.96459C17.5149 5.21774 17.7216 5.42296 17.9767 5.42296Z" fill="black"/>
<path d="M19.2782 5.42296C19.5332 5.42296 19.74 5.21774 19.74 4.96459C19.74 4.71144 19.5332 4.50622 19.2782 4.50622C19.0232 4.50622 18.8164 4.71144 18.8164 4.96459C18.8164 5.21774 19.0232 5.42296 19.2782 5.42296Z" fill="black"/>
<path d="M20.578 5.42296C20.833 5.42296 21.0398 5.21774 21.0398 4.96459C21.0398 4.71144 20.833 4.50622 20.578 4.50622C20.323 4.50622 20.1162 4.71144 20.1162 4.96459C20.1162 5.21774 20.323 5.42296 20.578 5.42296Z" fill="black"/>
<path d="M21.8788 5.42296C22.1338 5.42296 22.3406 5.21774 22.3406 4.96459C22.3406 4.71144 22.1338 4.50622 21.8788 4.50622C21.6237 4.50622 21.417 4.71144 21.417 4.96459C21.417 5.21774 21.6237 5.42296 21.8788 5.42296Z" fill="black"/>
<path d="M23.1796 5.42296C23.4346 5.42296 23.6413 5.21774 23.6413 4.96459C23.6413 4.71144 23.4346 4.50622 23.1796 4.50622C22.9245 4.50622 22.7178 4.71144 22.7178 4.96459C22.7178 5.21774 22.9245 5.42296 23.1796 5.42296Z" fill="black"/>
<path d="M24.4798 5.42296C24.7349 5.42296 24.9416 5.21774 24.9416 4.96459C24.9416 4.71144 24.7349 4.50622 24.4798 4.50622C24.2248 4.50622 24.0181 4.71144 24.0181 4.96459C24.0181 5.21774 24.2248 5.42296 24.4798 5.42296Z" fill="black"/>
<path d="M25.7806 5.42296C26.0357 5.42296 26.2424 5.21774 26.2424 4.96459C26.2424 4.71144 26.0357 4.50622 25.7806 4.50622C25.5256 4.50622 25.3188 4.71144 25.3188 4.96459C25.3188 5.21774 25.5256 5.42296 25.7806 5.42296Z" fill="black"/>
<path d="M27.0809 5.42296C27.336 5.42296 27.5427 5.21774 27.5427 4.96459C27.5427 4.71144 27.336 4.50622 27.0809 4.50622C26.8259 4.50622 26.6191 4.71144 26.6191 4.96459C26.6191 5.21774 26.8259 5.42296 27.0809 5.42296Z" fill="black"/>
<path d="M28.716 5.2816C28.6738 5.32791 28.6221 5.36466 28.5643 5.38938C28.5066 5.41409 28.4441 5.42619 28.3812 5.42485C28.2764 5.42265 28.1754 5.38509 28.0949 5.31834C28.0144 5.25159 27.9592 5.15963 27.9384 5.0576C27.9176 4.95556 27.9324 4.84953 27.9803 4.75694C28.0283 4.66436 28.1066 4.59074 28.2023 4.54821C28.3982 4.77472 28.5703 5.02045 28.716 5.2816Z" fill="black"/>
<path d="M8.05754 6.40849C8.05754 6.46868 8.0456 6.52828 8.02239 6.5839C7.99918 6.63951 7.96517 6.69004 7.92229 6.7326C7.87941 6.77517 7.8285 6.80893 7.77247 6.83197C7.71645 6.855 7.6564 6.86686 7.59576 6.86686C7.52814 6.86798 7.46117 6.85356 7.40009 6.82474C7.33901 6.79591 7.28547 6.75346 7.24365 6.7007C7.50346 6.54679 7.77569 6.41455 8.05754 6.30535C8.06038 6.33967 8.06038 6.37417 8.05754 6.40849Z" fill="black"/>
<path d="M8.87902 6.91363C9.13405 6.91363 9.3408 6.70841 9.3408 6.45526C9.3408 6.2021 9.13405 5.99688 8.87902 5.99688C8.62398 5.99688 8.41724 6.2021 8.41724 6.45526C8.41724 6.70841 8.62398 6.91363 8.87902 6.91363Z" fill="black"/>
<path d="M10.1803 6.86195C10.4353 6.86195 10.6421 6.65673 10.6421 6.40357C10.6421 6.15042 10.4353 5.9452 10.1803 5.9452C9.92525 5.9452 9.71851 6.15042 9.71851 6.40357C9.71851 6.65673 9.92525 6.86195 10.1803 6.86195Z" fill="black"/>
<path d="M11.474 6.92978C11.729 6.92978 11.9358 6.72456 11.9358 6.4714C11.9358 6.21825 11.729 6.01303 11.474 6.01303C11.219 6.01303 11.0122 6.21825 11.0122 6.4714C11.0122 6.72456 11.219 6.92978 11.474 6.92978Z" fill="black"/>
<path d="M12.7745 6.86195C13.0296 6.86195 13.2363 6.65673 13.2363 6.40357C13.2363 6.15042 13.0296 5.9452 12.7745 5.9452C12.5195 5.9452 12.3127 6.15042 12.3127 6.40357C12.3127 6.65673 12.5195 6.86195 12.7745 6.86195Z" fill="black"/>
<path d="M14.0753 6.86195C14.3303 6.86195 14.5371 6.65673 14.5371 6.40357C14.5371 6.15042 14.3303 5.9452 14.0753 5.9452C13.8203 5.9452 13.6135 6.15042 13.6135 6.40357C13.6135 6.65673 13.8203 6.86195 14.0753 6.86195Z" fill="black"/>
<path d="M15.3761 6.86195C15.6311 6.86195 15.8379 6.65673 15.8379 6.40357C15.8379 6.15042 15.6311 5.9452 15.3761 5.9452C15.1211 5.9452 14.9143 6.15042 14.9143 6.40357C14.9143 6.65673 15.1211 6.86195 15.3761 6.86195Z" fill="black"/>
<path d="M16.6764 6.86195C16.9314 6.86195 17.1382 6.65673 17.1382 6.40357C17.1382 6.15042 16.9314 5.9452 16.6764 5.9452C16.4213 5.9452 16.2146 6.15042 16.2146 6.40357C16.2146 6.65673 16.4213 6.86195 16.6764 6.86195Z" fill="black"/>
<path d="M17.9767 6.86195C18.2317 6.86195 18.4385 6.65673 18.4385 6.40357C18.4385 6.15042 18.2317 5.9452 17.9767 5.9452C17.7216 5.9452 17.5149 6.15042 17.5149 6.40357C17.5149 6.65673 17.7216 6.86195 17.9767 6.86195Z" fill="black"/>
<path d="M19.2782 6.86195C19.5332 6.86195 19.74 6.65673 19.74 6.40357C19.74 6.15042 19.5332 5.9452 19.2782 5.9452C19.0232 5.9452 18.8164 6.15042 18.8164 6.40357C18.8164 6.65673 19.0232 6.86195 19.2782 6.86195Z" fill="black"/>
<path d="M20.578 6.86195C20.833 6.86195 21.0398 6.65673 21.0398 6.40357C21.0398 6.15042 20.833 5.9452 20.578 5.9452C20.323 5.9452 20.1162 6.15042 20.1162 6.40357C20.1162 6.65673 20.323 6.86195 20.578 6.86195Z" fill="black"/>
<path d="M21.8788 6.86195C22.1338 6.86195 22.3406 6.65673 22.3406 6.40357C22.3406 6.15042 22.1338 5.9452 21.8788 5.9452C21.6237 5.9452 21.417 6.15042 21.417 6.40357C21.417 6.65673 21.6237 6.86195 21.8788 6.86195Z" fill="black"/>
<path d="M23.1796 6.86195C23.4346 6.86195 23.6413 6.65673 23.6413 6.40357C23.6413 6.15042 23.4346 5.9452 23.1796 5.9452C22.9245 5.9452 22.7178 6.15042 22.7178 6.40357C22.7178 6.65673 22.9245 6.86195 23.1796 6.86195Z" fill="black"/>
<path d="M24.4798 6.86195C24.7349 6.86195 24.9416 6.65673 24.9416 6.40357C24.9416 6.15042 24.7349 5.9452 24.4798 5.9452C24.2248 5.9452 24.0181 6.15042 24.0181 6.40357C24.0181 6.65673 24.2248 6.86195 24.4798 6.86195Z" fill="black"/>
<path d="M25.7806 6.86195C26.0357 6.86195 26.2424 6.65673 26.2424 6.40357C26.2424 6.15042 26.0357 5.9452 25.7806 5.9452C25.5256 5.9452 25.3188 6.15042 25.3188 6.40357C25.3188 6.65673 25.5256 6.86195 25.7806 6.86195Z" fill="black"/>
<path d="M27.0809 6.86195C27.336 6.86195 27.5427 6.65673 27.5427 6.40357C27.5427 6.15042 27.336 5.9452 27.0809 5.9452C26.8259 5.9452 26.6191 6.15042 26.6191 6.40357C26.6191 6.65673 26.8259 6.86195 27.0809 6.86195Z" fill="black"/>
<path d="M28.3815 6.86195C28.6365 6.86195 28.8432 6.65673 28.8432 6.40357C28.8432 6.15042 28.6365 5.9452 28.3815 5.9452C28.1264 5.9452 27.9197 6.15042 27.9197 6.40357C27.9197 6.65673 28.1264 6.86195 28.3815 6.86195Z" fill="black"/>
<path d="M6.74047 7.84167C6.73951 7.95203 6.69847 8.05834 6.62489 8.14107C6.55131 8.2238 6.45013 8.27741 6.33993 8.29204C6.22973 8.30667 6.11792 8.28134 6.02502 8.22071C5.93212 8.16009 5.86437 8.06822 5.83423 7.962C5.98651 7.75677 6.15647 7.56506 6.34219 7.38903C6.45287 7.40305 6.55453 7.45686 6.62793 7.54027C6.70133 7.62369 6.74137 7.73092 6.74047 7.84167Z" fill="black"/>
<path d="M7.57823 8.30012C7.83327 8.30012 8.04001 8.0949 8.04001 7.84175C8.04001 7.5886 7.83327 7.38338 7.57823 7.38338C7.3232 7.38338 7.11646 7.5886 7.11646 7.84175C7.11646 8.0949 7.3232 8.30012 7.57823 8.30012Z" fill="black"/>
<path d="M8.87902 8.30012C9.13405 8.30012 9.3408 8.0949 9.3408 7.84175C9.3408 7.5886 9.13405 7.38338 8.87902 7.38338C8.62398 7.38338 8.41724 7.5886 8.41724 7.84175C8.41724 8.0949 8.62398 8.30012 8.87902 8.30012Z" fill="black"/>
<path d="M10.1803 8.30012C10.4353 8.30012 10.6421 8.0949 10.6421 7.84175C10.6421 7.5886 10.4353 7.38338 10.1803 7.38338C9.92525 7.38338 9.71851 7.5886 9.71851 7.84175C9.71851 8.0949 9.92525 8.30012 10.1803 8.30012Z" fill="black"/>
<path d="M11.474 8.30012C11.729 8.30012 11.9358 8.0949 11.9358 7.84175C11.9358 7.5886 11.729 7.38338 11.474 7.38338C11.219 7.38338 11.0122 7.5886 11.0122 7.84175C11.0122 8.0949 11.219 8.30012 11.474 8.30012Z" fill="black"/>
<path d="M12.7745 8.30012C13.0296 8.30012 13.2363 8.0949 13.2363 7.84175C13.2363 7.5886 13.0296 7.38338 12.7745 7.38338C12.5195 7.38338 12.3127 7.5886 12.3127 7.84175C12.3127 8.0949 12.5195 8.30012 12.7745 8.30012Z" fill="black"/>
<path d="M14.0753 8.30012C14.3303 8.30012 14.5371 8.0949 14.5371 7.84175C14.5371 7.5886 14.3303 7.38338 14.0753 7.38338C13.8203 7.38338 13.6135 7.5886 13.6135 7.84175C13.6135 8.0949 13.8203 8.30012 14.0753 8.30012Z" fill="black"/>
<path d="M15.3761 8.30012C15.6311 8.30012 15.8379 8.0949 15.8379 7.84175C15.8379 7.5886 15.6311 7.38338 15.3761 7.38338C15.1211 7.38338 14.9143 7.5886 14.9143 7.84175C14.9143 8.0949 15.1211 8.30012 15.3761 8.30012Z" fill="black"/>
<path d="M16.6764 8.30012C16.9314 8.30012 17.1382 8.0949 17.1382 7.84175C17.1382 7.5886 16.9314 7.38338 16.6764 7.38338C16.4213 7.38338 16.2146 7.5886 16.2146 7.84175C16.2146 8.0949 16.4213 8.30012 16.6764 8.30012Z" fill="black"/>
<path d="M17.9767 8.30012C18.2317 8.30012 18.4385 8.0949 18.4385 7.84175C18.4385 7.5886 18.2317 7.38338 17.9767 7.38338C17.7216 7.38338 17.5149 7.5886 17.5149 7.84175C17.5149 8.0949 17.7216 8.30012 17.9767 8.30012Z" fill="black"/>
<path d="M19.2782 8.30012C19.5332 8.30012 19.74 8.0949 19.74 7.84175C19.74 7.5886 19.5332 7.38338 19.2782 7.38338C19.0232 7.38338 18.8164 7.5886 18.8164 7.84175C18.8164 8.0949 19.0232 8.30012 19.2782 8.30012Z" fill="black"/>
<path d="M20.578 8.30012C20.833 8.30012 21.0398 8.0949 21.0398 7.84175C21.0398 7.5886 20.833 7.38338 20.578 7.38338C20.323 7.38338 20.1162 7.5886 20.1162 7.84175C20.1162 8.0949 20.323 8.30012 20.578 8.30012Z" fill="black"/>
<path d="M21.8788 8.30012C22.1338 8.30012 22.3406 8.0949 22.3406 7.84175C22.3406 7.5886 22.1338 7.38338 21.8788 7.38338C21.6237 7.38338 21.417 7.5886 21.417 7.84175C21.417 8.0949 21.6237 8.30012 21.8788 8.30012Z" fill="black"/>
<path d="M23.1796 8.30012C23.4346 8.30012 23.6413 8.0949 23.6413 7.84175C23.6413 7.5886 23.4346 7.38338 23.1796 7.38338C22.9245 7.38338 22.7178 7.5886 22.7178 7.84175C22.7178 8.0949 22.9245 8.30012 23.1796 8.30012Z" fill="black"/>
<path d="M24.4798 8.30012C24.7349 8.30012 24.9416 8.0949 24.9416 7.84175C24.9416 7.5886 24.7349 7.38338 24.4798 7.38338C24.2248 7.38338 24.0181 7.5886 24.0181 7.84175C24.0181 8.0949 24.2248 8.30012 24.4798 8.30012Z" fill="black"/>
<path d="M25.7806 8.30012C26.0357 8.30012 26.2424 8.0949 26.2424 7.84175C26.2424 7.5886 26.0357 7.38338 25.7806 7.38338C25.5256 7.38338 25.3188 7.5886 25.3188 7.84175C25.3188 8.0949 25.5256 8.30012 25.7806 8.30012Z" fill="black"/>
<path d="M27.0809 8.30012C27.336 8.30012 27.5427 8.0949 27.5427 7.84175C27.5427 7.5886 27.336 7.38338 27.0809 7.38338C26.8259 7.38338 26.6191 7.5886 26.6191 7.84175C26.6191 8.0949 26.8259 8.30012 27.0809 8.30012Z" fill="black"/>
<path d="M28.3815 8.30012C28.6365 8.30012 28.8432 8.0949 28.8432 7.84175C28.8432 7.5886 28.6365 7.38338 28.3815 7.38338C28.1264 7.38338 27.9197 7.5886 27.9197 7.84175C27.9197 8.0949 28.1264 8.30012 28.3815 8.30012Z" fill="black"/>
<path d="M5.4403 9.27993C5.4403 9.4015 5.39164 9.51809 5.30504 9.60405C5.21844 9.69001 5.10099 9.7383 4.97852 9.7383C5.04828 9.46487 5.14295 9.19829 5.26136 8.94188C5.31449 8.98161 5.35809 9.03253 5.38903 9.09098C5.41997 9.14943 5.43748 9.21396 5.4403 9.27993Z" fill="black"/>
<path d="M6.27794 9.73265C6.53298 9.73265 6.73972 9.52743 6.73972 9.27428C6.73972 9.02112 6.53298 8.8159 6.27794 8.8159C6.02291 8.8159 5.81616 9.02112 5.81616 9.27428C5.81616 9.52743 6.02291 9.73265 6.27794 9.73265Z" fill="black"/>
<path d="M7.57823 9.73265C7.83327 9.73265 8.04001 9.52743 8.04001 9.27428C8.04001 9.02112 7.83327 8.8159 7.57823 8.8159C7.3232 8.8159 7.11646 9.02112 7.11646 9.27428C7.11646 9.52743 7.3232 9.73265 7.57823 9.73265Z" fill="black"/>
<path d="M8.87902 9.73265C9.13405 9.73265 9.3408 9.52743 9.3408 9.27428C9.3408 9.02112 9.13405 8.8159 8.87902 8.8159C8.62398 8.8159 8.41724 9.02112 8.41724 9.27428C8.41724 9.52743 8.62398 9.73265 8.87902 9.73265Z" fill="black"/>
<path d="M10.1803 9.73265C10.4353 9.73265 10.6421 9.52743 10.6421 9.27428C10.6421 9.02112 10.4353 8.8159 10.1803 8.8159C9.92525 8.8159 9.71851 9.02112 9.71851 9.27428C9.71851 9.52743 9.92525 9.73265 10.1803 9.73265Z" fill="black"/>
<path d="M11.474 9.73265C11.729 9.73265 11.9358 9.52743 11.9358 9.27428C11.9358 9.02112 11.729 8.8159 11.474 8.8159C11.219 8.8159 11.0122 9.02112 11.0122 9.27428C11.0122 9.52743 11.219 9.73265 11.474 9.73265Z" fill="black"/>
<path d="M12.7745 9.73265C13.0296 9.73265 13.2363 9.52743 13.2363 9.27428C13.2363 9.02112 13.0296 8.8159 12.7745 8.8159C12.5195 8.8159 12.3127 9.02112 12.3127 9.27428C12.3127 9.52743 12.5195 9.73265 12.7745 9.73265Z" fill="black"/>
<path d="M14.0753 9.73265C14.3303 9.73265 14.5371 9.52743 14.5371 9.27428C14.5371 9.02112 14.3303 8.8159 14.0753 8.8159C13.8203 8.8159 13.6135 9.02112 13.6135 9.27428C13.6135 9.52743 13.8203 9.73265 14.0753 9.73265Z" fill="black"/>
<path d="M15.3761 9.73265C15.6311 9.73265 15.8379 9.52743 15.8379 9.27428C15.8379 9.02112 15.6311 8.8159 15.3761 8.8159C15.1211 8.8159 14.9143 9.02112 14.9143 9.27428C14.9143 9.52743 15.1211 9.73265 15.3761 9.73265Z" fill="black"/>
<path d="M16.6764 9.73265C16.9314 9.73265 17.1382 9.52743 17.1382 9.27428C17.1382 9.02112 16.9314 8.8159 16.6764 8.8159C16.4213 8.8159 16.2146 9.02112 16.2146 9.27428C16.2146 9.52743 16.4213 9.73265 16.6764 9.73265Z" fill="black"/>
<path d="M17.9767 9.73265C18.2317 9.73265 18.4385 9.52743 18.4385 9.27428C18.4385 9.02112 18.2317 8.8159 17.9767 8.8159C17.7216 8.8159 17.5149 9.02112 17.5149 9.27428C17.5149 9.52743 17.7216 9.73265 17.9767 9.73265Z" fill="black"/>
<path d="M19.2782 9.73265C19.5332 9.73265 19.74 9.52743 19.74 9.27428C19.74 9.02112 19.5332 8.8159 19.2782 8.8159C19.0232 8.8159 18.8164 9.02112 18.8164 9.27428C18.8164 9.52743 19.0232 9.73265 19.2782 9.73265Z" fill="black"/>
<path d="M20.578 9.73265C20.833 9.73265 21.0398 9.52743 21.0398 9.27428C21.0398 9.02112 20.833 8.8159 20.578 8.8159C20.323 8.8159 20.1162 9.02112 20.1162 9.27428C20.1162 9.52743 20.323 9.73265 20.578 9.73265Z" fill="black"/>
<path d="M21.8788 9.73265C22.1338 9.73265 22.3406 9.52743 22.3406 9.27428C22.3406 9.02112 22.1338 8.8159 21.8788 8.8159C21.6237 8.8159 21.417 9.02112 21.417 9.27428C21.417 9.52743 21.6237 9.73265 21.8788 9.73265Z" fill="black"/>
<path d="M23.1796 9.73265C23.4346 9.73265 23.6413 9.52743 23.6413 9.27428C23.6413 9.02112 23.4346 8.8159 23.1796 8.8159C22.9245 8.8159 22.7178 9.02112 22.7178 9.27428C22.7178 9.52743 22.9245 9.73265 23.1796 9.73265Z" fill="black"/>
<path d="M24.4798 9.73265C24.7349 9.73265 24.9416 9.52743 24.9416 9.27428C24.9416 9.02112 24.7349 8.8159 24.4798 8.8159C24.2248 8.8159 24.0181 9.02112 24.0181 9.27428C24.0181 9.52743 24.2248 9.73265 24.4798 9.73265Z" fill="black"/>
<path d="M25.7806 9.73265C26.0357 9.73265 26.2424 9.52743 26.2424 9.27428C26.2424 9.02112 26.0357 8.8159 25.7806 8.8159C25.5256 8.8159 25.3188 9.02112 25.3188 9.27428C25.3188 9.52743 25.5256 9.73265 25.7806 9.73265Z" fill="black"/>
<path d="M27.0809 9.73265C27.336 9.73265 27.5427 9.52743 27.5427 9.27428C27.5427 9.02112 27.336 8.8159 27.0809 8.8159C26.8259 8.8159 26.6191 9.02112 26.6191 9.27428C26.6191 9.52743 26.8259 9.73265 27.0809 9.73265Z" fill="black"/>
<path d="M28.3815 9.73265C28.6365 9.73265 28.8432 9.52743 28.8432 9.27428C28.8432 9.02112 28.6365 8.8159 28.3815 8.8159C28.1264 8.8159 27.9197 9.02112 27.9197 9.27428C27.9197 9.52743 28.1264 9.73265 28.3815 9.73265Z" fill="black"/>
<path d="M5.43856 10.7119C5.43932 10.7726 5.42794 10.8328 5.40508 10.8891C5.38221 10.9453 5.34832 10.9965 5.30536 11.0397C5.26241 11.0829 5.21124 11.1172 5.15484 11.1406C5.09843 11.1639 5.03791 11.176 4.97678 11.176C4.91163 11.1721 4.84743 11.1585 4.78629 11.1359C4.78405 10.8482 4.80528 10.5607 4.84979 10.2764C4.89133 10.2649 4.93524 10.2649 4.97678 10.2764C5.09535 10.2763 5.20944 10.3214 5.29541 10.4025C5.38137 10.4835 5.43263 10.5943 5.43856 10.7119Z" fill="black"/>
<path d="M6.27794 11.1708C6.53298 11.1708 6.73972 10.9656 6.73972 10.7125C6.73972 10.4593 6.53298 10.2541 6.27794 10.2541C6.02291 10.2541 5.81616 10.4593 5.81616 10.7125C5.81616 10.9656 6.02291 11.1708 6.27794 11.1708Z" fill="black"/>
<path d="M7.57823 11.1708C7.83327 11.1708 8.04001 10.9656 8.04001 10.7125C8.04001 10.4593 7.83327 10.2541 7.57823 10.2541C7.3232 10.2541 7.11646 10.4593 7.11646 10.7125C7.11646 10.9656 7.3232 11.1708 7.57823 11.1708Z" fill="black"/>
<path d="M8.87902 11.1708C9.13405 11.1708 9.3408 10.9656 9.3408 10.7125C9.3408 10.4593 9.13405 10.2541 8.87902 10.2541C8.62398 10.2541 8.41724 10.4593 8.41724 10.7125C8.41724 10.9656 8.62398 11.1708 8.87902 11.1708Z" fill="black"/>
<path d="M10.1803 11.1708C10.4353 11.1708 10.6421 10.9656 10.6421 10.7125C10.6421 10.4593 10.4353 10.2541 10.1803 10.2541C9.92525 10.2541 9.71851 10.4593 9.71851 10.7125C9.71851 10.9656 9.92525 11.1708 10.1803 11.1708Z" fill="black"/>
<path d="M11.474 11.1708C11.729 11.1708 11.9358 10.9656 11.9358 10.7125C11.9358 10.4593 11.729 10.2541 11.474 10.2541C11.219 10.2541 11.0122 10.4593 11.0122 10.7125C11.0122 10.9656 11.219 11.1708 11.474 11.1708Z" fill="black"/>
<path d="M12.7745 11.1708C13.0296 11.1708 13.2363 10.9656 13.2363 10.7125C13.2363 10.4593 13.0296 10.2541 12.7745 10.2541C12.5195 10.2541 12.3127 10.4593 12.3127 10.7125C12.3127 10.9656 12.5195 11.1708 12.7745 11.1708Z" fill="black"/>
<path d="M14.0753 11.1708C14.3303 11.1708 14.5371 10.9656 14.5371 10.7125C14.5371 10.4593 14.3303 10.2541 14.0753 10.2541C13.8203 10.2541 13.6135 10.4593 13.6135 10.7125C13.6135 10.9656 13.8203 11.1708 14.0753 11.1708Z" fill="black"/>
<path d="M15.3761 11.1708C15.6311 11.1708 15.8379 10.9656 15.8379 10.7125C15.8379 10.4593 15.6311 10.2541 15.3761 10.2541C15.1211 10.2541 14.9143 10.4593 14.9143 10.7125C14.9143 10.9656 15.1211 11.1708 15.3761 11.1708Z" fill="black"/>
<path d="M16.6764 11.1708C16.9314 11.1708 17.1382 10.9656 17.1382 10.7125C17.1382 10.4593 16.9314 10.2541 16.6764 10.2541C16.4213 10.2541 16.2146 10.4593 16.2146 10.7125C16.2146 10.9656 16.4213 11.1708 16.6764 11.1708Z" fill="black"/>
<path d="M17.9767 11.1708C18.2317 11.1708 18.4385 10.9656 18.4385 10.7125C18.4385 10.4593 18.2317 10.2541 17.9767 10.2541C17.7216 10.2541 17.5149 10.4593 17.5149 10.7125C17.5149 10.9656 17.7216 11.1708 17.9767 11.1708Z" fill="black"/>
<path d="M19.2782 11.1708C19.5332 11.1708 19.74 10.9656 19.74 10.7125C19.74 10.4593 19.5332 10.2541 19.2782 10.2541C19.0232 10.2541 18.8164 10.4593 18.8164 10.7125C18.8164 10.9656 19.0232 11.1708 19.2782 11.1708Z" fill="black"/>
<path d="M20.578 11.1708C20.833 11.1708 21.0398 10.9656 21.0398 10.7125C21.0398 10.4593 20.833 10.2541 20.578 10.2541C20.323 10.2541 20.1162 10.4593 20.1162 10.7125C20.1162 10.9656 20.323 11.1708 20.578 11.1708Z" fill="black"/>
<path d="M21.8788 11.1708C22.1338 11.1708 22.3406 10.9656 22.3406 10.7125C22.3406 10.4593 22.1338 10.2541 21.8788 10.2541C21.6237 10.2541 21.417 10.4593 21.417 10.7125C21.417 10.9656 21.6237 11.1708 21.8788 11.1708Z" fill="black"/>
<path d="M23.1796 11.1708C23.4346 11.1708 23.6413 10.9656 23.6413 10.7125C23.6413 10.4593 23.4346 10.2541 23.1796 10.2541C22.9245 10.2541 22.7178 10.4593 22.7178 10.7125C22.7178 10.9656 22.9245 11.1708 23.1796 11.1708Z" fill="black"/>
<path d="M24.4798 11.1708C24.7349 11.1708 24.9416 10.9656 24.9416 10.7125C24.9416 10.4593 24.7349 10.2541 24.4798 10.2541C24.2248 10.2541 24.0181 10.4593 24.0181 10.7125C24.0181 10.9656 24.2248 11.1708 24.4798 11.1708Z" fill="black"/>
<path d="M25.7806 11.1708C26.0357 11.1708 26.2424 10.9656 26.2424 10.7125C26.2424 10.4593 26.0357 10.2541 25.7806 10.2541C25.5256 10.2541 25.3188 10.4593 25.3188 10.7125C25.3188 10.9656 25.5256 11.1708 25.7806 11.1708Z" fill="black"/>
<path d="M27.0809 11.1708C27.336 11.1708 27.5427 10.9656 27.5427 10.7125C27.5427 10.4593 27.336 10.2541 27.0809 10.2541C26.8259 10.2541 26.6191 10.4593 26.6191 10.7125C26.6191 10.9656 26.8259 11.1708 27.0809 11.1708Z" fill="black"/>
<path d="M28.3815 11.1708C28.6365 11.1708 28.8432 10.9656 28.8432 10.7125C28.8432 10.4593 28.6365 10.2541 28.3815 10.2541C28.1264 10.2541 27.9197 10.4593 27.9197 10.7125C27.9197 10.9656 28.1264 11.1708 28.3815 11.1708Z" fill="black"/>
<path d="M5.43974 12.1499C5.43889 12.2629 5.39598 12.3717 5.31927 12.4552C5.24256 12.5388 5.13745 12.5913 5.02414 12.6026C4.93406 12.3144 4.86842 12.0192 4.82788 11.7202C4.87547 11.7 4.92628 11.6884 4.97796 11.6858C5.10096 11.6873 5.21841 11.7369 5.30484 11.8237C5.39128 11.9106 5.43975 12.0278 5.43974 12.1499Z" fill="black"/>
<path d="M6.27794 12.6082C6.53298 12.6082 6.73972 12.403 6.73972 12.1498C6.73972 11.8967 6.53298 11.6915 6.27794 11.6915C6.02291 11.6915 5.81616 11.8967 5.81616 12.1498C5.81616 12.403 6.02291 12.6082 6.27794 12.6082Z" fill="black"/>
<path d="M7.57823 12.6082C7.83327 12.6082 8.04001 12.403 8.04001 12.1498C8.04001 11.8967 7.83327 11.6915 7.57823 11.6915C7.3232 11.6915 7.11646 11.8967 7.11646 12.1498C7.11646 12.403 7.3232 12.6082 7.57823 12.6082Z" fill="black"/>
<path d="M8.87902 12.6082C9.13405 12.6082 9.3408 12.403 9.3408 12.1498C9.3408 11.8967 9.13405 11.6915 8.87902 11.6915C8.62398 11.6915 8.41724 11.8967 8.41724 12.1498C8.41724 12.403 8.62398 12.6082 8.87902 12.6082Z" fill="black"/>
<path d="M10.1803 12.6082C10.4353 12.6082 10.6421 12.403 10.6421 12.1498C10.6421 11.8967 10.4353 11.6915 10.1803 11.6915C9.92525 11.6915 9.71851 11.8967 9.71851 12.1498C9.71851 12.403 9.92525 12.6082 10.1803 12.6082Z" fill="black"/>
<path d="M11.474 12.6082C11.729 12.6082 11.9358 12.403 11.9358 12.1498C11.9358 11.8967 11.729 11.6915 11.474 11.6915C11.219 11.6915 11.0122 11.8967 11.0122 12.1498C11.0122 12.403 11.219 12.6082 11.474 12.6082Z" fill="black"/>
<path d="M12.7745 12.6082C13.0296 12.6082 13.2363 12.403 13.2363 12.1498C13.2363 11.8967 13.0296 11.6915 12.7745 11.6915C12.5195 11.6915 12.3127 11.8967 12.3127 12.1498C12.3127 12.403 12.5195 12.6082 12.7745 12.6082Z" fill="black"/>
<path d="M14.0753 12.6082C14.3303 12.6082 14.5371 12.403 14.5371 12.1498C14.5371 11.8967 14.3303 11.6915 14.0753 11.6915C13.8203 11.6915 13.6135 11.8967 13.6135 12.1498C13.6135 12.403 13.8203 12.6082 14.0753 12.6082Z" fill="black"/>
<path d="M15.3761 12.6082C15.6311 12.6082 15.8379 12.403 15.8379 12.1498C15.8379 11.8967 15.6311 11.6915 15.3761 11.6915C15.1211 11.6915 14.9143 11.8967 14.9143 12.1498C14.9143 12.403 15.1211 12.6082 15.3761 12.6082Z" fill="black"/>
<path d="M16.6764 12.6082C16.9314 12.6082 17.1382 12.403 17.1382 12.1498C17.1382 11.8967 16.9314 11.6915 16.6764 11.6915C16.4213 11.6915 16.2146 11.8967 16.2146 12.1498C16.2146 12.403 16.4213 12.6082 16.6764 12.6082Z" fill="black"/>
<path d="M17.9767 12.6082C18.2317 12.6082 18.4385 12.403 18.4385 12.1498C18.4385 11.8967 18.2317 11.6915 17.9767 11.6915C17.7216 11.6915 17.5149 11.8967 17.5149 12.1498C17.5149 12.403 17.7216 12.6082 17.9767 12.6082Z" fill="black"/>
<path d="M19.2782 12.6082C19.5332 12.6082 19.74 12.403 19.74 12.1498C19.74 11.8967 19.5332 11.6915 19.2782 11.6915C19.0232 11.6915 18.8164 11.8967 18.8164 12.1498C18.8164 12.403 19.0232 12.6082 19.2782 12.6082Z" fill="black"/>
<path d="M20.578 12.6082C20.833 12.6082 21.0398 12.403 21.0398 12.1498C21.0398 11.8967 20.833 11.6915 20.578 11.6915C20.323 11.6915 20.1162 11.8967 20.1162 12.1498C20.1162 12.403 20.323 12.6082 20.578 12.6082Z" fill="black"/>
<path d="M21.8788 12.6082C22.1338 12.6082 22.3406 12.403 22.3406 12.1498C22.3406 11.8967 22.1338 11.6915 21.8788 11.6915C21.6237 11.6915 21.417 11.8967 21.417 12.1498C21.417 12.403 21.6237 12.6082 21.8788 12.6082Z" fill="black"/>
<path d="M23.1796 12.6082C23.4346 12.6082 23.6413 12.403 23.6413 12.1498C23.6413 11.8967 23.4346 11.6915 23.1796 11.6915C22.9245 11.6915 22.7178 11.8967 22.7178 12.1498C22.7178 12.403 22.9245 12.6082 23.1796 12.6082Z" fill="black"/>
<path d="M24.4798 12.6082C24.7349 12.6082 24.9416 12.403 24.9416 12.1498C24.9416 11.8967 24.7349 11.6915 24.4798 11.6915C24.2248 11.6915 24.0181 11.8967 24.0181 12.1498C24.0181 12.403 24.2248 12.6082 24.4798 12.6082Z" fill="black"/>
<path d="M25.7806 12.6082C26.0357 12.6082 26.2424 12.403 26.2424 12.1498C26.2424 11.8967 26.0357 11.6915 25.7806 11.6915C25.5256 11.6915 25.3188 11.8967 25.3188 12.1498C25.3188 12.403 25.5256 12.6082 25.7806 12.6082Z" fill="black"/>
<path d="M27.0809 12.6082C27.336 12.6082 27.5427 12.403 27.5427 12.1498C27.5427 11.8967 27.336 11.6915 27.0809 11.6915C26.8259 11.6915 26.6191 11.8967 26.6191 12.1498C26.6191 12.403 26.8259 12.6082 27.0809 12.6082Z" fill="black"/>
<path d="M28.3815 12.6082C28.6365 12.6082 28.8432 12.403 28.8432 12.1498C28.8432 11.8967 28.6365 11.6915 28.3815 11.6915C28.1264 11.6915 27.9197 11.8967 27.9197 12.1498C27.9197 12.403 28.1264 12.6082 28.3815 12.6082Z" fill="black"/>
<path d="M4.1335 13.6456C4.11949 13.756 4.06549 13.8576 3.98159 13.9314C3.89768 14.0052 3.7896 14.0462 3.67749 14.0467C3.58813 14.0414 3.50298 14.0072 3.43506 13.9493C3.66096 13.8331 3.89427 13.7316 4.1335 13.6456Z" fill="black"/>
<path d="M5.43969 13.5885C5.43969 13.71 5.39104 13.8266 5.30444 13.9126C5.21784 13.9986 5.10038 14.0468 4.97791 14.0468C4.85544 14.0468 4.73799 13.9986 4.65138 13.9126C4.56478 13.8266 4.51613 13.71 4.51613 13.5885C4.5135 13.5637 4.5135 13.5387 4.51613 13.514C4.76838 13.4356 5.02464 13.3706 5.28384 13.3192L5.23766 13.216C5.29934 13.2571 5.34999 13.3125 5.3852 13.3774C5.42041 13.4423 5.43911 13.5148 5.43969 13.5885Z" fill="black"/>
<path d="M6.27794 14.0415C6.53298 14.0415 6.73972 13.8363 6.73972 13.5832C6.73972 13.33 6.53298 13.1248 6.27794 13.1248C6.02291 13.1248 5.81616 13.33 5.81616 13.5832C5.81616 13.8363 6.02291 14.0415 6.27794 14.0415Z" fill="black"/>
<path d="M7.57823 14.0415C7.83327 14.0415 8.04001 13.8363 8.04001 13.5832C8.04001 13.33 7.83327 13.1248 7.57823 13.1248C7.3232 13.1248 7.11646 13.33 7.11646 13.5832C7.11646 13.8363 7.3232 14.0415 7.57823 14.0415Z" fill="black"/>
<path d="M8.87902 14.0415C9.13405 14.0415 9.3408 13.8363 9.3408 13.5832C9.3408 13.33 9.13405 13.1248 8.87902 13.1248C8.62398 13.1248 8.41724 13.33 8.41724 13.5832C8.41724 13.8363 8.62398 14.0415 8.87902 14.0415Z" fill="black"/>
<path d="M10.1803 14.0415C10.4353 14.0415 10.6421 13.8363 10.6421 13.5832C10.6421 13.33 10.4353 13.1248 10.1803 13.1248C9.92525 13.1248 9.71851 13.33 9.71851 13.5832C9.71851 13.8363 9.92525 14.0415 10.1803 14.0415Z" fill="black"/>
<path d="M11.474 14.0415C11.729 14.0415 11.9358 13.8363 11.9358 13.5832C11.9358 13.33 11.729 13.1248 11.474 13.1248C11.219 13.1248 11.0122 13.33 11.0122 13.5832C11.0122 13.8363 11.219 14.0415 11.474 14.0415Z" fill="black"/>
<path d="M12.7745 14.0415C13.0296 14.0415 13.2363 13.8363 13.2363 13.5832C13.2363 13.33 13.0296 13.1248 12.7745 13.1248C12.5195 13.1248 12.3127 13.33 12.3127 13.5832C12.3127 13.8363 12.5195 14.0415 12.7745 14.0415Z" fill="black"/>
<path d="M14.0753 14.0415C14.3303 14.0415 14.5371 13.8363 14.5371 13.5832C14.5371 13.33 14.3303 13.1248 14.0753 13.1248C13.8203 13.1248 13.6135 13.33 13.6135 13.5832C13.6135 13.8363 13.8203 14.0415 14.0753 14.0415Z" fill="black"/>
<path d="M15.3761 14.0415C15.6311 14.0415 15.8379 13.8363 15.8379 13.5832C15.8379 13.33 15.6311 13.1248 15.3761 13.1248C15.1211 13.1248 14.9143 13.33 14.9143 13.5832C14.9143 13.8363 15.1211 14.0415 15.3761 14.0415Z" fill="black"/>
<path d="M16.6764 14.0415C16.9314 14.0415 17.1382 13.8363 17.1382 13.5832C17.1382 13.33 16.9314 13.1248 16.6764 13.1248C16.4213 13.1248 16.2146 13.33 16.2146 13.5832C16.2146 13.8363 16.4213 14.0415 16.6764 14.0415Z" fill="black"/>
<path d="M17.9767 14.0415C18.2317 14.0415 18.4385 13.8363 18.4385 13.5832C18.4385 13.33 18.2317 13.1248 17.9767 13.1248C17.7216 13.1248 17.5149 13.33 17.5149 13.5832C17.5149 13.8363 17.7216 14.0415 17.9767 14.0415Z" fill="black"/>
<path d="M19.2782 14.0415C19.5332 14.0415 19.74 13.8363 19.74 13.5832C19.74 13.33 19.5332 13.1248 19.2782 13.1248C19.0232 13.1248 18.8164 13.33 18.8164 13.5832C18.8164 13.8363 19.0232 14.0415 19.2782 14.0415Z" fill="black"/>
<path d="M20.578 14.0415C20.833 14.0415 21.0398 13.8363 21.0398 13.5832C21.0398 13.33 20.833 13.1248 20.578 13.1248C20.323 13.1248 20.1162 13.33 20.1162 13.5832C20.1162 13.8363 20.323 14.0415 20.578 14.0415Z" fill="black"/>
<path d="M21.8788 14.0415C22.1338 14.0415 22.3406 13.8363 22.3406 13.5832C22.3406 13.33 22.1338 13.1248 21.8788 13.1248C21.6237 13.1248 21.417 13.33 21.417 13.5832C21.417 13.8363 21.6237 14.0415 21.8788 14.0415Z" fill="black"/>
<path d="M23.1796 14.0415C23.4346 14.0415 23.6413 13.8363 23.6413 13.5832C23.6413 13.33 23.4346 13.1248 23.1796 13.1248C22.9245 13.1248 22.7178 13.33 22.7178 13.5832C22.7178 13.8363 22.9245 14.0415 23.1796 14.0415Z" fill="black"/>
<path d="M24.4798 14.0415C24.7349 14.0415 24.9416 13.8363 24.9416 13.5832C24.9416 13.33 24.7349 13.1248 24.4798 13.1248C24.2248 13.1248 24.0181 13.33 24.0181 13.5832C24.0181 13.8363 24.2248 14.0415 24.4798 14.0415Z" fill="black"/>
<path d="M25.7806 14.0415C26.0357 14.0415 26.2424 13.8363 26.2424 13.5832C26.2424 13.33 26.0357 13.1248 25.7806 13.1248C25.5256 13.1248 25.3188 13.33 25.3188 13.5832C25.3188 13.8363 25.5256 14.0415 25.7806 14.0415Z" fill="black"/>
<path d="M27.0809 14.0415C27.336 14.0415 27.5427 13.8363 27.5427 13.5832C27.5427 13.33 27.336 13.1248 27.0809 13.1248C26.8259 13.1248 26.6191 13.33 26.6191 13.5832C26.6191 13.8363 26.8259 14.0415 27.0809 14.0415Z" fill="black"/>
<path d="M28.3815 14.0415C28.6365 14.0415 28.8432 13.8363 28.8432 13.5832C28.8432 13.33 28.6365 13.1248 28.3815 13.1248C28.1264 13.1248 27.9197 13.33 27.9197 13.5832C27.9197 13.8363 28.1264 14.0415 28.3815 14.0415Z" fill="black"/>
<path d="M2.85496 15.0205C2.85496 15.1421 2.8063 15.2587 2.7197 15.3446C2.6331 15.4306 2.51565 15.4789 2.39318 15.4789C2.2707 15.4789 2.15325 15.4306 2.06665 15.3446C1.98005 15.2587 1.9314 15.1421 1.9314 15.0205L1.96603 14.9862C2.01693 14.928 2.07088 14.8725 2.12765 14.82C2.12765 14.82 2.16229 14.7856 2.1796 14.7799C2.25814 14.7027 2.34101 14.63 2.42781 14.5622C2.54468 14.5695 2.65423 14.6212 2.73375 14.7065C2.81327 14.7919 2.85667 14.9043 2.85496 15.0205Z" fill="black"/>
<path d="M3.67662 15.4789C3.93166 15.4789 4.1384 15.2737 4.1384 15.0205C4.1384 14.7674 3.93166 14.5622 3.67662 14.5622C3.42159 14.5622 3.21484 14.7674 3.21484 15.0205C3.21484 15.2737 3.42159 15.4789 3.67662 15.4789Z" fill="black"/>
<path d="M4.97765 15.4789C5.23268 15.4789 5.43943 15.2737 5.43943 15.0205C5.43943 14.7674 5.23268 14.5622 4.97765 14.5622C4.72262 14.5622 4.51587 14.7674 4.51587 15.0205C4.51587 15.2737 4.72262 15.4789 4.97765 15.4789Z" fill="black"/>
<path d="M6.27794 15.4789C6.53298 15.4789 6.73972 15.2737 6.73972 15.0205C6.73972 14.7674 6.53298 14.5622 6.27794 14.5622C6.02291 14.5622 5.81616 14.7674 5.81616 15.0205C5.81616 15.2737 6.02291 15.4789 6.27794 15.4789Z" fill="black"/>
<path d="M7.57823 15.4789C7.83327 15.4789 8.04001 15.2737 8.04001 15.0205C8.04001 14.7674 7.83327 14.5622 7.57823 14.5622C7.3232 14.5622 7.11646 14.7674 7.11646 15.0205C7.11646 15.2737 7.3232 15.4789 7.57823 15.4789Z" fill="black"/>
<path d="M8.87902 15.4789C9.13405 15.4789 9.3408 15.2737 9.3408 15.0205C9.3408 14.7674 9.13405 14.5622 8.87902 14.5622C8.62398 14.5622 8.41724 14.7674 8.41724 15.0205C8.41724 15.2737 8.62398 15.4789 8.87902 15.4789Z" fill="black"/>
<path d="M10.1803 15.4789C10.4353 15.4789 10.6421 15.2737 10.6421 15.0205C10.6421 14.7674 10.4353 14.5622 10.1803 14.5622C9.92525 14.5622 9.71851 14.7674 9.71851 15.0205C9.71851 15.2737 9.92525 15.4789 10.1803 15.4789Z" fill="black"/>
<path d="M11.474 15.4789C11.729 15.4789 11.9358 15.2737 11.9358 15.0205C11.9358 14.7674 11.729 14.5622 11.474 14.5622C11.219 14.5622 11.0122 14.7674 11.0122 15.0205C11.0122 15.2737 11.219 15.4789 11.474 15.4789Z" fill="black"/>
<path d="M12.7745 15.4789C13.0296 15.4789 13.2363 15.2737 13.2363 15.0205C13.2363 14.7674 13.0296 14.5622 12.7745 14.5622C12.5195 14.5622 12.3127 14.7674 12.3127 15.0205C12.3127 15.2737 12.5195 15.4789 12.7745 15.4789Z" fill="black"/>
<path d="M14.0753 15.4789C14.3303 15.4789 14.5371 15.2737 14.5371 15.0205C14.5371 14.7674 14.3303 14.5622 14.0753 14.5622C13.8203 14.5622 13.6135 14.7674 13.6135 15.0205C13.6135 15.2737 13.8203 15.4789 14.0753 15.4789Z" fill="black"/>
<path d="M15.3761 15.4789C15.6311 15.4789 15.8379 15.2737 15.8379 15.0205C15.8379 14.7674 15.6311 14.5622 15.3761 14.5622C15.1211 14.5622 14.9143 14.7674 14.9143 15.0205C14.9143 15.2737 15.1211 15.4789 15.3761 15.4789Z" fill="black"/>
<path d="M16.6764 15.4789C16.9314 15.4789 17.1382 15.2737 17.1382 15.0205C17.1382 14.7674 16.9314 14.5622 16.6764 14.5622C16.4213 14.5622 16.2146 14.7674 16.2146 15.0205C16.2146 15.2737 16.4213 15.4789 16.6764 15.4789Z" fill="black"/>
<path d="M17.9767 15.4789C18.2317 15.4789 18.4385 15.2737 18.4385 15.0205C18.4385 14.7674 18.2317 14.5622 17.9767 14.5622C17.7216 14.5622 17.5149 14.7674 17.5149 15.0205C17.5149 15.2737 17.7216 15.4789 17.9767 15.4789Z" fill="black"/>
<path d="M19.2782 15.4789C19.5332 15.4789 19.74 15.2737 19.74 15.0205C19.74 14.7674 19.5332 14.5622 19.2782 14.5622C19.0232 14.5622 18.8164 14.7674 18.8164 15.0205C18.8164 15.2737 19.0232 15.4789 19.2782 15.4789Z" fill="black"/>
<path d="M20.578 15.4789C20.833 15.4789 21.0398 15.2737 21.0398 15.0205C21.0398 14.7674 20.833 14.5622 20.578 14.5622C20.323 14.5622 20.1162 14.7674 20.1162 15.0205C20.1162 15.2737 20.323 15.4789 20.578 15.4789Z" fill="black"/>
<path d="M21.8788 15.4789C22.1338 15.4789 22.3406 15.2737 22.3406 15.0205C22.3406 14.7674 22.1338 14.5622 21.8788 14.5622C21.6237 14.5622 21.417 14.7674 21.417 15.0205C21.417 15.2737 21.6237 15.4789 21.8788 15.4789Z" fill="black"/>
<path d="M23.1796 15.4789C23.4346 15.4789 23.6413 15.2737 23.6413 15.0205C23.6413 14.7674 23.4346 14.5622 23.1796 14.5622C22.9245 14.5622 22.7178 14.7674 22.7178 15.0205C22.7178 15.2737 22.9245 15.4789 23.1796 15.4789Z" fill="black"/>
<path d="M24.4798 15.4789C24.7349 15.4789 24.9416 15.2737 24.9416 15.0205C24.9416 14.7674 24.7349 14.5622 24.4798 14.5622C24.2248 14.5622 24.0181 14.7674 24.0181 15.0205C24.0181 15.2737 24.2248 15.4789 24.4798 15.4789Z" fill="black"/>
<path d="M25.7806 15.4789C26.0357 15.4789 26.2424 15.2737 26.2424 15.0205C26.2424 14.7674 26.0357 14.5622 25.7806 14.5622C25.5256 14.5622 25.3188 14.7674 25.3188 15.0205C25.3188 15.2737 25.5256 15.4789 25.7806 15.4789Z" fill="black"/>
<path d="M27.0809 15.4789C27.336 15.4789 27.5427 15.2737 27.5427 15.0205C27.5427 14.7674 27.336 14.5622 27.0809 14.5622C26.8259 14.5622 26.6191 14.7674 26.6191 15.0205C26.6191 15.2737 26.8259 15.4789 27.0809 15.4789Z" fill="black"/>
<path d="M28.3815 15.4789C28.6365 15.4789 28.8432 15.2737 28.8432 15.0205C28.8432 14.7674 28.6365 14.5622 28.3815 14.5622C28.1264 14.5622 27.9197 14.7674 27.9197 15.0205C27.9197 15.2737 28.1264 15.4789 28.3815 15.4789Z" fill="black"/>
<path d="M1.53743 16.4524C1.53819 16.5131 1.52681 16.5733 1.50395 16.6296C1.48109 16.6859 1.44719 16.7371 1.40424 16.7803C1.36128 16.8234 1.31012 16.8577 1.25371 16.8811C1.1973 16.9045 1.13678 16.9165 1.07565 16.9165C1.00756 16.9164 0.940412 16.9007 0.879395 16.8707C0.907277 16.7629 0.943956 16.6575 0.989067 16.5556C1.0071 16.4982 1.03028 16.4426 1.05833 16.3894C1.10714 16.2697 1.16303 16.153 1.22573 16.0399C1.31338 16.0697 1.38998 16.125 1.44557 16.1985C1.50115 16.2721 1.53316 16.3606 1.53743 16.4524Z" fill="black"/>
<path d="M2.37535 16.9171C2.63039 16.9171 2.83713 16.7119 2.83713 16.4587C2.83713 16.2056 2.63039 16.0003 2.37535 16.0003C2.12032 16.0003 1.91357 16.2056 1.91357 16.4587C1.91357 16.7119 2.12032 16.9171 2.37535 16.9171Z" fill="black"/>
<path d="M3.67662 16.9171C3.93166 16.9171 4.1384 16.7119 4.1384 16.4587C4.1384 16.2056 3.93166 16.0003 3.67662 16.0003C3.42159 16.0003 3.21484 16.2056 3.21484 16.4587C3.21484 16.7119 3.42159 16.9171 3.67662 16.9171Z" fill="black"/>
<path d="M4.97765 16.9171C5.23268 16.9171 5.43943 16.7119 5.43943 16.4587C5.43943 16.2056 5.23268 16.0003 4.97765 16.0003C4.72262 16.0003 4.51587 16.2056 4.51587 16.4587C4.51587 16.7119 4.72262 16.9171 4.97765 16.9171Z" fill="black"/>
<path d="M6.27794 16.9171C6.53298 16.9171 6.73972 16.7119 6.73972 16.4587C6.73972 16.2056 6.53298 16.0003 6.27794 16.0003C6.02291 16.0003 5.81616 16.2056 5.81616 16.4587C5.81616 16.7119 6.02291 16.9171 6.27794 16.9171Z" fill="black"/>
<path d="M7.57823 16.9171C7.83327 16.9171 8.04001 16.7119 8.04001 16.4587C8.04001 16.2056 7.83327 16.0003 7.57823 16.0003C7.3232 16.0003 7.11646 16.2056 7.11646 16.4587C7.11646 16.7119 7.3232 16.9171 7.57823 16.9171Z" fill="black"/>
<path d="M8.87902 16.9171C9.13405 16.9171 9.3408 16.7119 9.3408 16.4587C9.3408 16.2056 9.13405 16.0003 8.87902 16.0003C8.62398 16.0003 8.41724 16.2056 8.41724 16.4587C8.41724 16.7119 8.62398 16.9171 8.87902 16.9171Z" fill="black"/>
<path d="M10.1803 16.9171C10.4353 16.9171 10.6421 16.7119 10.6421 16.4587C10.6421 16.2056 10.4353 16.0003 10.1803 16.0003C9.92525 16.0003 9.71851 16.2056 9.71851 16.4587C9.71851 16.7119 9.92525 16.9171 10.1803 16.9171Z" fill="black"/>
<path d="M11.474 16.9171C11.729 16.9171 11.9358 16.7119 11.9358 16.4587C11.9358 16.2056 11.729 16.0003 11.474 16.0003C11.219 16.0003 11.0122 16.2056 11.0122 16.4587C11.0122 16.7119 11.219 16.9171 11.474 16.9171Z" fill="black"/>
<path d="M12.7745 16.9171C13.0296 16.9171 13.2363 16.7119 13.2363 16.4587C13.2363 16.2056 13.0296 16.0003 12.7745 16.0003C12.5195 16.0003 12.3127 16.2056 12.3127 16.4587C12.3127 16.7119 12.5195 16.9171 12.7745 16.9171Z" fill="black"/>
<path d="M14.0753 16.9171C14.3303 16.9171 14.5371 16.7119 14.5371 16.4587C14.5371 16.2056 14.3303 16.0003 14.0753 16.0003C13.8203 16.0003 13.6135 16.2056 13.6135 16.4587C13.6135 16.7119 13.8203 16.9171 14.0753 16.9171Z" fill="black"/>
<path d="M15.3761 16.9171C15.6311 16.9171 15.8379 16.7119 15.8379 16.4587C15.8379 16.2056 15.6311 16.0003 15.3761 16.0003C15.1211 16.0003 14.9143 16.2056 14.9143 16.4587C14.9143 16.7119 15.1211 16.9171 15.3761 16.9171Z" fill="black"/>
<path d="M16.6764 16.9171C16.9314 16.9171 17.1382 16.7119 17.1382 16.4587C17.1382 16.2056 16.9314 16.0003 16.6764 16.0003C16.4213 16.0003 16.2146 16.2056 16.2146 16.4587C16.2146 16.7119 16.4213 16.9171 16.6764 16.9171Z" fill="black"/>
<path d="M17.9767 16.9171C18.2317 16.9171 18.4385 16.7119 18.4385 16.4587C18.4385 16.2056 18.2317 16.0003 17.9767 16.0003C17.7216 16.0003 17.5149 16.2056 17.5149 16.4587C17.5149 16.7119 17.7216 16.9171 17.9767 16.9171Z" fill="black"/>
<path d="M19.2782 16.9171C19.5332 16.9171 19.74 16.7119 19.74 16.4587C19.74 16.2056 19.5332 16.0003 19.2782 16.0003C19.0232 16.0003 18.8164 16.2056 18.8164 16.4587C18.8164 16.7119 19.0232 16.9171 19.2782 16.9171Z" fill="black"/>
<path d="M20.578 16.9171C20.833 16.9171 21.0398 16.7119 21.0398 16.4587C21.0398 16.2056 20.833 16.0003 20.578 16.0003C20.323 16.0003 20.1162 16.2056 20.1162 16.4587C20.1162 16.7119 20.323 16.9171 20.578 16.9171Z" fill="black"/>
<path d="M21.8788 16.9171C22.1338 16.9171 22.3406 16.7119 22.3406 16.4587C22.3406 16.2056 22.1338 16.0003 21.8788 16.0003C21.6237 16.0003 21.417 16.2056 21.417 16.4587C21.417 16.7119 21.6237 16.9171 21.8788 16.9171Z" fill="black"/>
<path d="M23.1796 16.9171C23.4346 16.9171 23.6413 16.7119 23.6413 16.4587C23.6413 16.2056 23.4346 16.0003 23.1796 16.0003C22.9245 16.0003 22.7178 16.2056 22.7178 16.4587C22.7178 16.7119 22.9245 16.9171 23.1796 16.9171Z" fill="black"/>
<path d="M24.4798 16.9171C24.7349 16.9171 24.9416 16.7119 24.9416 16.4587C24.9416 16.2056 24.7349 16.0003 24.4798 16.0003C24.2248 16.0003 24.0181 16.2056 24.0181 16.4587C24.0181 16.7119 24.2248 16.9171 24.4798 16.9171Z" fill="black"/>
<path d="M25.7806 16.9171C26.0357 16.9171 26.2424 16.7119 26.2424 16.4587C26.2424 16.2056 26.0357 16.0003 25.7806 16.0003C25.5256 16.0003 25.3188 16.2056 25.3188 16.4587C25.3188 16.7119 25.5256 16.9171 25.7806 16.9171Z" fill="black"/>
<path d="M27.0809 16.9171C27.336 16.9171 27.5427 16.7119 27.5427 16.4587C27.5427 16.2056 27.336 16.0003 27.0809 16.0003C26.8259 16.0003 26.6191 16.2056 26.6191 16.4587C26.6191 16.7119 26.8259 16.9171 27.0809 16.9171Z" fill="black"/>
<path d="M1.07555 18.3496C1.33058 18.3496 1.53733 18.1444 1.53733 17.8912C1.53733 17.6381 1.33058 17.4329 1.07555 17.4329C0.820515 17.4329 0.61377 17.6381 0.61377 17.8912C0.61377 18.1444 0.820515 18.3496 1.07555 18.3496Z" fill="black"/>
<path d="M2.37535 18.3496C2.63039 18.3496 2.83713 18.1444 2.83713 17.8912C2.83713 17.6381 2.63039 17.4329 2.37535 17.4329C2.12032 17.4329 1.91357 17.6381 1.91357 17.8912C1.91357 18.1444 2.12032 18.3496 2.37535 18.3496Z" fill="black"/>
<path d="M3.67662 18.3496C3.93166 18.3496 4.1384 18.1444 4.1384 17.8912C4.1384 17.6381 3.93166 17.4329 3.67662 17.4329C3.42159 17.4329 3.21484 17.6381 3.21484 17.8912C3.21484 18.1444 3.42159 18.3496 3.67662 18.3496Z" fill="black"/>
<path d="M4.97765 18.3496C5.23268 18.3496 5.43943 18.1444 5.43943 17.8912C5.43943 17.6381 5.23268 17.4329 4.97765 17.4329C4.72262 17.4329 4.51587 17.6381 4.51587 17.8912C4.51587 18.1444 4.72262 18.3496 4.97765 18.3496Z" fill="black"/>
<path d="M6.27794 18.3496C6.53298 18.3496 6.73972 18.1444 6.73972 17.8912C6.73972 17.6381 6.53298 17.4329 6.27794 17.4329C6.02291 17.4329 5.81616 17.6381 5.81616 17.8912C5.81616 18.1444 6.02291 18.3496 6.27794 18.3496Z" fill="black"/>
<path d="M7.57823 18.3496C7.83327 18.3496 8.04001 18.1444 8.04001 17.8912C8.04001 17.6381 7.83327 17.4329 7.57823 17.4329C7.3232 17.4329 7.11646 17.6381 7.11646 17.8912C7.11646 18.1444 7.3232 18.3496 7.57823 18.3496Z" fill="black"/>
<path d="M8.87902 18.3496C9.13405 18.3496 9.3408 18.1444 9.3408 17.8912C9.3408 17.6381 9.13405 17.4329 8.87902 17.4329C8.62398 17.4329 8.41724 17.6381 8.41724 17.8912C8.41724 18.1444 8.62398 18.3496 8.87902 18.3496Z" fill="black"/>
<path d="M10.1803 18.3496C10.4353 18.3496 10.6421 18.1444 10.6421 17.8912C10.6421 17.6381 10.4353 17.4329 10.1803 17.4329C9.92525 17.4329 9.71851 17.6381 9.71851 17.8912C9.71851 18.1444 9.92525 18.3496 10.1803 18.3496Z" fill="black"/>
<path d="M11.474 18.3496C11.729 18.3496 11.9358 18.1444 11.9358 17.8912C11.9358 17.6381 11.729 17.4329 11.474 17.4329C11.219 17.4329 11.0122 17.6381 11.0122 17.8912C11.0122 18.1444 11.219 18.3496 11.474 18.3496Z" fill="black"/>
<path d="M12.7745 18.3496C13.0296 18.3496 13.2363 18.1444 13.2363 17.8912C13.2363 17.6381 13.0296 17.4329 12.7745 17.4329C12.5195 17.4329 12.3127 17.6381 12.3127 17.8912C12.3127 18.1444 12.5195 18.3496 12.7745 18.3496Z" fill="black"/>
<path d="M14.0753 18.3496C14.3303 18.3496 14.5371 18.1444 14.5371 17.8912C14.5371 17.6381 14.3303 17.4329 14.0753 17.4329C13.8203 17.4329 13.6135 17.6381 13.6135 17.8912C13.6135 18.1444 13.8203 18.3496 14.0753 18.3496Z" fill="black"/>
<path d="M15.3761 18.3496C15.6311 18.3496 15.8379 18.1444 15.8379 17.8912C15.8379 17.6381 15.6311 17.4329 15.3761 17.4329C15.1211 17.4329 14.9143 17.6381 14.9143 17.8912C14.9143 18.1444 15.1211 18.3496 15.3761 18.3496Z" fill="black"/>
<path d="M16.6764 18.3496C16.9314 18.3496 17.1382 18.1444 17.1382 17.8912C17.1382 17.6381 16.9314 17.4329 16.6764 17.4329C16.4213 17.4329 16.2146 17.6381 16.2146 17.8912C16.2146 18.1444 16.4213 18.3496 16.6764 18.3496Z" fill="black"/>
<path d="M17.9767 18.3496C18.2317 18.3496 18.4385 18.1444 18.4385 17.8912C18.4385 17.6381 18.2317 17.4329 17.9767 17.4329C17.7216 17.4329 17.5149 17.6381 17.5149 17.8912C17.5149 18.1444 17.7216 18.3496 17.9767 18.3496Z" fill="black"/>
<path d="M19.2782 18.3496C19.5332 18.3496 19.74 18.1444 19.74 17.8912C19.74 17.6381 19.5332 17.4329 19.2782 17.4329C19.0232 17.4329 18.8164 17.6381 18.8164 17.8912C18.8164 18.1444 19.0232 18.3496 19.2782 18.3496Z" fill="black"/>
<path d="M20.578 18.3496C20.833 18.3496 21.0398 18.1444 21.0398 17.8912C21.0398 17.6381 20.833 17.4329 20.578 17.4329C20.323 17.4329 20.1162 17.6381 20.1162 17.8912C20.1162 18.1444 20.323 18.3496 20.578 18.3496Z" fill="black"/>
<path d="M21.8788 18.3496C22.1338 18.3496 22.3406 18.1444 22.3406 17.8912C22.3406 17.6381 22.1338 17.4329 21.8788 17.4329C21.6237 17.4329 21.417 17.6381 21.417 17.8912C21.417 18.1444 21.6237 18.3496 21.8788 18.3496Z" fill="black"/>
<path d="M23.1796 18.3496C23.4346 18.3496 23.6413 18.1444 23.6413 17.8912C23.6413 17.6381 23.4346 17.4329 23.1796 17.4329C22.9245 17.4329 22.7178 17.6381 22.7178 17.8912C22.7178 18.1444 22.9245 18.3496 23.1796 18.3496Z" fill="black"/>
<path d="M24.4798 18.3496C24.7349 18.3496 24.9416 18.1444 24.9416 17.8912C24.9416 17.6381 24.7349 17.4329 24.4798 17.4329C24.2248 17.4329 24.0181 17.6381 24.0181 17.8912C24.0181 18.1444 24.2248 18.3496 24.4798 18.3496Z" fill="black"/>
<path d="M25.7806 18.3496C26.0357 18.3496 26.2424 18.1444 26.2424 17.8912C26.2424 17.6381 26.0357 17.4329 25.7806 17.4329C25.5256 17.4329 25.3188 17.6381 25.3188 17.8912C25.3188 18.1444 25.5256 18.3496 25.7806 18.3496Z" fill="black"/>
<path d="M1.07555 19.7878C1.33058 19.7878 1.53733 19.5826 1.53733 19.3294C1.53733 19.0763 1.33058 18.871 1.07555 18.871C0.820515 18.871 0.61377 19.0763 0.61377 19.3294C0.61377 19.5826 0.820515 19.7878 1.07555 19.7878Z" fill="black"/>
<path d="M2.37535 19.7878C2.63039 19.7878 2.83713 19.5826 2.83713 19.3294C2.83713 19.0763 2.63039 18.871 2.37535 18.871C2.12032 18.871 1.91357 19.0763 1.91357 19.3294C1.91357 19.5826 2.12032 19.7878 2.37535 19.7878Z" fill="black"/>
<path d="M3.67662 19.7878C3.93166 19.7878 4.1384 19.5826 4.1384 19.3294C4.1384 19.0763 3.93166 18.871 3.67662 18.871C3.42159 18.871 3.21484 19.0763 3.21484 19.3294C3.21484 19.5826 3.42159 19.7878 3.67662 19.7878Z" fill="black"/>
<path d="M4.97765 19.7878C5.23268 19.7878 5.43943 19.5826 5.43943 19.3294C5.43943 19.0763 5.23268 18.871 4.97765 18.871C4.72262 18.871 4.51587 19.0763 4.51587 19.3294C4.51587 19.5826 4.72262 19.7878 4.97765 19.7878Z" fill="black"/>
<path d="M6.27794 19.7878C6.53298 19.7878 6.73972 19.5826 6.73972 19.3294C6.73972 19.0763 6.53298 18.871 6.27794 18.871C6.02291 18.871 5.81616 19.0763 5.81616 19.3294C5.81616 19.5826 6.02291 19.7878 6.27794 19.7878Z" fill="black"/>
<path d="M7.57823 19.7878C7.83327 19.7878 8.04001 19.5826 8.04001 19.3294C8.04001 19.0763 7.83327 18.871 7.57823 18.871C7.3232 18.871 7.11646 19.0763 7.11646 19.3294C7.11646 19.5826 7.3232 19.7878 7.57823 19.7878Z" fill="black"/>
<path d="M8.87902 19.7878C9.13405 19.7878 9.3408 19.5826 9.3408 19.3294C9.3408 19.0763 9.13405 18.871 8.87902 18.871C8.62398 18.871 8.41724 19.0763 8.41724 19.3294C8.41724 19.5826 8.62398 19.7878 8.87902 19.7878Z" fill="black"/>
<path d="M10.1803 19.7878C10.4353 19.7878 10.6421 19.5826 10.6421 19.3294C10.6421 19.0763 10.4353 18.871 10.1803 18.871C9.92525 18.871 9.71851 19.0763 9.71851 19.3294C9.71851 19.5826 9.92525 19.7878 10.1803 19.7878Z" fill="black"/>
<path d="M11.474 19.7878C11.729 19.7878 11.9358 19.5826 11.9358 19.3294C11.9358 19.0763 11.729 18.871 11.474 18.871C11.219 18.871 11.0122 19.0763 11.0122 19.3294C11.0122 19.5826 11.219 19.7878 11.474 19.7878Z" fill="black"/>
<path d="M12.7745 19.7878C13.0296 19.7878 13.2363 19.5826 13.2363 19.3294C13.2363 19.0763 13.0296 18.871 12.7745 18.871C12.5195 18.871 12.3127 19.0763 12.3127 19.3294C12.3127 19.5826 12.5195 19.7878 12.7745 19.7878Z" fill="black"/>
<path d="M14.0753 19.7878C14.3303 19.7878 14.5371 19.5826 14.5371 19.3294C14.5371 19.0763 14.3303 18.871 14.0753 18.871C13.8203 18.871 13.6135 19.0763 13.6135 19.3294C13.6135 19.5826 13.8203 19.7878 14.0753 19.7878Z" fill="black"/>
<path d="M15.3761 19.7878C15.6311 19.7878 15.8379 19.5826 15.8379 19.3294C15.8379 19.0763 15.6311 18.871 15.3761 18.871C15.1211 18.871 14.9143 19.0763 14.9143 19.3294C14.9143 19.5826 15.1211 19.7878 15.3761 19.7878Z" fill="black"/>
<path d="M16.6764 19.7878C16.9314 19.7878 17.1382 19.5826 17.1382 19.3294C17.1382 19.0763 16.9314 18.871 16.6764 18.871C16.4213 18.871 16.2146 19.0763 16.2146 19.3294C16.2146 19.5826 16.4213 19.7878 16.6764 19.7878Z" fill="black"/>
<path d="M17.9767 19.7878C18.2317 19.7878 18.4385 19.5826 18.4385 19.3294C18.4385 19.0763 18.2317 18.871 17.9767 18.871C17.7216 18.871 17.5149 19.0763 17.5149 19.3294C17.5149 19.5826 17.7216 19.7878 17.9767 19.7878Z" fill="black"/>
<path d="M19.2782 19.7878C19.5332 19.7878 19.74 19.5826 19.74 19.3294C19.74 19.0763 19.5332 18.871 19.2782 18.871C19.0232 18.871 18.8164 19.0763 18.8164 19.3294C18.8164 19.5826 19.0232 19.7878 19.2782 19.7878Z" fill="black"/>
<path d="M20.578 19.7878C20.833 19.7878 21.0398 19.5826 21.0398 19.3294C21.0398 19.0763 20.833 18.871 20.578 18.871C20.323 18.871 20.1162 19.0763 20.1162 19.3294C20.1162 19.5826 20.323 19.7878 20.578 19.7878Z" fill="black"/>
<path d="M21.8788 19.7878C22.1338 19.7878 22.3406 19.5826 22.3406 19.3294C22.3406 19.0763 22.1338 18.871 21.8788 18.871C21.6237 18.871 21.417 19.0763 21.417 19.3294C21.417 19.5826 21.6237 19.7878 21.8788 19.7878Z" fill="black"/>
<path d="M23.1796 19.7878C23.4346 19.7878 23.6413 19.5826 23.6413 19.3294C23.6413 19.0763 23.4346 18.871 23.1796 18.871C22.9245 18.871 22.7178 19.0763 22.7178 19.3294C22.7178 19.5826 22.9245 19.7878 23.1796 19.7878Z" fill="black"/>
<path d="M24.4798 19.7878C24.7349 19.7878 24.9416 19.5826 24.9416 19.3294C24.9416 19.0763 24.7349 18.871 24.4798 18.871C24.2248 18.871 24.0181 19.0763 24.0181 19.3294C24.0181 19.5826 24.2248 19.7878 24.4798 19.7878Z" fill="black"/>
<path d="M25.7806 19.7878C26.0357 19.7878 26.2424 19.5826 26.2424 19.3294C26.2424 19.0763 26.0357 18.871 25.7806 18.871C25.5256 18.871 25.3188 19.0763 25.3188 19.3294C25.3188 19.5826 25.5256 19.7878 25.7806 19.7878Z" fill="black"/>
<path d="M1.53738 20.7673C1.53543 20.8471 1.51326 20.9252 1.47291 20.9943C1.43255 21.0634 1.37532 21.1213 1.30649 21.1626C1.14389 20.9028 1.01034 20.6261 0.908203 20.3375C0.963658 20.3289 1.02014 20.3289 1.0756 20.3375C1.19323 20.3373 1.30651 20.3817 1.39233 20.4615C1.47815 20.5414 1.53003 20.6507 1.53738 20.7673Z" fill="black"/>
<path d="M2.37535 21.2203C2.63039 21.2203 2.83713 21.0151 2.83713 20.7619C2.83713 20.5088 2.63039 20.3036 2.37535 20.3036C2.12032 20.3036 1.91357 20.5088 1.91357 20.7619C1.91357 21.0151 2.12032 21.2203 2.37535 21.2203Z" fill="black"/>
<path d="M3.67662 21.2203C3.93166 21.2203 4.1384 21.0151 4.1384 20.7619C4.1384 20.5088 3.93166 20.3036 3.67662 20.3036C3.42159 20.3036 3.21484 20.5088 3.21484 20.7619C3.21484 21.0151 3.42159 21.2203 3.67662 21.2203Z" fill="black"/>
<path d="M4.97765 21.2203C5.23268 21.2203 5.43943 21.0151 5.43943 20.7619C5.43943 20.5088 5.23268 20.3036 4.97765 20.3036C4.72262 20.3036 4.51587 20.5088 4.51587 20.7619C4.51587 21.0151 4.72262 21.2203 4.97765 21.2203Z" fill="black"/>
<path d="M6.27794 21.2203C6.53298 21.2203 6.73972 21.0151 6.73972 20.7619C6.73972 20.5088 6.53298 20.3036 6.27794 20.3036C6.02291 20.3036 5.81616 20.5088 5.81616 20.7619C5.81616 21.0151 6.02291 21.2203 6.27794 21.2203Z" fill="black"/>
<path d="M7.57823 21.2203C7.83327 21.2203 8.04001 21.0151 8.04001 20.7619C8.04001 20.5088 7.83327 20.3036 7.57823 20.3036C7.3232 20.3036 7.11646 20.5088 7.11646 20.7619C7.11646 21.0151 7.3232 21.2203 7.57823 21.2203Z" fill="black"/>
<path d="M8.87902 21.2203C9.13405 21.2203 9.3408 21.0151 9.3408 20.7619C9.3408 20.5088 9.13405 20.3036 8.87902 20.3036C8.62398 20.3036 8.41724 20.5088 8.41724 20.7619C8.41724 21.0151 8.62398 21.2203 8.87902 21.2203Z" fill="black"/>
<path d="M10.1803 21.2203C10.4353 21.2203 10.6421 21.0151 10.6421 20.7619C10.6421 20.5088 10.4353 20.3036 10.1803 20.3036C9.92525 20.3036 9.71851 20.5088 9.71851 20.7619C9.71851 21.0151 9.92525 21.2203 10.1803 21.2203Z" fill="black"/>
<path d="M11.474 21.2203C11.729 21.2203 11.9358 21.0151 11.9358 20.7619C11.9358 20.5088 11.729 20.3036 11.474 20.3036C11.219 20.3036 11.0122 20.5088 11.0122 20.7619C11.0122 21.0151 11.219 21.2203 11.474 21.2203Z" fill="black"/>
<path d="M12.7745 21.2203C13.0296 21.2203 13.2363 21.0151 13.2363 20.7619C13.2363 20.5088 13.0296 20.3036 12.7745 20.3036C12.5195 20.3036 12.3127 20.5088 12.3127 20.7619C12.3127 21.0151 12.5195 21.2203 12.7745 21.2203Z" fill="black"/>
<path d="M14.0753 21.2203C14.3303 21.2203 14.5371 21.0151 14.5371 20.7619C14.5371 20.5088 14.3303 20.3036 14.0753 20.3036C13.8203 20.3036 13.6135 20.5088 13.6135 20.7619C13.6135 21.0151 13.8203 21.2203 14.0753 21.2203Z" fill="black"/>
<path d="M15.3761 21.2203C15.6311 21.2203 15.8379 21.0151 15.8379 20.7619C15.8379 20.5088 15.6311 20.3036 15.3761 20.3036C15.1211 20.3036 14.9143 20.5088 14.9143 20.7619C14.9143 21.0151 15.1211 21.2203 15.3761 21.2203Z" fill="black"/>
<path d="M16.6764 21.2203C16.9314 21.2203 17.1382 21.0151 17.1382 20.7619C17.1382 20.5088 16.9314 20.3036 16.6764 20.3036C16.4213 20.3036 16.2146 20.5088 16.2146 20.7619C16.2146 21.0151 16.4213 21.2203 16.6764 21.2203Z" fill="black"/>
<path d="M18.462 20.7684C18.4615 20.8737 18.4245 20.9756 18.3572 21.057C18.2899 21.1383 18.1965 21.1943 18.0926 21.2153C18.0002 21.1294 17.9136 21.0377 17.8213 20.9632C17.7289 20.8887 17.6539 20.82 17.5442 20.7283C17.5529 20.6143 17.6048 20.5078 17.6894 20.4302C17.774 20.3526 17.885 20.3097 18.0002 20.31C18.1227 20.31 18.2401 20.3583 18.3267 20.4443C18.4133 20.5302 18.462 20.6468 18.462 20.7684Z" fill="black"/>
<path d="M19.2782 21.2203C19.5332 21.2203 19.74 21.0151 19.74 20.7619C19.74 20.5088 19.5332 20.3036 19.2782 20.3036C19.0232 20.3036 18.8164 20.5088 18.8164 20.7619C18.8164 21.0151 19.0232 21.2203 19.2782 21.2203Z" fill="black"/>
<path d="M20.578 21.2203C20.833 21.2203 21.0398 21.0151 21.0398 20.7619C21.0398 20.5088 20.833 20.3036 20.578 20.3036C20.323 20.3036 20.1162 20.5088 20.1162 20.7619C20.1162 21.0151 20.323 21.2203 20.578 21.2203Z" fill="black"/>
<path d="M21.8788 21.2203C22.1338 21.2203 22.3406 21.0151 22.3406 20.7619C22.3406 20.5088 22.1338 20.3036 21.8788 20.3036C21.6237 20.3036 21.417 20.5088 21.417 20.7619C21.417 21.0151 21.6237 21.2203 21.8788 21.2203Z" fill="black"/>
<path d="M23.1796 21.2203C23.4346 21.2203 23.6413 21.0151 23.6413 20.7619C23.6413 20.5088 23.4346 20.3036 23.1796 20.3036C22.9245 20.3036 22.7178 20.5088 22.7178 20.7619C22.7178 21.0151 22.9245 21.2203 23.1796 21.2203Z" fill="black"/>
<path d="M24.4798 21.2203C24.7349 21.2203 24.9416 21.0151 24.9416 20.7619C24.9416 20.5088 24.7349 20.3036 24.4798 20.3036C24.2248 20.3036 24.0181 20.5088 24.0181 20.7619C24.0181 21.0151 24.2248 21.2203 24.4798 21.2203Z" fill="black"/>
<path d="M2.85452 22.2065C2.85519 22.2764 2.83936 22.3455 2.80828 22.4081C2.77721 22.4708 2.73176 22.5254 2.67558 22.5675C2.42732 22.3982 2.19544 22.2064 1.98291 21.9945C2.0306 21.9034 2.10776 21.8308 2.202 21.7883C2.29625 21.7459 2.40213 21.7361 2.50264 21.7606C2.60316 21.785 2.69248 21.8423 2.75629 21.9231C2.8201 22.004 2.85469 22.1038 2.85452 22.2065Z" fill="black"/>
<path d="M3.67662 22.6577C3.93166 22.6577 4.1384 22.4525 4.1384 22.1993C4.1384 21.9462 3.93166 21.7409 3.67662 21.7409C3.42159 21.7409 3.21484 21.9462 3.21484 22.1993C3.21484 22.4525 3.42159 22.6577 3.67662 22.6577Z" fill="black"/>
<path d="M4.97765 22.6577C5.23268 22.6577 5.43943 22.4525 5.43943 22.1993C5.43943 21.9462 5.23268 21.7409 4.97765 21.7409C4.72262 21.7409 4.51587 21.9462 4.51587 22.1993C4.51587 22.4525 4.72262 22.6577 4.97765 22.6577Z" fill="black"/>
<path d="M6.27794 22.6577C6.53298 22.6577 6.73972 22.4525 6.73972 22.1993C6.73972 21.9462 6.53298 21.7409 6.27794 21.7409C6.02291 21.7409 5.81616 21.9462 5.81616 22.1993C5.81616 22.4525 6.02291 22.6577 6.27794 22.6577Z" fill="black"/>
<path d="M7.57823 22.6577C7.83327 22.6577 8.04001 22.4525 8.04001 22.1993C8.04001 21.9462 7.83327 21.7409 7.57823 21.7409C7.3232 21.7409 7.11646 21.9462 7.11646 22.1993C7.11646 22.4525 7.3232 22.6577 7.57823 22.6577Z" fill="black"/>
<path d="M9.34017 22.1995C9.15546 22.3599 8.96497 22.5089 8.76294 22.6464C8.66113 22.6252 8.56984 22.5697 8.5046 22.4892C8.43936 22.4088 8.40419 22.3084 8.40507 22.2052C8.4043 22.1445 8.41568 22.0843 8.43855 22.028C8.46141 21.9717 8.4953 21.9205 8.53826 21.8774C8.58122 21.8342 8.63238 21.7999 8.68879 21.7765C8.74519 21.7531 8.80571 21.7411 8.86684 21.7411C8.92845 21.7396 8.98974 21.7503 9.04711 21.7726C9.10447 21.795 9.15675 21.8285 9.20086 21.8712C9.24497 21.9139 9.28002 21.965 9.30395 22.0214C9.32787 22.0777 9.34019 22.1383 9.34017 22.1995Z" fill="black"/>
<path d="M11.9419 22.2051C11.9442 22.2164 11.9442 22.2281 11.9419 22.2394C11.6597 22.1536 11.3839 22.0483 11.1165 21.9243C11.1592 21.867 11.2149 21.8206 11.2791 21.7887C11.3432 21.7569 11.4141 21.7405 11.4859 21.7409C11.5465 21.7417 11.6064 21.7543 11.6622 21.778C11.7179 21.8017 11.7684 21.8361 11.8107 21.8792C11.8531 21.9223 11.8864 21.9733 11.909 22.0292C11.9315 22.0851 11.9426 22.1449 11.9419 22.2051Z" fill="black"/>
<path d="M13.2593 22.2058C13.2577 22.3091 13.2234 22.4093 13.1612 22.4923C12.8948 22.467 12.6305 22.4229 12.3704 22.3605C12.352 22.3109 12.3422 22.2586 12.3416 22.2058C12.3416 22.0842 12.3902 21.9676 12.4768 21.8817C12.5634 21.7957 12.6809 21.7474 12.8033 21.7474C12.9258 21.7474 13.0433 21.7957 13.1299 21.8817C13.2165 21.9676 13.2651 22.0842 13.2651 22.2058H13.2593Z" fill="black"/>
<path d="M14.5429 22.2057C14.5435 22.2795 14.5256 22.3523 14.4909 22.4177C14.2421 22.4692 13.989 22.498 13.7348 22.5036C13.6592 22.4227 13.6179 22.316 13.6193 22.2057C13.612 22.1408 13.6186 22.0751 13.6386 22.0129C13.6587 21.9507 13.6917 21.8934 13.7355 21.8447C13.7794 21.7961 13.8331 21.7571 13.8931 21.7305C13.9532 21.7038 14.0182 21.6901 14.084 21.6901C14.1498 21.6901 14.2148 21.7038 14.2749 21.7305C14.3349 21.7571 14.3886 21.7961 14.4325 21.8447C14.4763 21.8934 14.5093 21.9507 14.5294 22.0129C14.5494 22.0751 14.556 22.1408 14.5487 22.2057H14.5429Z" fill="black"/>
<path d="M15.7739 21.9644C15.503 22.1019 15.2211 22.2168 14.9311 22.3082C14.9256 22.274 14.9256 22.2392 14.9311 22.205C14.9311 22.1441 14.9432 22.0837 14.9667 22.0274C14.9902 21.9711 15.0247 21.92 15.0681 21.8769C15.1115 21.8338 15.163 21.7996 15.2198 21.7763C15.2765 21.7529 15.3373 21.7409 15.3987 21.7409C15.4753 21.7429 15.5502 21.7645 15.6159 21.8037C15.6816 21.8428 15.7361 21.8982 15.7739 21.9644Z" fill="black"/>
<path d="M19.7458 22.2051C19.4813 22.1081 19.2262 21.9873 18.9839 21.8441C19.0657 21.774 19.1702 21.7353 19.2783 21.7353C19.3402 21.7353 19.4014 21.7475 19.4585 21.7712C19.5156 21.7948 19.5674 21.8295 19.6109 21.8732C19.6544 21.9169 19.6887 21.9688 19.7119 22.0258C19.7351 22.0827 19.7466 22.1437 19.7458 22.2051Z" fill="black"/>
<path d="M21.0402 22.2058C21.0411 22.3095 21.0065 22.4105 20.942 22.4923C20.6722 22.4687 20.4054 22.4188 20.1455 22.3433C20.1367 22.2979 20.1367 22.2512 20.1455 22.2058C20.1455 22.0842 20.1941 21.9676 20.2807 21.8817C20.3673 21.7957 20.4848 21.7474 20.6072 21.7474C20.7297 21.7474 20.8472 21.7957 20.9338 21.8817C21.0204 21.9676 21.069 22.0842 21.069 22.2058H21.0402Z" fill="black"/>
<path d="M22.3409 22.2058C22.3395 22.2837 22.3197 22.3602 22.2832 22.4292C22.0373 22.4736 21.7883 22.4985 21.5385 22.5037C21.4644 22.4219 21.4233 22.3158 21.4231 22.2058C21.4231 22.0842 21.4717 21.9676 21.5583 21.8817C21.6449 21.7957 21.7624 21.7474 21.8849 21.7474C22.0073 21.7474 22.1248 21.7957 22.2114 21.8817C22.298 21.9676 22.3467 22.0842 22.3467 22.2058H22.3409Z" fill="black"/>
<path d="M23.6005 22.016C23.4914 22.0658 23.3796 22.1098 23.2657 22.1477C23.0924 22.2172 22.915 22.2765 22.7347 22.3254C22.7291 22.2854 22.7291 22.245 22.7347 22.205C22.7339 22.1444 22.7453 22.0841 22.7682 22.0279C22.791 21.9716 22.8249 21.9204 22.8679 21.8772C22.9108 21.834 22.962 21.7998 23.0184 21.7764C23.0748 21.753 23.1353 21.7409 23.1965 21.7409C23.2832 21.7439 23.3673 21.7713 23.4389 21.82C23.5104 21.8687 23.5665 21.9367 23.6005 22.016Z" fill="black"/>
<path d="M5.43353 23.6139C5.13674 23.5872 4.84304 23.5335 4.55615 23.4535C4.59601 23.3576 4.66783 23.2782 4.75961 23.2286C4.85138 23.179 4.95753 23.1622 5.0603 23.181C5.16307 23.1997 5.25622 23.253 5.32417 23.3318C5.39211 23.4106 5.43072 23.5102 5.43353 23.6139Z" fill="black"/>
<path d="M6.72818 23.5577C6.42789 23.6164 6.12217 23.6433 5.81616 23.6379C5.82099 23.5269 5.8663 23.4213 5.94368 23.341C6.02105 23.2606 6.12521 23.2109 6.23676 23.2011C6.3483 23.1913 6.45964 23.222 6.55005 23.2876C6.64045 23.3532 6.70375 23.4492 6.72818 23.5577Z" fill="black"/>
<path d="M7.77437 23.22C7.57484 23.3123 7.36833 23.389 7.15674 23.4492C7.19399 23.3693 7.25339 23.3015 7.32801 23.2538C7.40262 23.2061 7.48937 23.1805 7.57811 23.1799C7.64547 23.1811 7.71203 23.1947 7.77437 23.22Z" fill="black"/>
</svg>
