<svg width="30" height="30" viewBox="0 0 30 30" fill="none" xmlns="http://www.w3.org/2000/svg">
<g clip-path="url(#clip0_187_4852)">
<path d="M6.38511 20.6895C3.607 20.9538 0.73869 20.7676 0.335804 17.6497C-0.000936799 14.9284 2.5607 12.6756 5.31476 12.6756C5.309 11.7912 5.53996 10.9213 5.98374 10.156C6.42752 9.39068 7.06797 8.75778 7.83881 8.3228C8.60965 7.88783 9.48286 7.66658 10.368 7.68198C11.2532 7.69737 12.1182 7.94884 12.8734 8.41036C13.5789 6.96724 14.7528 5.8054 16.2039 5.1142C17.655 4.42301 19.2977 4.24322 20.8641 4.60415C22.4306 4.96508 23.8285 5.84543 24.83 7.10173C25.8315 8.35802 26.3775 9.91616 26.3791 11.5222C26.3791 11.6183 26.3791 11.7084 26.3791 11.8045C27.3535 12.1445 28.1981 12.7787 28.796 13.6192C29.3939 14.4597 29.7156 15.4651 29.7164 16.4963C29.7164 19.2417 27.4855 20.5873 24.7315 20.5873" stroke="#231F20" stroke-width="0.5" stroke-miterlimit="10"/>
<path d="M9.50682 4.16914C10.5762 4.16914 11.4431 3.30309 11.4431 2.23476C11.4431 1.16643 10.5762 0.300377 9.50682 0.300377C8.43745 0.300377 7.57056 1.16643 7.57056 2.23476C7.57056 3.30309 8.43745 4.16914 9.50682 4.16914Z" stroke="#231F20" stroke-width="0.5" stroke-miterlimit="10"/>
<path d="M4.88857 7.59335C5.74539 7.59335 6.43998 6.89944 6.43998 6.04345C6.43998 5.18746 5.74539 4.49354 4.88857 4.49354C4.03175 4.49354 3.33716 5.18746 3.33716 6.04345C3.33716 6.89944 4.03175 7.59335 4.88857 7.59335Z" stroke="#231F20" stroke-width="0.5" stroke-miterlimit="10"/>
<path d="M11.9198 15.06C11.5878 15.06 11.2798 15.018 10.9958 14.934C10.7118 14.846 10.4718 14.728 10.2758 14.58L10.5098 13.974C10.7058 14.114 10.9198 14.222 11.1518 14.298C11.3878 14.374 11.6438 14.412 11.9198 14.412C12.2358 14.412 12.4658 14.36 12.6098 14.256C12.7538 14.148 12.8258 14.01 12.8258 13.842C12.8258 13.702 12.7738 13.592 12.6698 13.512C12.5698 13.432 12.3958 13.366 12.1478 13.314L11.4878 13.176C10.7358 13.016 10.3598 12.63 10.3598 12.018C10.3598 11.754 10.4298 11.524 10.5698 11.328C10.7098 11.132 10.9038 10.98 11.1518 10.872C11.3998 10.764 11.6858 10.71 12.0098 10.71C12.2978 10.71 12.5678 10.754 12.8198 10.842C13.0718 10.926 13.2818 11.046 13.4498 11.202L13.2158 11.778C12.8838 11.498 12.4798 11.358 12.0038 11.358C11.7278 11.358 11.5118 11.416 11.3558 11.532C11.1998 11.648 11.1218 11.8 11.1218 11.988C11.1218 12.132 11.1698 12.248 11.2658 12.336C11.3618 12.42 11.5258 12.486 11.7578 12.534L12.4118 12.672C12.8078 12.756 13.1018 12.888 13.2938 13.068C13.4898 13.248 13.5878 13.488 13.5878 13.788C13.5878 14.04 13.5198 14.262 13.3838 14.454C13.2478 14.646 13.0538 14.796 12.8018 14.904C12.5538 15.008 12.2598 15.06 11.9198 15.06ZM16.1429 15.06C15.7349 15.06 15.3769 14.97 15.0689 14.79C14.7649 14.61 14.5289 14.358 14.3609 14.034C14.1929 13.706 14.1089 13.322 14.1089 12.882C14.1089 12.438 14.1929 12.054 14.3609 11.73C14.5289 11.406 14.7649 11.156 15.0689 10.98C15.3729 10.8 15.7309 10.71 16.1429 10.71C16.5549 10.71 16.9129 10.8 17.2169 10.98C17.5209 11.156 17.7569 11.406 17.9249 11.73C18.0929 12.054 18.1769 12.436 18.1769 12.876C18.1769 13.32 18.0929 13.706 17.9249 14.034C17.7569 14.358 17.5209 14.61 17.2169 14.79C16.9129 14.97 16.5549 15.06 16.1429 15.06ZM16.1429 14.4C16.5309 14.4 16.8329 14.266 17.0489 13.998C17.2649 13.73 17.3729 13.358 17.3729 12.882C17.3729 12.402 17.2649 12.03 17.0489 11.766C16.8369 11.502 16.5349 11.37 16.1429 11.37C15.7549 11.37 15.4529 11.502 15.2369 11.766C15.0209 12.03 14.9129 12.402 14.9129 12.882C14.9129 13.358 15.0209 13.73 15.2369 13.998C15.4529 14.266 15.7549 14.4 16.1429 14.4Z" fill="#231F20"/>
<path d="M21.4255 16.378V16.8878H19.5017C19.5225 16.6951 19.585 16.5128 19.6892 16.3409C19.7934 16.1677 19.9991 15.9386 20.3064 15.6534C20.5538 15.4229 20.7055 15.2667 20.7615 15.1847C20.837 15.0714 20.8748 14.9594 20.8748 14.8487C20.8748 14.7263 20.8416 14.6326 20.7751 14.5675C20.71 14.5011 20.6195 14.4679 20.5037 14.4679C20.3891 14.4679 20.2979 14.5024 20.2302 14.5714C20.1625 14.6404 20.1235 14.755 20.113 14.9151L19.5662 14.8604C19.5987 14.5584 19.7009 14.3416 19.8728 14.21C20.0447 14.0785 20.2595 14.0128 20.5173 14.0128C20.7999 14.0128 21.0219 14.089 21.1833 14.2413C21.3448 14.3936 21.4255 14.5831 21.4255 14.8097C21.4255 14.9386 21.4021 15.0616 21.3552 15.1788C21.3097 15.2947 21.2367 15.4164 21.1365 15.544C21.0701 15.6287 20.9503 15.7504 20.7771 15.9093C20.6039 16.0681 20.4939 16.1736 20.447 16.2257C20.4014 16.2778 20.3643 16.3285 20.3357 16.378H21.4255Z" fill="#231F20"/>
<path d="M9.87955 17.6497L9.80138 28.2768C9.80195 28.3095 9.79187 28.3414 9.77264 28.3678C9.75342 28.3942 9.7261 28.4136 9.69484 28.4231C9.66357 28.4326 9.63006 28.4317 9.59937 28.4205C9.56868 28.4093 9.54249 28.3883 9.52477 28.3609L8.28003 26.6428L9.79536 28.7334L11.2385 26.6368" stroke="#231F20" stroke-width="0.5" stroke-miterlimit="10"/>
<path d="M14.8586 16.9288L14.7744 24.4741C14.7732 24.5114 14.7604 24.5475 14.7378 24.5772C14.7152 24.6069 14.6839 24.6289 14.6483 24.6402C14.6126 24.6514 14.5744 24.6512 14.5388 24.6398C14.5032 24.6283 14.4721 24.6061 14.4497 24.5763L13.0005 22.5758L14.7624 24.9788L16.4401 22.5758" stroke="#231F20" stroke-width="0.5" stroke-miterlimit="10"/>
<path d="M19.5548 19.3498L19.4767 27.7602C19.4787 27.7934 19.4696 27.8263 19.4509 27.8537C19.4322 27.8812 19.4048 27.9017 19.3732 27.912C19.3416 27.9223 19.3074 27.9218 19.2761 27.9107C19.2448 27.8995 19.218 27.8783 19.2001 27.8503L17.9553 26.1322L19.4707 28.2348L20.9138 26.1442" stroke="#231F20" stroke-width="0.5" stroke-miterlimit="10"/>
</g>
<defs>
<clipPath id="clip0_187_4852">
<rect width="30" height="29.25" fill="white" transform="translate(-0.000244141 7.62939e-06)"/>
</clipPath>
</defs>
</svg>
