<svg width="12" height="30" viewBox="0 0 12 30" fill="none" xmlns="http://www.w3.org/2000/svg">
<path d="M7.55491 20.9501V8.86109C5.68821 10.0303 5.62669 7.63039 4.10893 8.86109V20.9501C2.87478 21.5799 2.0271 22.8628 2.0271 24.3408C2.0271 26.4387 3.73395 28.1455 5.83195 28.1455C7.92994 28.1455 9.63679 26.4387 9.63679 24.3408C9.63679 22.8629 8.78916 21.5799 7.55491 20.9501ZM7.40582 24.8604C6.87464 24.8604 6.44385 24.4297 6.44385 23.8984C6.44385 23.3672 6.87407 22.9365 7.40582 22.9365C7.937 22.9365 8.36768 23.3672 8.36768 23.8984C8.36768 24.4297 7.937 24.8604 7.40582 24.8604Z" fill="#E4233B"/>
<path d="M4.60135 2.95366H7.55507C7.69093 2.95366 7.8012 2.84338 7.8012 2.70753C7.8012 2.57167 7.69087 2.4614 7.55507 2.4614H4.60135C4.46545 2.4614 4.35522 2.57167 4.35522 2.70753C4.35517 2.84338 4.46545 2.95366 4.60135 2.95366Z" fill="black"/>
<path d="M7.55499 3.44597H6.07816C5.9423 3.44597 5.83203 3.55624 5.83203 3.6921C5.83203 3.82796 5.9423 3.93823 6.07816 3.93823H7.55504C7.691 3.93823 7.80117 3.82796 7.80117 3.6921C7.80112 3.55624 7.69095 3.44597 7.55499 3.44597Z" fill="black"/>
<path d="M4.60135 4.9228H7.55507C7.69093 4.9228 7.8012 4.81253 7.8012 4.67667C7.8012 4.54081 7.69087 4.43054 7.55507 4.43054H4.60135C4.46545 4.43054 4.35522 4.54081 4.35522 4.67667C4.35517 4.81253 4.46545 4.9228 4.60135 4.9228Z" fill="black"/>
<path d="M7.55499 5.41512H6.07816C5.9423 5.41512 5.83203 5.52539 5.83203 5.66125C5.83203 5.7971 5.9423 5.90738 6.07816 5.90738H7.55504C7.691 5.90738 7.80117 5.7971 7.80117 5.66125C7.80112 5.52539 7.69095 5.41512 7.55499 5.41512Z" fill="black"/>
<path d="M4.6013 6.89195H7.55502C7.69087 6.89195 7.80115 6.78168 7.80115 6.64582C7.80115 6.50996 7.69093 6.39969 7.55502 6.39969H4.6013C4.46545 6.39969 4.35522 6.50996 4.35522 6.64582C4.35517 6.78168 4.46539 6.89195 4.6013 6.89195Z" fill="black"/>
<path d="M7.55499 7.38426H6.07816C5.9423 7.38426 5.83203 7.49453 5.83203 7.63039C5.83203 7.76625 5.9423 7.87652 6.07816 7.87652H7.55504C7.691 7.87652 7.80117 7.76625 7.80117 7.63039C7.80112 7.49453 7.69095 7.38426 7.55499 7.38426Z" fill="black"/>
<path d="M9.03187 20.0891V2.38609C9.03187 0.914145 7.93167 0 6.16037 0H5.62723C3.8358 0 2.63213 0.958985 2.63213 2.38609V20.0891C1.3432 21.0615 0.508545 22.6054 0.508545 24.3408C0.508545 27.2761 2.89664 29.6642 5.83207 29.6642C8.76751 29.6642 11.1556 27.276 11.1556 24.3408C11.1556 22.6054 10.3208 21.0615 9.03187 20.0891ZM5.83202 29.1494C3.17623 29.1494 1.0233 26.9965 1.0233 24.3408C1.0233 22.9138 1.64504 21.6323 2.63213 20.7516C2.78755 20.613 2.95188 20.4843 3.12439 20.3664V2.38609C3.12439 0.98802 4.47226 0.49226 5.62667 0.49226H6.15975C6.71801 0.49226 8.53945 0.628632 8.53945 2.38609V20.3665C8.71202 20.4842 8.87639 20.613 9.03171 20.7517C10.0188 21.6322 10.6406 22.9139 10.6406 24.3408C10.6407 26.9965 8.48777 29.1494 5.83202 29.1494Z" fill="black"/>
</svg>
