<svg width="30" height="30" viewBox="0 0 30 30" fill="none" xmlns="http://www.w3.org/2000/svg">
<g clip-path="url(#clip0_187_1754)">
<path d="M16.5549 20.9501V8.86109C14.6882 10.0303 14.6267 7.63039 13.1089 8.86109V20.9501C11.8748 21.5799 11.0271 22.8628 11.0271 24.3408C11.0271 26.4387 12.7339 28.1455 14.8319 28.1455C16.9299 28.1455 18.6368 26.4387 18.6368 24.3408C18.6368 22.8629 17.7892 21.5799 16.5549 20.9501ZM16.4058 24.8604C15.8746 24.8604 15.4438 24.4297 15.4438 23.8984C15.4438 23.3672 15.8741 22.9365 16.4058 22.9365C16.937 22.9365 17.3677 23.3672 17.3677 23.8984C17.3677 24.4297 16.937 24.8604 16.4058 24.8604Z" fill="#E4233B"/>
<path d="M13.6014 2.95366H16.5551C16.6909 2.95366 16.8012 2.84338 16.8012 2.70753C16.8012 2.57167 16.6909 2.4614 16.5551 2.4614H13.6014C13.4654 2.4614 13.3552 2.57167 13.3552 2.70753C13.3552 2.84338 13.4654 2.95366 13.6014 2.95366Z" fill="black"/>
<path d="M16.555 3.44597H15.0782C14.9423 3.44597 14.832 3.55624 14.832 3.6921C14.832 3.82796 14.9423 3.93823 15.0782 3.93823H16.555C16.691 3.93823 16.8012 3.82796 16.8012 3.6921C16.8011 3.55624 16.691 3.44597 16.555 3.44597Z" fill="black"/>
<path d="M13.6014 4.9228H16.5551C16.6909 4.9228 16.8012 4.81253 16.8012 4.67667C16.8012 4.54081 16.6909 4.43054 16.5551 4.43054H13.6014C13.4654 4.43054 13.3552 4.54081 13.3552 4.67667C13.3552 4.81253 13.4654 4.9228 13.6014 4.9228Z" fill="black"/>
<path d="M16.555 5.41512H15.0782C14.9423 5.41512 14.832 5.52539 14.832 5.66125C14.832 5.7971 14.9423 5.90738 15.0782 5.90738H16.555C16.691 5.90738 16.8012 5.7971 16.8012 5.66125C16.8011 5.52539 16.691 5.41512 16.555 5.41512Z" fill="black"/>
<path d="M13.6013 6.89195H16.555C16.6909 6.89195 16.8011 6.78168 16.8011 6.64582C16.8011 6.50996 16.6909 6.39969 16.555 6.39969H13.6013C13.4654 6.39969 13.3552 6.50996 13.3552 6.64582C13.3552 6.78168 13.4654 6.89195 13.6013 6.89195Z" fill="black"/>
<path d="M16.555 7.38426H15.0782C14.9423 7.38426 14.832 7.49453 14.832 7.63039C14.832 7.76625 14.9423 7.87652 15.0782 7.87652H16.555C16.691 7.87652 16.8012 7.76625 16.8012 7.63039C16.8011 7.49453 16.691 7.38426 16.555 7.38426Z" fill="black"/>
<path d="M18.0319 20.0891V2.38609C18.0319 0.914145 16.9317 0 15.1604 0H14.6272C12.8358 0 11.6321 0.958985 11.6321 2.38609V20.0891C10.3432 21.0615 9.50854 22.6054 9.50854 24.3408C9.50854 27.2761 11.8966 29.6642 14.8321 29.6642C17.7675 29.6642 20.1556 27.276 20.1556 24.3408C20.1556 22.6054 19.3208 21.0615 18.0319 20.0891ZM14.832 29.1494C12.1762 29.1494 10.0233 26.9965 10.0233 24.3408C10.0233 22.9138 10.645 21.6323 11.6321 20.7516C11.7875 20.613 11.9519 20.4843 12.1244 20.3664V2.38609C12.1244 0.98802 13.4723 0.49226 14.6267 0.49226H15.1598C15.718 0.49226 17.5395 0.628632 17.5395 2.38609V20.3665C17.712 20.4842 17.8764 20.613 18.0317 20.7517C19.0188 21.6322 19.6406 22.9139 19.6406 24.3408C19.6407 26.9965 17.4878 29.1494 14.832 29.1494Z" fill="black"/>
</g>
<defs>
<clipPath id="clip0_187_1754">
<rect width="29.6642" height="29.6642" fill="white"/>
</clipPath>
</defs>
</svg>
