<svg width="21" height="29" viewBox="0 0 21 29" fill="none" xmlns="http://www.w3.org/2000/svg">
<g clip-path="url(#clip0_187_1824)">
<path d="M6.96302 27.6729L6.96522 27.8728C6.96528 27.8728 6.96534 27.8728 6.9654 27.8728C6.96547 27.8728 6.96554 27.8728 6.96562 27.8728L6.96302 27.6729ZM6.96302 27.6729C6.87946 27.6739 6.78763 27.663 6.69579 27.6521C6.48725 27.6274 6.27868 27.6026 6.1668 27.7182L9.11438 15.6392C9.11081 15.6873 9.10672 15.7354 9.10262 15.7835C9.09348 15.891 9.08435 15.9984 9.08106 16.1061C9.00989 18.4907 8.93804 20.8762 8.86552 23.2627C8.85293 23.643 8.84004 24.0233 8.82714 24.4036C8.79269 25.4199 8.75823 26.4364 8.72953 27.4532C8.72477 27.6233 8.67513 27.6729 8.51262 27.6729C7.99654 27.6658 7.47978 27.6672 6.96302 27.6729Z" fill="#4397D0" stroke="black" stroke-width="0.4"/>
<path d="M8.95912 14.9971L8.95939 14.9974C9.09767 14.8566 9.25131 14.7922 9.41404 14.7776C9.56518 14.7641 9.71782 14.7948 9.85103 14.8237L9.85486 14.8245L9.85485 14.8246C10.1693 14.8994 10.4665 14.8091 10.7404 14.5825C10.759 14.5359 10.788 14.4857 10.8361 14.4484C10.8783 14.4157 10.93 14.397 10.9851 14.3972C11.0359 14.3973 11.0768 14.4133 11.1035 14.4271C11.1497 14.4511 11.1866 14.4871 11.2018 14.5019L11.2036 14.5037C11.2142 14.5139 11.2199 14.5194 11.2223 14.5217C12.0345 15.0099 12.8458 15.5002 13.6562 15.9926L13.6562 15.9926L18.7496 19.0876L8.95912 14.9971ZM8.95912 14.9971L8.95101 15.0064M8.95912 14.9971L8.95101 15.0064M8.95101 15.0064C6.96644 17.2944 4.52417 18.7201 1.6189 19.289L1.61861 19.2891M8.95101 15.0064L1.61861 19.2891M1.61861 19.2891C1.44709 19.3229 1.27195 19.3468 1.09552 19.3633C0.950742 19.3763 0.868351 19.3533 0.818363 19.3213C0.770514 19.2906 0.723579 19.2332 0.688505 19.1141L0.688395 19.1138M1.61861 19.2891L0.688395 19.1138M0.688395 19.1138C0.660444 19.0196 0.666522 18.9447 0.694272 18.8811C0.723135 18.8149 0.784029 18.7416 0.898598 18.6692C1.18699 18.4893 1.47712 18.3139 1.76868 18.1376C1.87296 18.0746 1.97742 18.0114 2.08205 17.9479L1.97874 17.7777M0.688395 19.1138L1.97874 17.7777M1.97874 17.7777L2.08206 17.9479C4.24834 16.6328 6.41485 15.3184 8.58159 14.0047L8.4779 13.8337M1.97874 17.7777L8.88701 13.5288M8.88701 13.5288L8.88699 13.5293C8.88045 13.6416 8.85012 13.7402 8.78834 13.8258C8.7295 13.9072 8.65247 13.962 8.58114 14.005L8.4779 13.8337M8.88701 13.5288C8.9057 13.1941 9.02125 12.9185 9.25968 12.7135L9.25984 12.7133M8.88701 13.5288L9.25984 12.7133M8.4779 13.8337C6.31113 15.1474 4.14459 16.4618 1.97827 17.7769L8.68732 13.5177C8.6778 13.6814 8.60369 13.7579 8.4779 13.8337ZM9.25984 12.7133C9.30977 12.6703 9.3506 12.6183 9.37463 12.5556C9.39894 12.4921 9.40075 12.4314 9.39343 12.3798C9.38651 12.331 9.37111 12.2887 9.35979 12.2599C9.35294 12.2424 9.34833 12.2314 9.34461 12.2226C9.34016 12.2119 9.33698 12.2044 9.33275 12.1924L9.33258 12.1919M9.25984 12.7133L9.33258 12.1919M9.33258 12.1919C8.98002 11.2056 8.74288 10.1785 8.62635 9.13285L8.62624 9.13184M9.33258 12.1919L8.62624 9.13184M8.62624 9.13184C8.37155 6.94698 8.63045 4.73047 9.38042 2.67345L9.38055 2.6735M8.62624 9.13184L9.38055 2.6735M9.38055 2.6735L9.38276 2.66667M9.38055 2.6735L9.38276 2.66667M9.38276 2.66667C9.42291 2.54292 9.46906 2.4214 9.52103 2.30258C9.56493 2.21272 9.61488 2.15628 9.66515 2.12399C9.71303 2.09324 9.77411 2.07583 9.86002 2.08579C9.93358 2.09456 10.0035 2.12936 10.0578 2.18645C10.1122 2.24374 10.1473 2.31997 10.1555 2.40294C10.1639 2.48811 10.1666 2.5738 10.1635 2.65937L10.1634 2.65937M9.38276 2.66667L10.1634 2.65937M10.1634 2.65937V2.66659M10.1634 2.65937V2.66659M10.1634 2.66659V2.68471V2.70283V2.72095V2.73907V2.7572V2.77532V2.79344V2.81156V2.82968V2.8478V2.86592V2.88404V2.90217V2.92029V2.93841V2.95653V2.97465V2.99277V3.01089V3.02902V3.04714V3.06526V3.08338V3.1015V3.11962V3.13774V3.15586V3.17399V3.19211V3.21023V3.22835V3.24647V3.26459V3.28271V3.30084V3.31896V3.33708V3.3552V3.37332V3.39144V3.40956V3.42769V3.44581V3.46393V3.48205V3.50017V3.51829V3.53641V3.55454V3.57266V3.59078V3.6089V3.62702V3.64514V3.66326V3.68139V3.69951V3.71763V3.73575V3.75387V3.77199V3.79012V3.80824V3.82636V3.84448V3.8626V3.88072V3.89885V3.91697V3.93509V3.95321V3.97133V3.98945V4.00757V4.0257V4.04382V4.06194V4.08006V4.09818V4.1163V4.13443V4.15255V4.17067V4.18879V4.20691V4.22503V4.24316V4.26128V4.2794V4.29752V4.31564V4.33376V4.35189V4.37001V4.38813V4.40625V4.42437V4.4425V4.46062V4.47874V4.49686V4.51498V4.5331V4.55123V4.56935V4.58747V4.60559V4.62371V4.64183V4.65996V4.67808V4.6962V4.71432V4.73244V4.75057V4.76869V4.78681V4.80493V4.82305V4.84118V4.8593V4.87742V4.89554V4.91366V4.93178V4.94991V4.96803V4.98615V5.00427V5.02239V5.04052V5.05864V5.07676V5.09488V5.113V5.13113V5.14925V5.16737V5.18549V5.20361V5.22174V5.23986V5.25798V5.2761V5.29422V5.31235V5.33047V5.34859V5.36671V5.38483V5.40296V5.42108V5.4392V5.45732V5.47544V5.49357V5.51169V5.52981V5.54793V5.56605V5.58418V5.6023V5.62042V5.63854V5.65666V5.67479V5.69291V5.71103V5.72915V5.74728V5.7654V5.78352V5.80164V5.81976V5.83789V5.85601V5.87413V5.89225V5.91037V5.9285V5.94662V5.96474V5.98286V6.00099V6.01911V6.03723V6.05535V6.07347V6.0916V6.10972V6.12784V6.14596V6.16409V6.18221V6.20033V6.21845V6.23658V6.2547V6.27282V6.29094V6.30906V6.32719V6.34531V6.36343V6.38155V6.39968V6.4178V6.43592V6.45404V6.47217V6.49029V6.50841V6.52653V6.54465V6.56278V6.5809V6.59902V6.61714V6.63527V6.65339V6.67151V6.68963V6.70776V6.72588V6.744V6.76212V6.78025V6.79837V6.81649V6.83461V6.85274V6.87086V6.88898V6.9071V6.92523V6.94335V6.96147V6.97959V6.99772V7.01584V7.03396V7.05208V7.07021V7.08833V7.10645V7.12457V7.1427V7.16082V7.17894V7.19706V7.21519V7.23331V7.25143V7.26955V7.28768V7.3058V7.32392V7.34204V7.36017V7.37829V7.39641V7.41454V7.43266V7.45078V7.4689V7.48703V7.50515V7.52327V7.54139V7.55952V7.57764V7.59576V7.61388V7.63201V7.65013V7.66825V7.68638V7.7045V7.72262V7.74074V7.75887V7.77699V7.79511V7.81323V7.83136V7.84948V7.8676V7.88573V7.90385V7.92197V7.94009V7.95822V7.97634V7.99446V8.01259V8.03071V8.04883V8.06695V8.08508V8.1032V8.12132V8.13945V8.15757V8.17569V8.19381V8.21194V8.23006V8.24818V8.26631V8.28443V8.30255V8.32067V8.3388V8.35692V8.37504V8.39317V8.41129V8.42941V8.44753V8.46566V8.48378V8.5019V8.52003V8.53815V8.55627V8.5744V8.59252V8.61064V8.62876V8.64689V8.66501V8.68313V8.70126V8.71938V8.7375V8.75563V8.77375V8.79187V8.80999V8.82812V8.84624V8.86436V8.88249V8.90061V8.91873V8.93686V8.95498V8.9731V8.99123V9.00935V9.02747V9.04559V9.06372V9.08184V9.09996V9.11809V9.13621V9.15433V9.17246V9.19058V9.2087V9.22683V9.24495V9.26307V9.2812V9.29932V9.31744V9.33557V9.35369V9.37181V9.38994V9.40806V9.42618V9.4443V9.46243V9.48055V9.49867V9.5168V9.53492V9.55304V9.57117V9.58929V9.60741V9.62554V9.64366V9.66178V9.67991V9.69803V9.71615V9.73428V9.7524V9.77052V9.78865V9.80677V9.82489V9.84302V9.86114V9.87926V9.89739V9.91551V9.93363V9.95176V9.96988V9.988V10.0061V10.0243V10.0424V10.0605V10.0786V10.0967V10.1149V10.133V10.1511V10.1692V10.1874V10.2055V10.2236V10.2417V10.2599V10.278V10.2961V10.3142V10.3323V10.3505V10.3686V10.3867V10.4048V10.423V10.4411V10.4592V10.4773V10.4955V10.5136V10.5317V10.5498V10.568V10.5861V10.6042V10.6223V10.6405V10.6586V10.6767V10.6948V10.7129V10.7311V10.7492V10.7673V10.7854V10.8036V10.8217V10.8398V10.8579V10.8761V10.8942V10.9123V10.9304V10.9486V10.9667V10.9848V11.0029V11.021V11.0392V11.0573V11.0754V11.0935V11.1117V11.1298V11.1479V11.166V11.1842V11.2023V11.2204V11.2385V11.2567V11.2748V11.2929V11.311V11.3292V11.3473V11.3654V11.3835V11.4016V11.4198V11.4379V11.456V11.4741V11.4923V11.5104V11.5285V11.5466V11.5648V11.5829V11.601V11.6191V11.6373V11.6554V11.6735V11.6916V11.7098V11.7279V11.746V11.7641V11.7822V11.8004V11.8185V11.8366V11.8547V11.8729V11.891V11.9091V11.9272V11.9454C10.1634 12.0384 10.1664 12.1568 10.2187 12.2654C10.2768 12.3861 10.3787 12.4645 10.5096 12.519L10.5864 12.3345L10.5089 12.5187C10.6436 12.5754 10.7648 12.6637 10.8628 12.7776C10.9609 12.8916 11.0331 13.028 11.0733 13.1767L11.0733 13.1767M10.1634 2.66659L11.0733 13.1767M11.0733 13.1767L11.0746 13.1814M11.0733 13.1767L11.0746 13.1814M11.0746 13.1814C11.1049 13.2834 11.1528 13.3763 11.2365 13.4466M11.0746 13.1814L11.2365 13.4466M11.2365 13.4466C11.3176 13.5147 11.412 13.5441 11.4994 13.5608M11.2365 13.4466L11.4994 13.5608M11.4994 13.5608C14.1946 14.1192 16.4915 15.4325 18.3944 17.5054L11.4994 13.5608ZM19.0924 18.3486C18.8629 18.0568 18.6384 17.7715 18.3945 17.5055L19.0924 18.3486ZM19.0924 18.3486C19.1327 18.3997 19.1731 18.451 19.2138 18.5025M19.0924 18.3486L19.2138 18.5025M19.2138 18.5025C19.3306 18.6504 19.3731 18.7605 19.3791 18.843M19.2138 18.5025L19.3791 18.843M19.3791 18.843C19.3846 18.9184 19.3614 18.9972 19.2843 19.0917M19.3791 18.843L19.2843 19.0917M19.2843 19.0917C19.2207 19.1679 19.1563 19.1972 19.0865 19.2008M19.2843 19.0917L19.0865 19.2008M19.0865 19.2008C19.0085 19.2048 18.898 19.1776 18.7497 19.0876L19.0865 19.2008Z" fill="#4397D0" stroke="black" stroke-width="0.4"/>
<path d="M12.3693 3.97745L12.3693 3.97745L12.3693 3.97745ZM12.3693 3.97745L12.3693 3.97755M12.3693 3.97745L12.3693 3.97755M12.3693 3.97755L12.3693 3.97755L12.3693 3.97755ZM19.5051 16.3022L19.5051 16.3022L19.5024 16.3016C19.3596 16.267 19.2615 16.243 19.1912 16.2172C19.1213 16.1915 19.0974 16.1703 19.0862 16.1527C19.0743 16.134 19.0644 16.1003 19.0678 16.0207C19.071 15.9454 19.0849 15.8468 19.1044 15.7076L19.1074 15.6863C19.5114 12.8042 18.8703 10.1985 17.0843 7.945C15.7628 6.27712 14.0636 5.20306 12.0252 4.73593C11.9379 4.71592 11.881 4.70252 11.8411 4.68823C11.822 4.68136 11.811 4.67569 11.8047 4.67152C11.8018 4.66957 11.8003 4.6682 11.7996 4.66753L11.799 4.66687L11.7989 4.66669L11.7987 4.66631L11.7982 4.66498C11.7977 4.66361 11.797 4.66107 11.7964 4.65688C11.7952 4.64801 11.7947 4.63415 11.7965 4.61245C11.8002 4.56762 11.8116 4.5071 11.829 4.41624C11.8574 4.27589 11.8774 4.17812 11.8995 4.10822C11.9221 4.03661 11.9406 4.01677 11.9508 4.00999C11.9594 4.00421 11.9813 3.99517 12.0501 4.00473C12.1183 4.0142 12.2099 4.03817 12.3434 4.07402L12.3434 4.07403C14.7731 4.72598 16.7239 6.1157 18.1513 8.26299L18.1514 8.26325C19.0903 9.66605 19.6692 11.2962 19.8328 12.9987L19.8329 12.999C19.8472 13.1431 19.8506 13.2866 19.854 13.4312C19.8551 13.4772 19.8562 13.5233 19.8577 13.5696C19.8634 13.7519 19.8747 13.9354 19.9171 14.1055C19.9096 14.2069 19.9025 14.307 19.8954 14.4061C19.85 15.0451 19.8078 15.638 19.6843 16.2235C19.6655 16.3105 19.6446 16.3231 19.6429 16.3241C19.6383 16.3267 19.6198 16.3329 19.5508 16.3166C19.5466 16.3155 19.5419 16.314 19.5343 16.3114L19.5326 16.3109C19.5256 16.3085 19.5155 16.3051 19.5051 16.3022Z" fill="#86CDD8" stroke="black" stroke-width="0.2"/>
<path d="M18.119 14.9205L18.1191 14.9205C18.1282 14.7124 18.1408 14.5042 18.1533 14.2961C18.1584 14.2102 18.1636 14.1244 18.1685 14.0386C18.1325 13.2357 18.058 12.4481 17.8289 11.6894L17.8288 11.6894C16.9574 8.79663 15.1331 6.90288 12.3767 5.96829L12.3766 5.96824C12.2366 5.92051 12.1393 5.88879 12.0669 5.87454C11.9935 5.86011 11.9684 5.86864 11.9578 5.87512C11.9456 5.88256 11.9249 5.90403 11.899 5.97936C11.8742 6.05191 11.8511 6.15324 11.819 6.2968C11.8151 6.33479 11.8082 6.37239 11.7982 6.40921L11.7963 6.41624L11.7934 6.42291C11.7786 6.45706 11.7728 6.48013 11.7715 6.49495C11.7708 6.50196 11.7713 6.50619 11.7717 6.50838C11.772 6.51039 11.7725 6.51124 11.7727 6.51168C11.7743 6.51443 11.7889 6.53366 11.8677 6.55309L11.8678 6.55309C12.4356 6.69317 12.9839 6.90826 13.4992 7.19311C14.56 7.76876 15.4702 8.60432 16.1516 9.62745L16.1517 9.62766C16.9595 10.8473 17.4208 12.1958 17.469 13.6858C17.469 13.6858 17.469 13.6859 17.469 13.6859L17.3691 13.6892C17.3769 13.9201 17.3731 14.1516 17.3693 14.3829C17.3672 14.515 17.365 14.6471 17.365 14.7789L18.119 14.9205ZM18.119 14.9205V14.9249C18.119 14.9278 18.119 14.9305 18.1189 14.933C18.1166 14.9328 18.1141 14.9325 18.1114 14.9321C17.905 14.9041 17.6943 14.8841 17.4867 14.8678L18.119 14.9205Z" fill="#87CDD8" stroke="black" stroke-width="0.2"/>
<path d="M0.115299 15.4351L0.214806 15.4252C0.18344 15.1102 0.163838 14.7924 0.144047 14.4716C0.135727 14.3367 0.127374 14.2013 0.1181 14.0653C0.133189 12.5421 0.463468 11.0403 1.08627 9.66243L1.08632 9.66232C1.10785 9.61454 1.1257 9.58083 1.14225 9.55733C1.15858 9.53414 1.16947 9.52697 1.17477 9.52452C1.18113 9.52158 1.20965 9.51199 1.30948 9.56683C1.32028 9.57296 1.3308 9.57892 1.34107 9.58474C1.45451 9.64905 1.53558 9.695 1.59422 9.73597C1.65835 9.78077 1.67894 9.8087 1.68671 9.82984C1.69421 9.85028 1.69668 9.88345 1.67554 9.95652C1.65433 10.0298 1.61521 10.125 1.55819 10.2633C0.97171 11.6836 0.718425 13.229 0.819169 14.7714C0.849064 15.3403 0.939818 15.904 1.08976 16.4521L1.08997 16.4528C1.11583 16.5446 1.1086 16.5781 1.10099 16.592C1.0938 16.6051 1.06998 16.6299 0.975456 16.6559C0.966158 16.6584 0.957026 16.661 0.948054 16.6634C0.803426 16.7031 0.700651 16.7313 0.622262 16.7443C0.537174 16.7584 0.506885 16.7495 0.493262 16.741C0.479593 16.7325 0.457758 16.7088 0.432662 16.6247C0.408143 16.5425 0.386831 16.4265 0.356474 16.2597L0.356468 16.2596C0.342652 16.1839 0.328268 16.1096 0.314059 16.0362C0.274074 15.8297 0.235471 15.6303 0.214795 15.4251L0.115299 15.4351ZM0.115299 15.4351C0.0837374 15.1181 0.0639474 14.7974 0.0441021 14.4757C0.0357294 14.3399 0.0273469 14.2041 0.0180664 14.0682C0.0327651 12.5299 0.366055 11.013 0.995152 9.62124C1.08422 9.42355 1.15222 9.36615 1.35825 9.47952L1.18622 16.4257C1.23993 16.6163 1.2005 16.6978 1.00195 16.7523C0.991521 16.7552 0.981263 16.758 0.971175 16.7608C0.376413 16.924 0.375765 16.9242 0.25809 16.2776C0.244722 16.2043 0.230626 16.1315 0.216579 16.0589C0.176324 15.851 0.136469 15.6452 0.115299 15.4351Z" fill="#87CDD8" stroke="black" stroke-width="0.2"/>
<path d="M14.863 22.2528L14.8631 22.2528C15.7815 21.662 16.5907 20.9047 17.2526 20.017C17.2868 19.9713 17.3145 19.9383 17.3393 19.9154C17.3637 19.8929 17.3805 19.8847 17.392 19.8819C17.4099 19.8774 17.4515 19.8776 17.5521 19.959C17.5667 19.9708 17.5806 19.9821 17.5941 19.993C17.685 20.0666 17.7513 20.1203 17.7988 20.1661C17.8544 20.2196 17.8674 20.2472 17.8703 20.2632C17.8727 20.2767 17.8715 20.3021 17.8365 20.362C17.8014 20.4221 17.7436 20.4985 17.6575 20.6105C16.7616 21.7719 15.6269 22.7082 14.3374 23.3503L14.3374 23.3503C13.75 23.643 13.1393 23.8817 12.5121 24.0637L12.5114 24.0639C12.4187 24.0916 12.383 24.0874 12.3696 24.0809C12.3646 24.0784 12.34 24.0644 12.3246 23.9676L12.3246 23.9676L12.3244 23.9661C12.3036 23.8468 12.2761 23.7256 12.2515 23.6167C12.2392 23.5623 12.2276 23.5109 12.2178 23.4644C12.2138 23.4311 12.2174 23.4164 12.2189 23.4121C12.2192 23.4112 12.2192 23.4111 12.2192 23.4111C12.2191 23.4112 12.2191 23.4113 12.2195 23.4111C12.2231 23.4089 12.2312 23.4054 12.2505 23.401C12.2573 23.3994 12.2636 23.3981 12.2711 23.3966C12.2743 23.3959 12.2778 23.3952 12.2817 23.3944C12.2931 23.392 12.3068 23.389 12.3207 23.385L12.2932 23.2889L12.3195 23.3854C13.2164 23.1407 14.0735 22.759 14.863 22.2528Z" fill="#87CDD8" stroke="black" stroke-width="0.2"/>
<path d="M3.47855 10.3059C2.86262 11.4531 2.53864 12.7451 2.53716 14.0592C2.5249 14.5785 2.5755 15.0973 2.68776 15.6034L2.68775 15.6034L2.68813 15.605C2.70711 15.6845 2.69669 15.707 2.69329 15.7123C2.68897 15.7191 2.67226 15.7363 2.59825 15.7557L2.59694 15.756C2.42704 15.8003 2.30745 15.8314 2.21802 15.8443C2.12617 15.8576 2.09276 15.847 2.07753 15.8366C2.06217 15.8261 2.03961 15.7983 2.01792 15.7062C1.99678 15.6164 1.9815 15.4901 1.96068 15.3102L1.96063 15.3098C1.92478 15.0099 1.89958 14.7101 1.88052 14.4835C1.87424 14.4087 1.86862 14.3419 1.86351 14.2857C1.8959 12.4606 2.29482 10.9389 3.13548 9.54753L3.13561 9.54732C3.15737 9.51111 3.174 9.48956 3.18652 9.47724C3.19204 9.4718 3.19574 9.46916 3.19773 9.46796C3.19955 9.46839 3.20276 9.46938 3.20768 9.47159C3.22135 9.47776 3.24103 9.49019 3.26973 9.51307L3.26976 9.51309C3.32978 9.56091 3.4048 9.60615 3.47193 9.64664C3.50201 9.66478 3.53051 9.68197 3.55536 9.698C3.64622 9.75662 3.7016 9.80634 3.72378 9.85998C3.73739 9.89289 3.72893 9.94053 3.6702 10.0294C3.64856 10.0622 3.62418 10.0947 3.59778 10.13C3.59056 10.1396 3.58318 10.1495 3.57567 10.1596C3.54219 10.2047 3.5064 10.2544 3.47871 10.3056L3.47855 10.3059Z" fill="#87CDD8" stroke="black" stroke-width="0.2"/>
<path d="M7.89831 23.5343L7.79976 23.5125L7.89831 23.5343ZM7.89831 23.5343C7.89785 23.5386 7.8974 23.544 7.8974 23.549M7.89831 23.5343L7.88291 23.625M7.8974 23.549C7.8924 23.5753 7.88758 23.6007 7.88291 23.625M7.8974 23.549H7.80179M7.8974 23.549L7.79928 23.5303C7.79927 23.5299 7.79926 23.5296 7.79925 23.5295C7.79916 23.5263 7.79924 23.5238 7.79928 23.5226L7.79959 23.5178C7.79974 23.5162 7.79991 23.5149 7.79967 23.5169L7.7996 23.5175C7.79921 23.5205 7.79823 23.5285 7.79772 23.5379C7.76505 23.7099 7.74144 23.8319 7.71472 23.919C7.68693 24.0097 7.66254 24.038 7.64557 24.0486C7.62982 24.0584 7.59689 24.0676 7.50867 24.0505C7.42204 24.0336 7.30643 23.9968 7.14147 23.9434L7.14088 23.9433C5.3325 23.3707 3.71876 22.2701 2.49097 20.7711L2.49098 20.7711L2.49046 20.7704C2.47249 20.7489 2.46326 20.7348 2.45871 20.7257C2.45806 20.7244 2.45756 20.7233 2.45718 20.7224C2.45763 20.7216 2.45822 20.7206 2.45895 20.7194C2.46433 20.7111 2.47468 20.6985 2.49411 20.6795C2.6246 20.5539 2.71641 20.4657 2.79082 20.4083C2.86614 20.3502 2.90588 20.3382 2.93215 20.3389C2.95818 20.3396 2.99663 20.3534 3.06754 20.4152C3.13771 20.4763 3.22314 20.5691 3.34473 20.7013C4.51298 21.9892 6.00386 22.9115 7.64932 23.3637C7.66715 23.3691 7.69226 23.3751 7.71244 23.3799C7.72294 23.3824 7.7321 23.3845 7.73822 23.3862C7.76509 23.3932 7.78104 23.3997 7.79098 23.4065C7.79811 23.4113 7.80172 23.4156 7.80432 23.4245C7.80772 23.4361 7.81075 23.4613 7.80046 23.5093C7.80024 23.5103 7.80001 23.5113 7.79977 23.5124L7.89721 23.534L7.80179 23.549M7.88291 23.625C7.87836 23.6243 7.87374 23.6232 7.86909 23.6217C7.84729 23.6148 7.83254 23.6021 7.82374 23.592C7.80849 23.5745 7.80371 23.5564 7.80256 23.5521L7.80254 23.552C7.80227 23.551 7.80202 23.55 7.80179 23.549M7.88291 23.625L7.80179 23.549" fill="#87CDD8" stroke="black" stroke-width="0.2"/>
<path d="M16.3417 19.4286C16.1803 19.2926 16.0203 19.1537 15.8616 19.012C15.7658 18.9262 15.7161 18.9716 15.644 19.0602C14.8325 20.0583 13.7925 20.8269 12.6203 21.295C12.5637 21.3179 12.4969 21.332 12.4304 21.3459C12.2892 21.3756 12.1496 21.405 12.1131 21.5182C12.0798 21.6213 12.1232 21.7455 12.1678 21.8734C12.1953 21.9522 12.2232 22.0324 12.2341 22.1099L16.3417 19.4286ZM16.3417 19.4286C16.3429 19.4293 16.3441 19.43 16.3453 19.4307L16.3417 19.4286ZM16.2833 19.5102L16.2833 19.5102L16.2772 19.5051C16.1151 19.3684 15.9544 19.2289 15.795 19.0866L15.795 19.0865C15.7843 19.0769 15.7766 19.0716 15.7718 19.0688C15.7697 19.0704 15.767 19.0728 15.7636 19.0759L16.2833 19.5102ZM16.2833 19.5102C16.2795 19.5152 16.2759 19.5198 16.2725 19.5243C16.2588 19.5422 16.248 19.5564 16.2366 19.5707C15.2376 20.8105 13.9921 21.6657 12.522 22.1806C12.476 22.1966 12.4411 22.2072 12.4133 22.2121C12.3852 22.217 12.3742 22.2143 12.3714 22.2133C12.3705 22.213 12.3699 22.2127 12.3689 22.2117C12.3676 22.2105 12.3644 22.2071 12.3602 22.1993C12.3511 22.1823 12.3408 22.1511 12.3332 22.0962L12.3331 22.096C12.3207 22.0076 12.288 21.914 12.26 21.8338C12.252 21.8109 12.2444 21.7892 12.2377 21.769C12.2038 21.6656 12.1925 21.5977 12.2082 21.5489C12.2174 21.5207 12.2483 21.4937 12.3462 21.4676C12.3788 21.459 12.4121 21.452 12.4484 21.4444C12.4635 21.4412 12.4791 21.4379 12.4954 21.4343C12.5476 21.423 12.6049 21.4091 12.6574 21.3879C13.8458 20.9134 14.8996 20.1343 15.7216 19.1233L16.2833 19.5102Z" fill="#87CDD8" stroke="black" stroke-width="0.2"/>
<path d="M17.3948 23.7168L17.3857 23.7174C16.8018 23.76 16.2515 24.021 15.8364 24.4536L15.8348 24.4553L15.8348 24.4553C15.3902 24.8974 15.1192 25.4972 15.076 26.1377L15.0759 26.1385L15.0759 26.1385C15.075 26.1506 15.0737 26.1626 15.0727 26.1728L15.0724 26.1754C15.0712 26.1868 15.0702 26.196 15.0697 26.2045C15.0694 26.2089 15.0693 26.2125 15.0693 26.2155C15.0756 26.2165 15.0848 26.2174 15.0979 26.2174H15.0989L15.0989 26.2174C15.6611 26.2227 16.2428 25.9315 16.6922 25.4787C17.1414 25.0264 17.4465 24.4245 17.4682 23.8267C17.4683 23.8267 17.4683 23.8267 17.4683 23.8266L17.3948 23.7168ZM17.3948 23.7168L17.4036 23.7145M17.3948 23.7168L17.4036 23.7145M17.4036 23.7145C17.4352 23.7063 17.449 23.7077 17.4537 23.7089L17.4036 23.7145ZM17.4556 23.7098C17.4556 23.7098 17.4551 23.7097 17.4544 23.7091L17.4556 23.7098Z" fill="#88B237" stroke="black" stroke-width="0.2"/>
<path d="M1.41903 7.83092L1.43083 7.83011C2.61521 7.74878 3.65958 6.64114 3.72512 5.417C3.72512 5.41697 3.72512 5.41693 3.72512 5.41689L1.41903 7.83092ZM1.41903 7.83092L1.40773 7.83446M1.41903 7.83092L1.40773 7.83446M1.40773 7.83446C1.3716 7.84581 1.35138 7.84708 1.342 7.84618C1.34171 7.84615 1.34144 7.84612 1.34119 7.84609C1.33931 7.84232 1.33595 7.83384 1.33324 7.81752C1.32917 7.79305 1.32779 7.75864 1.33017 7.71174L1.2303 7.70667L1.33017 7.71184C1.36068 7.12162 1.64652 6.54132 2.07139 6.10182C2.49644 5.66213 3.05241 5.37171 3.61424 5.34855L3.61474 5.34852M1.40773 7.83446L3.61474 5.34852M3.61474 5.34852C3.62627 5.34799 3.63639 5.34742 3.64558 5.3469M3.61474 5.34852L3.64558 5.3469M3.64558 5.3469C3.66486 5.34582 3.68005 5.34496 3.69547 5.34516M3.64558 5.3469L3.69547 5.34516M3.69547 5.34516C3.70562 5.34529 3.71278 5.34593 3.71786 5.34679M3.69547 5.34516L3.71786 5.34679M3.71786 5.34679C3.71874 5.34694 3.71951 5.34708 3.72018 5.34723L3.71786 5.34679Z" fill="#88B237" stroke="black" stroke-width="0.2"/>
<path d="M14.5544 3.15517C14.5705 3.15198 14.5853 3.15154 14.5975 3.15201C14.6164 3.15273 14.634 3.15591 14.6472 3.15854C14.6578 3.16069 14.666 3.16244 14.6725 3.16384C14.674 3.16417 14.6754 3.16447 14.6768 3.16476C14.6777 3.15674 14.6783 3.14607 14.6783 3.13213C14.6783 2.54124 14.4069 1.94499 13.9846 1.48529C13.5623 1.02551 12.998 0.711974 12.424 0.673965C12.4239 0.673963 12.4239 0.67396 12.4239 0.673958L14.5544 3.15517ZM14.5544 3.15517C13.4005 3.06745 12.3631 1.99147 12.2923 0.823211L12.1925 0.829263L14.5544 3.15517Z" fill="#88B237" stroke="black" stroke-width="0.2"/>
<path d="M7.658 22.2248L7.65816 22.2243C7.70654 22.0627 7.74857 21.8996 7.79246 21.7293C7.80722 21.6721 7.82218 21.614 7.83766 21.5549C7.83452 21.5535 7.83087 21.5519 7.82666 21.5501C7.80351 21.5405 7.77166 21.5288 7.72523 21.5118C7.72495 21.5117 7.72468 21.5116 7.7244 21.5115L7.75872 21.4176L7.658 22.2248ZM7.658 22.2248C7.65673 22.2292 7.65552 22.2328 7.6544 22.2358C7.64829 22.2335 7.64038 22.2303 7.63004 22.2256C7.62705 22.2242 7.62357 22.2226 7.61972 22.2208C7.60334 22.2132 7.58023 22.2024 7.55969 22.1956L7.55951 22.1956M7.658 22.2248L7.55951 22.1956M7.55951 22.1956C6.73615 21.9243 5.95985 21.5167 5.26034 20.9885L5.20007 21.0683L5.26047 20.9886C5.10571 20.8713 4.96247 20.7478 4.81655 20.6221C4.71512 20.5347 4.61239 20.4462 4.50361 20.3579L4.5036 20.3579M7.55951 22.1956L4.5036 20.3579M4.5036 20.3579C4.46277 20.3247 4.45519 20.3081 4.45393 20.3047C4.45485 20.301 4.46091 20.2828 4.50025 20.2441C4.56231 20.1839 4.62063 20.1063 4.67233 20.0375C4.69142 20.0121 4.70961 19.9878 4.72675 19.9662C4.79785 19.8762 4.85529 19.8221 4.91394 19.8041L4.91394 19.8041M4.5036 20.3579L4.91394 19.8041M4.91394 19.8041L4.91451 19.8039M4.91394 19.8041L4.91451 19.8039M4.91451 19.8039C4.94753 19.7936 4.98756 19.8047 5.06247 19.8838M4.91451 19.8039L5.06247 19.8838M5.06247 19.8838C5.08877 19.9115 5.11398 19.9417 5.14145 19.9746M5.06247 19.8838L5.14145 19.9746M5.14145 19.9746C5.15083 19.9858 5.16047 19.9974 5.17051 20.0092M5.14145 19.9746L5.17051 20.0092M5.17051 20.0092C5.20788 20.0534 5.25029 20.1015 5.29692 20.1399M5.17051 20.0092L5.29692 20.1399M5.29692 20.1399L5.36054 20.0628L5.29692 20.1399Z" fill="#87CDD8" stroke="black" stroke-width="0.2"/>
<path d="M10.9048 14.7031L10.8718 14.9004C10.8766 14.9012 10.8829 14.9009 10.8881 14.8997C10.8896 14.8993 10.8904 14.899 10.8904 14.899C10.8904 14.899 10.8883 14.8998 10.8838 14.9024C10.8752 14.9073 10.8655 14.9139 10.847 14.9267L10.845 14.9281C10.8292 14.9391 10.8059 14.9553 10.7802 14.97L9.11113 15.6413C9.71312 15.9927 10.3146 15.9927 10.9157 15.6413C10.9116 15.3286 10.908 15.0158 10.9048 14.7031ZM10.9048 14.7031C10.8845 14.6997 10.8659 14.7003 10.8483 14.7037L10.9048 14.7031ZM10.7056 14.7811C10.6974 14.7865 10.689 14.7918 10.6805 14.7967C10.3582 14.9837 10.0053 15.078 9.66053 14.9249L10.7056 14.7811ZM10.7056 14.7811C10.7058 14.8011 10.706 14.8211 10.7063 14.8411L10.7056 14.7811ZM9.30922 15.522C9.30741 15.412 9.30553 15.3015 9.3034 15.1911C9.34969 15.1188 9.38315 15.0906 9.40672 15.0797C9.42325 15.0721 9.46654 15.058 9.57966 15.1078C9.97942 15.2852 10.3752 15.1872 10.7081 15.0101C10.71 15.1814 10.712 15.3526 10.7142 15.5239C10.243 15.7658 9.7813 15.7652 9.30922 15.522Z" fill="#3570AA" stroke="black" stroke-width="0.4"/>
<path d="M7.00783 4.21553L6.95582 4.30095C6.96574 4.30699 6.98 4.32125 6.99592 4.35333C7.01166 4.38505 7.02526 4.42651 7.03818 4.47699C7.04851 4.51734 7.0575 4.55966 7.06697 4.60425C7.06935 4.61545 7.07176 4.6268 7.07423 4.6383C7.08618 4.69392 7.09944 4.75255 7.1165 4.80628L7.11645 4.8063L7.11757 4.80946C7.1305 4.84589 7.14062 4.87758 7.1478 4.90008C7.14994 4.90678 7.15182 4.91267 7.15344 4.91762C7.1588 4.94202 7.1579 4.95433 7.15712 4.95877C7.15707 4.95905 7.15702 4.95929 7.15699 4.95949C7.1565 4.95987 7.1558 4.96039 7.15483 4.96102C7.15238 4.96264 7.14872 4.96471 7.14322 4.96729C7.13453 4.97137 7.12683 4.97434 7.11631 4.9784C7.11052 4.98063 7.10387 4.9832 7.09573 4.98646L7.13294 5.07928L7.09601 4.98635C7.06104 5.00025 7.02599 5.01414 6.99088 5.02805C6.77089 5.11524 6.54851 5.20338 6.32922 5.29946L6.36936 5.39106L6.32945 5.29936C6.30463 5.31016 6.28665 5.3156 6.27398 5.31771C6.26724 5.31883 6.26326 5.3188 6.26132 5.31864C6.25775 5.31488 6.24916 5.30261 6.24028 5.26908L6.24057 5.26901L6.238 5.26165C6.22535 5.22552 6.2102 5.19037 6.19266 5.15647C6.12421 5.00774 6.07646 4.90318 6.04995 4.82306C6.02281 4.74102 6.0262 4.7073 6.03306 4.69028C6.03969 4.67382 6.05967 4.64804 6.135 4.60989C6.20917 4.57232 6.31587 4.53273 6.46901 4.47666L6.46918 4.4766C6.52401 4.45641 6.57919 4.42838 6.62964 4.40199C6.63882 4.39718 6.64784 4.39244 6.65671 4.38777C6.69857 4.36574 6.73732 4.34535 6.77552 4.32816C6.87459 4.28359 6.92506 4.28235 6.95609 4.30111L7.00783 4.21553ZM7.00783 4.21553C6.89675 4.14838 6.75234 4.22441 6.60924 4.29975C6.54999 4.33094 6.49097 4.36201 6.43463 4.38276C5.83084 4.60383 5.83084 4.6095 6.10281 5.20045L7.00783 4.21553ZM6.26305 5.32008C6.26303 5.32013 6.26267 5.31994 6.26201 5.31933L6.26305 5.32008Z" fill="#87CDD8" stroke="black" stroke-width="0.2"/>
</g>
<defs>
<clipPath id="clip0_187_1824">
<rect width="20" height="28" fill="white" transform="translate(0.0180664 0.572754)"/>
</clipPath>
</defs>
</svg>
